<svg width="110" height="110" viewBox="0 0 110 110" fill="none" xmlns="http://www.w3.org/2000/svg">
<circle cx="55" cy="55" r="55" fill="#8498FC"/>
<mask id="mask0_2591_4275" style="mask-type:alpha" maskUnits="userSpaceOnUse" x="0" y="0" width="110" height="110">
<circle cx="55" cy="55" r="55" fill="#D9D9D9"/>
</mask>
<g mask="url(#mask0_2591_4275)">
<path d="M86.972 112.818C87.0683 114.753 90.2479 117.475 90.7377 118.768C91.2275 120.061 94.8005 125.368 94.8005 125.368C89.9428 124.83 78.2442 114.802 78.2442 114.802H69.8457L78.2442 110.835C78.2442 110.835 89.9428 100.799 94.8005 100.269C94.8005 100.269 91.2275 105.584 90.7377 106.869C90.2479 108.153 87.0683 110.883 86.972 112.818Z" fill="#505CA9"/>
<path d="M97.2495 126.853L94.6722 126.572C89.9109 126.05 80.0349 117.901 77.8028 116.014H64.4744L77.586 109.823C79.2882 108.37 89.7342 99.6263 94.6722 99.0803L97.2495 98.7993L95.8043 100.951C94.4554 102.958 92.1912 106.467 91.862 107.318C91.605 107.993 91.0028 108.715 90.2481 109.631C89.4532 110.586 88.2729 112.023 88.1766 112.834C88.2729 113.645 89.4612 115.083 90.2481 116.038C91.0028 116.953 91.597 117.676 91.862 118.35C92.1912 119.193 94.4474 122.702 95.8043 124.71L97.2495 126.861V126.853ZM75.2174 113.597H78.6941L79.0313 113.886C81.5043 116.006 87.5503 120.823 91.8379 123.039C90.8824 121.538 89.8948 119.916 89.6138 119.202C89.4933 118.896 88.8831 118.15 88.3933 117.556C87.197 116.11 85.8481 114.472 85.7678 112.883V112.818V112.754C85.8481 111.156 87.205 109.526 88.3933 108.081C88.8831 107.487 89.4933 106.748 89.6138 106.435C89.8868 105.72 90.8744 104.099 91.8379 102.597C87.5503 104.813 81.5043 109.623 79.0313 111.75L78.9109 111.855L75.2255 113.597H75.2174Z" fill="black"/>
<path d="M31.8438 110.393C31.8438 110.393 33.2569 97.9883 40.7883 92.697C40.7883 92.697 43.6547 92.7693 44.3532 98.6707C44.3532 98.6707 42.2496 107.671 42.1292 111.301C42.1292 111.301 35.8664 106.588 31.8438 110.401V110.393Z" fill="white"/>
<path d="M82.3235 110.61C82.3235 110.61 80.9103 98.2051 73.3789 92.9138C73.3789 92.9138 70.5125 92.9861 69.814 98.8875C69.814 98.8875 71.9176 107.888 72.0381 111.517C72.0381 111.517 78.3008 106.804 82.3235 110.618V110.61Z" fill="white"/>
<path d="M43.518 89.9189L40.7881 92.135C40.7881 92.135 43.9516 94.2788 44.1844 99.3533C44.1844 99.3533 41.2457 109.446 41.9603 112.73C41.9603 112.73 48.729 115.227 56.5414 115.227C64.3538 115.227 71.8771 112.353 71.8771 112.353C71.8771 112.353 71.8611 103.785 69.3399 97.8839C69.3399 97.8839 71.7085 92.9299 73.2822 92.2715L71.8771 89.9591C71.8771 89.9591 54.3333 95.0576 43.526 89.927L43.518 89.9189Z" fill="#969696"/>
<path d="M66.9873 103.842C67.6924 103.842 68.264 103.27 68.264 102.565C68.264 101.86 67.6924 101.288 66.9873 101.288C66.2823 101.288 65.7107 101.86 65.7107 102.565C65.7107 103.27 66.2823 103.842 66.9873 103.842Z" fill="#4A803B"/>
<path d="M54.0928 94.1423L55.0081 93.0343L48.376 91.8459C48.376 91.8459 48.5125 99.1766 54.5103 100.694C54.5103 100.694 55.7227 97.0248 57.5132 96.4547C57.5132 96.4547 54.3979 95.6116 54.0847 94.1423H54.0928Z" fill="white"/>
<path d="M60.4599 93.2188L61.3752 94.3269C61.0621 95.7882 57.9468 96.6393 57.9468 96.6393C59.7373 97.2093 60.9497 100.879 60.9497 100.879C66.9555 99.3612 67.084 92.0305 67.084 92.0305L60.4519 93.2188H60.4599Z" fill="white"/>
<path d="M54.454 92.697H60.797L61.2788 94.4634C61.2788 94.4634 59.6408 96.6153 57.8664 96.27C57.8664 96.27 60.0343 97.5386 60.4678 100.694C60.4678 100.694 57.2 102.356 54.5182 100.694C54.5182 100.694 55.7226 97.1934 57.2241 96.4226C57.2241 96.4226 54.4219 95.4992 54.2051 93.8934L54.462 92.697H54.454Z" fill="#F15D5F"/>
<path d="M31.3618 114.665L32.2852 110.185C32.2852 110.185 38.7166 107.182 42.0085 111.903V117.435C42.0085 117.435 38.9253 123.144 35.826 120.856C32.7268 118.567 31.5625 116.616 31.3618 114.673V114.665Z" fill="#FDFBE2"/>
<path d="M83.2466 114.665L82.3232 110.185C82.3232 110.185 75.8918 107.182 72.5999 111.903V117.435C72.5999 117.435 75.6831 123.144 78.7823 120.856C81.8816 118.567 83.0458 116.616 83.2466 114.673V114.665Z" fill="#FDFBE2"/>
<path d="M38.283 122.895C35.2399 122.895 31.7151 121.128 30.7596 118.126L30.7034 117.909C27.4917 99.1044 42.2253 89.1161 42.3779 89.0117C43.1166 88.5219 44.1122 88.7226 44.602 89.4613C45.0917 90.2 44.891 91.1956 44.1523 91.6854C43.5903 92.0628 31.0888 100.638 33.8509 117.234C34.445 118.832 36.9983 119.868 38.7728 119.651C40.0976 119.491 40.1458 118.832 40.1698 118.591C40.2501 117.475 40.0012 117.387 38.9655 117.009C38.1706 116.728 36.0669 115.974 36.5567 113.565C36.7333 112.698 37.5844 112.136 38.4516 112.312C39.2063 112.465 39.7282 113.131 39.7363 113.87C39.8406 113.91 39.953 113.95 40.0414 113.982C41.2056 114.4 43.6304 115.267 43.3655 118.824C43.2049 121.008 41.591 122.55 39.1421 122.839C38.8611 122.871 38.572 122.887 38.2749 122.887L38.283 122.895Z" fill="#231F20"/>
<path d="M41.7678 118.8C41.3262 118.8 40.9648 118.439 40.9648 117.997C41.021 102.75 44.7466 95.9008 44.9072 95.6198C45.124 95.2344 45.6057 95.0899 45.9992 95.3066C46.3846 95.5234 46.5291 96.0132 46.3123 96.3986C46.2721 96.4628 42.6269 103.223 42.5707 118.005C42.5707 118.447 42.2094 118.808 41.7678 118.808V118.8Z" fill="#231F20"/>
<path d="M75.9801 122.895C75.683 122.895 75.3939 122.879 75.1129 122.847C72.672 122.558 71.0582 121.016 70.8895 118.832C70.6246 115.275 73.0494 114.408 74.2136 113.991C74.31 113.958 74.4224 113.918 74.5268 113.878C74.5509 113.147 75.0647 112.489 75.8114 112.337C76.6706 112.16 77.5217 112.706 77.6983 113.573C78.1881 115.982 76.0844 116.729 75.2895 117.018C74.2538 117.387 74.0049 117.475 74.0852 118.599C74.1012 118.848 74.1494 119.507 75.4822 119.659C77.2647 119.868 79.81 118.84 80.4041 117.242C83.1742 100.63 70.6406 92.0467 70.1027 91.6935C69.364 91.2037 69.1633 90.2081 69.653 89.4694C70.1428 88.7307 71.1384 88.53 71.8771 89.0197C72.0297 89.1161 86.7633 99.1124 83.5516 117.917L83.4954 118.134C82.5319 121.137 79.0071 122.903 75.972 122.903L75.9801 122.895Z" fill="#231F20"/>
<path d="M72.4954 118.8C72.0538 118.8 71.6925 118.439 71.6925 117.997C71.6363 103.159 67.9911 96.4628 67.9589 96.3986C67.7422 96.0132 67.8787 95.5234 68.2721 95.3066C68.6575 95.0898 69.1473 95.2263 69.3641 95.6197C69.5246 95.9008 73.2502 102.75 73.3064 117.997C73.3064 118.439 72.9531 118.8 72.5035 118.8H72.4954Z" fill="#231F20"/>
<path d="M63.1656 9.92422C63.1656 9.92422 62.0816 -1.60571 57.224 -1.60571C52.3663 -1.60571 50.5356 10.0687 50.5356 10.0687L63.1656 9.91619V9.92422Z" fill="#505CA9"/>
<path d="M48.6567 11.6985L48.9538 9.81972C49.2991 7.6438 51.3064 -3.21167 57.2319 -3.21167C63.1575 -3.21167 64.5626 7.60366 64.7713 9.77154L64.9319 11.5058L48.6648 11.6985H48.6567ZM57.2239 8.82149e-06C55.1925 8.82149e-06 53.3779 4.52848 52.4867 8.44672L61.3348 8.34234C60.6925 4.41607 59.1348 8.82149e-06 57.2239 8.82149e-06Z" fill="#231F20"/>
<path d="M104.098 57.5211C104.098 80.1233 83.1499 91.3481 57.3039 91.3481C31.4579 91.3481 10.5098 80.1313 10.5098 57.5211C10.5098 34.9109 31.4579 9.48242 57.3039 9.48242C83.1499 9.48242 104.098 34.9189 104.098 57.5211Z" fill="#505CA9"/>
<path d="M57.3041 92.9541C27.9011 92.9541 8.90405 79.0475 8.90405 57.5212C8.90405 34.5658 30.0449 7.87671 57.3041 7.87671C84.5632 7.87671 105.704 34.5658 105.704 57.5212C105.704 79.0475 86.707 92.9541 57.3041 92.9541ZM57.3041 11.0884C31.8595 11.0884 12.1157 36.0512 12.1157 57.5212C12.1157 81.2796 35.4566 89.7424 57.3041 89.7424C79.1515 89.7424 102.492 81.2796 102.492 57.5212C102.492 36.0512 82.7566 11.0884 57.3041 11.0884Z" fill="#231F20"/>
<path d="M57.2241 92.697C78.017 92.697 94.873 77.9511 94.873 59.7612C94.873 41.5713 78.017 26.8254 57.2241 26.8254C36.4312 26.8254 19.5752 41.5713 19.5752 59.7612C19.5752 77.9511 36.4312 92.697 57.2241 92.697Z" fill="#FDFBE2"/>
<path d="M57.2239 93.9014C35.802 93.9014 18.3706 78.5817 18.3706 59.7612C18.3706 40.9408 35.802 25.6211 57.2239 25.6211C78.6458 25.6211 96.0772 40.9408 96.0772 59.7612C96.0772 78.5817 78.6458 93.9014 57.2239 93.9014ZM57.2239 28.0299C37.1268 28.0299 20.7794 42.2656 20.7794 59.7612C20.7794 77.2569 37.1268 91.4926 57.2239 91.4926C77.321 91.4926 93.6684 77.2569 93.6684 59.7612C93.6684 42.2656 77.321 28.0299 57.2239 28.0299Z" fill="#231F20"/>
<path d="M39.391 65.2212C43.3154 65.2212 46.4968 62.0398 46.4968 58.1154C46.4968 54.1909 43.3154 51.0095 39.391 51.0095C35.4666 51.0095 32.2852 54.1909 32.2852 58.1154C32.2852 62.0398 35.4666 65.2212 39.391 65.2212Z" fill="white"/>
<path d="M39.3912 66.0241C35.0313 66.0241 31.4824 62.4752 31.4824 58.1153C31.4824 53.7554 35.0313 50.2065 39.3912 50.2065C43.751 50.2065 47.2999 53.7554 47.2999 58.1153C47.2999 62.4752 43.751 66.0241 39.3912 66.0241ZM39.3912 51.8124C35.9145 51.8124 33.0883 54.6387 33.0883 58.1153C33.0883 61.5919 35.9145 64.4182 39.3912 64.4182C42.8678 64.4182 45.6941 61.5919 45.6941 58.1153C45.6941 54.6387 42.8678 51.8124 39.3912 51.8124Z" fill="#231F20"/>
<path d="M74.6473 65.2212C78.5718 65.2212 81.7532 62.0398 81.7532 58.1154C81.7532 54.1909 78.5718 51.0095 74.6473 51.0095C70.7229 51.0095 67.5415 54.1909 67.5415 58.1154C67.5415 62.0398 70.7229 65.2212 74.6473 65.2212Z" fill="white"/>
<path d="M74.647 66.0241C70.2872 66.0241 66.7383 62.4752 66.7383 58.1153C66.7383 53.7554 70.2872 50.2065 74.647 50.2065C79.0069 50.2065 82.5558 53.7554 82.5558 58.1153C82.5558 62.4752 79.0069 66.0241 74.647 66.0241ZM74.647 51.8124C71.1704 51.8124 68.3441 54.6387 68.3441 58.1153C68.3441 61.5919 71.1704 64.4182 74.647 64.4182C78.1237 64.4182 80.95 61.5919 80.95 58.1153C80.95 54.6387 78.1237 51.8124 74.647 51.8124Z" fill="#231F20"/>
<path d="M39.6964 62.6599C42.2063 62.6599 44.2409 60.6252 44.2409 58.1153C44.2409 55.6055 42.2063 53.5708 39.6964 53.5708C37.1865 53.5708 35.1519 55.6055 35.1519 58.1153C35.1519 60.6252 37.1865 62.6599 39.6964 62.6599Z" fill="#231F20"/>
<path d="M74.6471 62.6599C77.1569 62.6599 79.1916 60.6252 79.1916 58.1153C79.1916 55.6055 77.1569 53.5708 74.6471 53.5708C72.1372 53.5708 70.1025 55.6055 70.1025 58.1153C70.1025 60.6252 72.1372 62.6599 74.6471 62.6599Z" fill="#231F20"/>
<path d="M50.5276 74.0131C46.8503 74.0131 43.5101 71.9255 43.3415 71.8131C42.9641 71.5722 42.8598 71.0824 43.0926 70.705C43.3254 70.3276 43.8233 70.2233 44.2006 70.4561C44.2408 70.4882 48.697 73.2583 52.4868 72.1342C54.2532 71.6123 55.6262 70.2875 56.5817 68.2079C56.7663 67.8065 57.24 67.6218 57.6415 67.8145C58.043 67.9992 58.2196 68.4729 58.0349 68.8824C56.8787 71.4116 55.1605 73.0255 52.9284 73.6839C52.1335 73.9167 51.3225 74.0211 50.5196 74.0211L50.5276 74.0131Z" fill="black"/>
<path d="M64.081 74.0132C63.2861 74.0132 62.4751 73.9168 61.6722 73.676C59.4401 73.0176 57.7218 71.3957 56.5656 68.8745C56.381 68.473 56.5656 67.9913 56.9591 67.8066C57.3605 67.6219 57.8423 67.8066 58.0189 68.2C58.9664 70.2796 60.3474 71.6044 62.1138 72.1263C65.8956 73.2504 70.3518 70.4803 70.4 70.4482C70.7773 70.2154 71.2671 70.3198 71.508 70.6971C71.7489 71.0745 71.6364 71.5643 71.2591 71.8052C71.0905 71.9095 67.7503 74.0052 64.0729 74.0052L64.081 74.0132Z" fill="black"/>
<path d="M45.8223 25.9504C41.2939 25.9504 37.2552 24.8825 36.918 24.7942C36.4924 24.6818 36.2355 24.2402 36.3559 23.8066C36.4763 23.373 36.9099 23.1241 37.3435 23.2446C37.4961 23.2847 52.9362 27.3636 56.5734 19.4066C56.7581 19.0052 57.2318 18.8285 57.6333 19.0132C58.0347 19.1979 58.2114 19.6716 58.0267 20.0811C55.8749 24.7862 50.5756 25.9585 45.8143 25.9585L45.8223 25.9504Z" fill="black"/>
<path d="M70.3277 26.143C64.9722 26.143 58.8138 24.9788 56.5737 20.0649C56.389 19.6635 56.5737 19.1817 56.9671 18.997C57.3686 18.8124 57.8503 18.997 58.027 19.3905C61.6722 27.3795 78.8387 23.6459 79.0073 23.6058C79.4409 23.5095 79.8664 23.7824 79.9628 24.216C80.0591 24.6496 79.7861 25.0751 79.3525 25.1715C78.9993 25.2518 74.9606 26.127 70.3117 26.127L70.3277 26.143Z" fill="black"/>
<path d="M40.459 74.0131C40.1218 74.0131 39.8006 73.7963 39.6963 73.451C39.5598 73.0255 39.7926 72.5758 40.2182 72.4393C44.1203 71.1948 43.5342 67.2605 43.5101 67.0919C43.4379 66.6583 43.7349 66.2408 44.1765 66.1685C44.6101 66.0963 45.0276 66.3934 45.0999 66.8269C45.413 68.7058 44.8992 72.624 40.716 73.9649C40.6357 73.989 40.5554 74.005 40.4751 74.005L40.459 74.0131Z" fill="black"/>
<path d="M73.9889 74.0131C73.9086 74.0131 73.8283 73.997 73.748 73.973C69.5567 72.6321 69.0509 68.7219 69.364 66.835C69.4363 66.4014 69.8458 66.1043 70.2874 66.1766C70.721 66.2489 71.0181 66.6584 70.9458 67.1C70.9137 67.2766 70.3436 71.2029 74.2378 72.4474C74.6633 72.5839 74.8962 73.0335 74.7597 73.4591C74.6473 73.7963 74.3341 74.0211 73.9969 74.0211L73.9889 74.0131Z" fill="black"/>
<path d="M13.8824 50.5357C13.8824 50.5357 18.4349 49.1707 17.5115 55.7948C16.5882 62.4269 10.1327 83.7445 1.52542 78.4131C-7.08188 73.0817 -4.49648 67.3408 13.8904 50.5357H13.8824Z" fill="#505CA9"/>
<path d="M4.26322 80.862C3.05081 80.862 1.8384 80.5007 0.67417 79.7781C-1.50977 78.4212 -4.45649 76.2212 -4.78568 72.6963C-5.25138 67.7504 -0.642618 61.6401 12.7983 49.3474L13.0713 49.0985L13.4245 48.9942C13.6734 48.9219 15.8815 48.3117 17.6077 49.789C19.0129 50.9934 19.5107 53.081 19.1092 56.0117C18.4026 61.0942 14.0588 76.9197 7.0333 80.2197C6.126 80.6453 5.19461 80.862 4.27125 80.862H4.26322ZM14.6209 52.0292C4.59242 61.2226 -1.98349 68.208 -1.59006 72.3993C-1.43751 74.0131 -0.217071 75.4423 2.3603 77.0482C3.50045 77.7547 4.54424 77.835 5.65227 77.3212C10.6625 74.9686 15.0545 61.7204 15.9136 55.5781C16.2588 53.1131 15.6968 52.3985 15.5121 52.246C15.2713 52.0292 14.8778 52.0131 14.6129 52.0372L14.6209 52.0292Z" fill="#231F20"/>
<path d="M100.14 50.5357C100.14 50.5357 95.5872 49.1707 96.5106 55.7948C97.4339 62.4269 103.889 83.7445 112.497 78.4131C121.104 73.0817 118.519 67.3408 100.132 50.5357H100.14Z" fill="#505CA9"/>
<path d="M109.759 80.8621C108.835 80.8621 107.904 80.6533 106.997 80.2197C99.9711 76.9197 95.6273 61.0942 94.9208 56.0117C94.5113 53.081 95.0171 50.9934 96.4222 49.7891C98.1485 48.3117 100.357 48.9139 100.605 48.9942L100.959 49.0986L101.232 49.3475C114.681 61.6402 119.281 67.7504 118.816 72.6964C118.486 76.2132 115.54 78.4212 113.356 79.7781C112.192 80.5007 110.979 80.8621 109.767 80.8621H109.759ZM99.2164 52.0212C98.9755 52.0212 98.6945 52.0694 98.5018 52.238C98.3252 52.3986 97.7631 53.1051 98.1003 55.5701C98.9595 61.7204 103.351 74.9606 108.362 77.3132C109.47 77.8351 110.513 77.7467 111.654 77.0402C114.239 75.4423 115.459 74.0051 115.604 72.3913C115.997 68.2 109.422 61.2146 99.393 52.0212C99.3368 52.0212 99.2726 52.0212 99.2164 52.0212Z" fill="#231F20"/>
<path d="M38.7646 24.3926L40.8201 27.5721L42.723 24.9787" fill="white"/>
<path d="M40.8285 28.3751C40.8285 28.3751 40.8124 28.3751 40.8044 28.3751C40.5394 28.3751 40.2985 28.2306 40.154 28.0057L38.0985 24.8262C37.8577 24.4568 37.962 23.959 38.3394 23.7182C38.7087 23.4773 39.2066 23.5817 39.4474 23.959L40.8686 26.159L42.081 24.505C42.346 24.1437 42.8438 24.0714 43.2051 24.3284C43.5664 24.5933 43.6387 25.0911 43.3817 25.4525L41.4788 28.0459C41.3263 28.2547 41.0854 28.3751 40.8285 28.3751Z" fill="black"/>
<path d="M74.2939 25.1314L76.6304 27.5723L77.9231 24.6497" fill="white"/>
<path d="M76.6305 28.3753C76.4137 28.3753 76.2049 28.287 76.0524 28.1264L73.7159 25.6855C73.4108 25.3644 73.4188 24.8585 73.74 24.5534C74.0611 24.2483 74.567 24.2563 74.8721 24.5775L76.3816 26.1512L77.1845 24.3286C77.3611 23.9271 77.8349 23.7425 78.2444 23.9191C78.6458 24.0957 78.8305 24.5695 78.6538 24.979L77.3611 27.9016C77.2568 28.1505 77.0319 28.3191 76.767 28.3673C76.7188 28.3753 76.6706 28.3833 76.6305 28.3833V28.3753Z" fill="black"/>
<path d="M57.3043 9.88396C57.0795 9.88396 56.9028 9.70732 56.9028 9.4825V2.90659C56.9028 2.68177 57.0795 2.50513 57.3043 2.50513C57.5291 2.50513 57.7058 2.68177 57.7058 2.90659V9.49053C57.7058 9.71535 57.5291 9.89199 57.3043 9.89199V9.88396Z" fill="#231F20"/>
<path d="M-2.74617 74.6155C-2.90675 74.6155 -3.05128 74.5191 -3.11551 74.3666C-3.1958 74.1658 -3.09945 73.9249 -2.89872 73.8447C-2.84252 73.8206 0.730472 72.2468 5.0823 64.6432C5.19471 64.4505 5.43558 64.3863 5.62828 64.4906C5.82098 64.603 5.88522 64.8439 5.78084 65.0366C1.25237 72.9454 -2.43303 74.5191 -2.58559 74.5833C-2.63376 74.6074 -2.68997 74.6155 -2.73814 74.6155H-2.74617Z" fill="#231F20"/>
<path d="M-0.610428 76.7512C-0.771012 76.7512 -0.915537 76.6548 -0.979771 76.5023C-1.06006 76.3016 -0.963712 76.0607 -0.762982 75.9804C-0.714807 75.9643 2.85819 74.3906 7.21804 66.7789C7.33045 66.5862 7.57132 66.522 7.76403 66.6264C7.95673 66.7388 8.02096 66.9797 7.91658 67.1724C3.38811 75.0811 -0.297289 76.6549 -0.449844 76.7191C-0.498019 76.7432 -0.554223 76.7512 -0.602399 76.7512H-0.610428Z" fill="#231F20"/>
<path d="M1.44499 78.8066C1.28441 78.8066 1.13988 78.7103 1.07565 78.5577C0.995357 78.349 1.09171 78.1161 1.29244 78.0358C1.34061 78.0198 4.9136 76.446 9.27346 68.8344C9.38587 68.6417 9.62674 68.5774 9.81944 68.6818C10.0121 68.7942 10.0764 69.0351 9.972 69.2278C5.44353 77.1365 1.75813 78.7103 1.60558 78.7745C1.5574 78.7986 1.5012 78.8066 1.45302 78.8066H1.44499Z" fill="#231F20"/>
<path d="M116.784 74.6154C116.736 74.6154 116.68 74.6074 116.632 74.5833C116.479 74.519 112.786 72.9453 108.265 65.0366C108.153 64.8438 108.225 64.603 108.418 64.4906C108.611 64.3782 108.852 64.4424 108.964 64.6431C113.356 72.319 116.905 73.8285 116.937 73.8446C117.146 73.9249 117.242 74.1657 117.154 74.3665C117.09 74.519 116.937 74.6154 116.784 74.6154Z" fill="#231F20"/>
<path d="M114.649 76.7511C114.601 76.7511 114.545 76.7431 114.496 76.719C114.344 76.6548 110.65 75.0811 106.13 67.1723C106.018 66.9796 106.09 66.7307 106.283 66.6263C106.475 66.5139 106.716 66.5781 106.828 66.7789C111.196 74.4066 114.769 75.9643 114.81 75.9803C115.01 76.0686 115.115 76.3015 115.026 76.5022C114.962 76.6548 114.81 76.7511 114.657 76.7511H114.649Z" fill="#231F20"/>
<path d="M112.593 78.8065C112.545 78.8065 112.489 78.7985 112.441 78.7744C112.288 78.7102 108.595 77.1365 104.074 69.2277C103.962 69.035 104.034 68.7861 104.227 68.6817C104.42 68.5693 104.66 68.6336 104.773 68.8343C109.141 76.462 112.714 78.0197 112.754 78.0357C112.955 78.1241 113.059 78.3569 112.971 78.5576C112.906 78.7102 112.754 78.8065 112.601 78.8065H112.593Z" fill="#231F20"/>
<path d="M28.2788 73.644C32.7753 73.644 36.4204 71.7998 36.4204 69.525C36.4204 67.2501 32.7753 65.406 28.2788 65.406C23.7823 65.406 20.1372 67.2501 20.1372 69.525C20.1372 71.7998 23.7823 73.644 28.2788 73.644Z" fill="#FADCEA"/>
<path d="M28.2788 74.4468C23.2605 74.4468 19.3342 72.287 19.3342 69.5249C19.3342 66.7629 23.2685 64.603 28.2788 64.603C33.289 64.603 37.2233 66.7629 37.2233 69.5249C37.2233 72.287 33.289 74.4468 28.2788 74.4468ZM28.2788 66.2089C23.951 66.2089 20.9401 67.9592 20.9401 69.5249C20.9401 71.0906 23.959 72.841 28.2788 72.841C32.5985 72.841 35.6174 71.0906 35.6174 69.5249C35.6174 67.9592 32.5985 66.2089 28.2788 66.2089Z" fill="black"/>
<path d="M86.0647 73.644C90.5612 73.644 94.2063 71.7998 94.2063 69.525C94.2063 67.2501 90.5612 65.406 86.0647 65.406C81.5682 65.406 77.9231 67.2501 77.9231 69.525C77.9231 71.7998 81.5682 73.644 86.0647 73.644Z" fill="#FADCEA"/>
<path d="M86.0649 74.4468C81.0466 74.4468 77.1204 72.287 77.1204 69.5249C77.1204 66.7629 81.0547 64.603 86.0649 64.603C91.0751 64.603 95.0094 66.7629 95.0094 69.5249C95.0094 72.287 91.0751 74.4468 86.0649 74.4468ZM86.0649 66.2089C81.7371 66.2089 78.7262 67.9592 78.7262 69.5249C78.7262 71.0906 81.7452 72.841 86.0649 72.841C90.3846 72.841 93.4036 71.0906 93.4036 69.5249C93.4036 67.9592 90.3846 66.2089 86.0649 66.2089Z" fill="black"/>
<path d="M41.1896 111.847C37.6969 108.193 32.4539 110.98 32.2291 111.092L31.4583 109.679C31.5225 109.647 38.002 106.178 42.3458 110.731L41.1816 111.839L41.1896 111.847Z" fill="black"/>
<path d="M72.6237 111.847L71.4595 110.739C75.8113 106.194 82.2828 109.655 82.3471 109.687L81.5763 111.1C81.3595 110.98 76.1084 108.201 72.6157 111.855L72.6237 111.847Z" fill="black"/>
<path d="M57.8504 102.18C47.7898 102.18 47.5811 91.9585 47.5811 91.8542C47.5811 91.4126 47.9343 91.0512 48.3759 91.0432H48.384C48.8256 91.0432 49.1789 91.3965 49.1869 91.8381C49.1869 92.1914 49.3957 100.574 57.8504 100.574C58.292 100.574 58.6533 100.935 58.6533 101.377C58.6533 101.818 58.292 102.18 57.8504 102.18Z" fill="black"/>
<path d="M57.5212 102.18C57.0796 102.18 56.7183 101.818 56.7183 101.377C56.7183 100.935 57.0796 100.574 57.5212 100.574C65.9759 100.574 66.1767 92.1994 66.1847 91.8381C66.1847 91.3965 66.546 91.0432 66.9876 91.0432H66.9956C67.4372 91.0432 67.7905 91.4126 67.7905 91.8542C67.7905 91.9585 67.5818 102.18 57.5212 102.18Z" fill="black"/>
<path d="M50.2466 97.9643C50.1743 97.9643 50.094 97.9402 50.0298 97.9C49.8451 97.7796 49.7889 97.5307 49.9093 97.346C50.0378 97.1453 53.0969 92.5125 57.7699 92.5125C57.9947 92.5125 58.1714 92.6891 58.1714 92.9139C58.1714 93.1387 57.9947 93.3154 57.7699 93.3154C53.5466 93.3154 50.6159 97.7395 50.5838 97.7796C50.5035 97.9 50.375 97.9643 50.2466 97.9643Z" fill="black"/>
<path d="M65.2935 97.9643C65.165 97.9643 65.0365 97.9 64.9562 97.7796C64.9241 97.7314 62.0015 93.3154 57.7701 93.3154C57.5453 93.3154 57.3687 93.1387 57.3687 92.9139C57.3687 92.6891 57.5453 92.5125 57.7701 92.5125C62.4351 92.5125 65.5022 97.1453 65.6307 97.346C65.7511 97.5307 65.6949 97.7796 65.5103 97.9C65.446 97.9402 65.3657 97.9643 65.2935 97.9643Z" fill="black"/>
<path d="M57.224 113.22C46.1196 113.22 42.0649 110.466 41.8962 110.345C41.7116 110.217 41.6714 109.968 41.7999 109.791C41.9284 109.607 42.1773 109.566 42.3619 109.695C42.4021 109.719 46.4247 112.425 57.232 112.425C57.4568 112.425 57.6335 112.601 57.6335 112.826C57.6335 113.051 57.4568 113.228 57.232 113.228L57.224 113.22Z" fill="black"/>
<path d="M56.7662 113.22C56.5414 113.22 56.3647 113.043 56.3647 112.818C56.3647 112.593 56.5414 112.417 56.7662 112.417C67.5735 112.417 71.5961 109.711 71.6363 109.687C71.821 109.558 72.0699 109.607 72.1983 109.783C72.3268 109.968 72.2786 110.217 72.102 110.337C71.9334 110.458 67.8786 113.212 56.7742 113.212L56.7662 113.22Z" fill="black"/>
<path d="M66.9875 104.315C66.0239 104.315 65.2451 103.529 65.2451 102.573C65.2451 101.618 66.032 100.831 66.9875 100.831C67.9429 100.831 68.7298 101.618 68.7298 102.573C68.7298 103.529 67.9429 104.315 66.9875 104.315ZM66.9875 101.626C66.4656 101.626 66.048 102.051 66.048 102.565C66.048 103.079 66.4736 103.505 66.9875 103.505C67.5013 103.505 67.9269 103.079 67.9269 102.565C67.9269 102.051 67.5013 101.626 66.9875 101.626Z" fill="black"/>
<path d="M57.7778 96.8642C57.6895 96.8642 57.5931 96.8642 57.5048 96.8642C55.1362 96.7357 53.723 94.319 53.6668 94.2146C53.5544 94.0219 53.6267 93.781 53.8114 93.6686C54.0041 93.5562 54.2449 93.6204 54.3574 93.8131C54.3734 93.8372 55.6179 95.9569 57.5449 96.0613C60.1464 96.1978 61.1179 93.9576 61.1581 93.8613C61.2464 93.6606 61.4793 93.5642 61.68 93.6445C61.8807 93.7328 61.9771 93.9657 61.8968 94.1664C61.8887 94.1905 60.7406 96.8642 57.7778 96.8642Z" fill="black"/>
<path d="M54.4536 101.28C54.4135 101.28 54.3733 101.28 54.3332 101.264C54.1244 101.2 54.004 100.967 54.0762 100.758C54.2288 100.277 55.6419 96.0613 57.7697 96.0613C57.9945 96.0613 58.1711 96.2379 58.1711 96.4627C58.1711 96.6876 57.9945 96.8642 57.7697 96.8642C56.6054 96.8642 55.3529 99.4014 54.839 100.999C54.7828 101.168 54.6303 101.28 54.4536 101.28Z" fill="black"/>
<path d="M60.6765 101.352C60.4998 101.352 60.3312 101.232 60.2911 101.047C59.8816 99.4255 58.7977 96.8561 57.6415 96.8561C57.4166 96.8561 57.24 96.6795 57.24 96.4547C57.24 96.2299 57.4166 96.0532 57.6415 96.0532C59.7933 96.0532 60.9414 100.357 61.0699 100.847C61.1261 101.063 60.9977 101.28 60.7809 101.336C60.7487 101.344 60.7166 101.352 60.6845 101.352H60.6765Z" fill="black"/>
<path d="M44.3531 99.0723C44.1523 99.0723 43.9757 98.9197 43.9516 98.719C43.4297 94.1744 40.7801 92.5927 40.756 92.5766C40.5633 92.4642 40.4991 92.2233 40.6115 92.0306C40.7239 91.8379 40.9647 91.7737 41.1574 91.8781C41.2779 91.9504 44.1764 93.6525 44.7545 98.6226C44.7786 98.8394 44.618 99.0401 44.4012 99.0642C44.3852 99.0642 44.3691 99.0642 44.3531 99.0642V99.0723Z" fill="black"/>
<path d="M69.8138 99.578C69.8138 99.578 69.7817 99.578 69.7656 99.578C69.5488 99.554 69.3882 99.3532 69.4123 99.1364C69.9824 94.1664 72.8809 92.4642 73.0094 92.3919C73.2021 92.2795 73.443 92.3518 73.5554 92.5445C73.6678 92.7372 73.5955 92.978 73.4108 93.0905C73.3868 93.1065 70.7371 94.6883 70.2152 99.2328C70.1911 99.4335 70.0145 99.5861 69.8138 99.5861V99.578Z" fill="black"/>
<path d="M47.7496 50.5359C47.3963 50.5359 47.0751 50.303 46.9788 49.9417C45.6138 44.9315 39.6722 44.6906 39.608 44.6906C39.1664 44.6745 38.8131 44.3052 38.8291 43.8636C38.8452 43.422 39.2145 43.0687 39.6561 43.0848C39.7284 43.0848 46.8503 43.3818 48.5204 49.5161C48.6408 49.9417 48.3839 50.3833 47.9583 50.5037C47.8861 50.5198 47.8138 50.5359 47.7496 50.5359Z" fill="black"/>
<path d="M66.5137 50.5359C66.4414 50.5359 66.3692 50.5278 66.3049 50.5037C65.8794 50.3833 65.6224 49.9417 65.7429 49.5162C67.421 43.3738 74.5348 43.0848 74.6071 43.0848C75.0487 43.0687 75.4181 43.414 75.4341 43.8636C75.4502 44.3052 75.1049 44.6745 74.6633 44.6906C74.4224 44.6986 68.6575 44.9556 67.2925 49.9417C67.1962 50.295 66.875 50.5359 66.5217 50.5359H66.5137Z" fill="black"/>
</g>
</svg>
