<svg width="20" height="20" viewBox="0 0 20 20" fill="none" xmlns="http://www.w3.org/2000/svg">
<path d="M16.1664 6.11661L13.8831 3.83328C13.5851 3.55336 13.1946 3.39274 12.7859 3.38199C12.3772 3.37123 11.9787 3.51108 11.6664 3.77494L4.16643 11.2749C3.89706 11.5466 3.72935 11.9026 3.69143 12.2833L3.33309 15.7583C3.32187 15.8803 3.3377 16.0034 3.37948 16.1186C3.42125 16.2338 3.48793 16.3384 3.57476 16.4249C3.65263 16.5022 3.74497 16.5633 3.8465 16.6048C3.94803 16.6462 4.05675 16.6672 4.16643 16.6666H4.24143L7.71643 16.3499C8.09709 16.312 8.45312 16.1443 8.72476 15.8749L16.2248 8.37494C16.5159 8.06742 16.6732 7.65703 16.6622 7.23372C16.6513 6.81041 16.473 6.4087 16.1664 6.11661ZM7.56643 14.6833L5.06643 14.9166L5.29143 12.4166L9.99976 7.76661L12.2498 10.0166L7.56643 14.6833ZM13.3331 8.89994L11.0998 6.66661L12.7248 4.99994L14.9998 7.27494L13.3331 8.89994Z" fill="#231F20"/>
</svg>
