<svg width="78" height="62" viewBox="0 0 78 62" fill="none" xmlns="http://www.w3.org/2000/svg">
<g clip-path="url(#clip0_806_148)">
<path d="M75.1826 51.2095H28.1913V58.7598H75.1826V51.2095Z" fill="#C8A992"/>
<path d="M75.3399 58.9181H28.0323V51.0512H75.3399V58.9181ZM28.3486 58.6016H75.0221V51.3678H28.3502V58.6016H28.3486Z" fill="black"/>
<path d="M50.732 51.9772V61.8417H48.0306V54.2898L49.9566 52.4283L50.732 51.9772Z" fill="#C8A992"/>
<path d="M50.8909 62H47.8733V54.2233L49.8771 52.2906L50.8909 51.7002V62ZM48.1911 61.6834H50.5731V52.2526L50.0551 52.5549L48.1911 54.3578V61.6834Z" fill="black"/>
<path d="M77.7236 48.8953V58.7598H75.0238V51.2095L76.9497 49.3464L77.7236 48.8953Z" fill="#C8A992"/>
<path d="M77.8825 58.9181H74.8649V51.1414L76.8687 49.2087L77.8825 48.6183V58.9181ZM75.1827 58.6015H77.5647V49.1707L77.0466 49.473L75.1827 51.276V58.6015Z" fill="black"/>
<path d="M48.0322 54.2898H1.04089V61.8401H48.0322V54.2898Z" fill="#C8A992"/>
<path d="M48.1911 62H0.881958V54.1331H48.1911V62ZM1.19977 61.6834H47.8733V54.4496H1.19977V61.6834Z" fill="black"/>
<path d="M74.949 51.2728V50.1917C74.949 50.1917 77.7282 47.7873 77.7997 48.4489" fill="#D98844"/>
<path d="M77.8411 47.944L77.7998 48.4505C77.7696 48.8209 77.5805 49.1691 77.2658 49.4335L75.2032 51.1731" fill="#D98844"/>
<path d="M75.3034 51.2934L75.0984 51.0512L77.161 49.3116C77.4422 49.0742 77.6123 48.7639 77.6393 48.4363L77.6806 47.9297L77.9968 47.9551L77.9555 48.4616C77.9221 48.8731 77.7124 49.2609 77.366 49.5522L75.3034 51.2918V51.2934Z" fill="black"/>
<path d="M27.6526 50.3231L37.376 47.7905L77.4104 47.5467C77.8029 47.5435 77.9904 47.9424 77.6981 48.1577L74.771 50.3215" fill="#D98844"/>
<path d="M27.694 50.4766L27.6129 50.1695L37.3554 47.6322H37.3744L77.4089 47.3884H77.4137C77.6759 47.3884 77.9015 47.5356 77.9762 47.7556C78.0414 47.9503 77.9714 48.1545 77.7935 48.2859L74.8664 50.4497L74.6773 50.1948L77.6044 48.031C77.6727 47.9804 77.6965 47.9202 77.6743 47.8553C77.6489 47.7794 77.5551 47.7034 77.4121 47.705L37.3983 47.9487L27.6955 50.475L27.694 50.4766Z" fill="black"/>
<path d="M74.9475 50.3231H27.5525C27.2892 50.3231 27.0758 50.5357 27.0758 50.7979C27.0758 51.0602 27.2892 51.2728 27.5525 51.2728H74.9475C75.2107 51.2728 75.4242 51.0602 75.4242 50.7979C75.4242 50.5357 75.2107 50.3231 74.9475 50.3231Z" fill="#D98844"/>
<path d="M74.949 51.4311H27.5525C27.2013 51.4311 26.9169 51.1477 26.9169 50.7979C26.9169 50.4481 27.2013 50.1648 27.5525 50.1648H74.949C75.3002 50.1648 75.5846 50.4481 75.5846 50.7979C75.5846 51.1477 75.3002 51.4311 74.949 51.4311ZM27.5525 50.4813C27.3777 50.4813 27.2347 50.6238 27.2347 50.7979C27.2347 50.972 27.3777 51.1145 27.5525 51.1145H74.949C75.1238 51.1145 75.2668 50.972 75.2668 50.7979C75.2668 50.6238 75.1238 50.4813 74.949 50.4813H27.5525Z" fill="black"/>
<path d="M48.0305 54.2898V53.2087C48.0305 53.2087 50.8098 50.8043 50.8813 51.4659" fill="#D98844"/>
<path d="M50.9226 50.961L50.8813 51.4675C50.8511 51.8379 50.662 52.1861 50.3474 52.4505L48.2848 54.1901" fill="#D98844"/>
<path d="M48.3865 54.3119L48.1815 54.0698L50.2441 52.3302C50.5254 52.0927 50.6954 51.7809 50.7224 51.4548L50.7637 50.9483L51.0799 50.9736L51.0386 51.4802C51.0053 51.8917 50.7955 52.2795 50.4491 52.5708L48.3865 54.3103V54.3119Z" fill="black"/>
<path d="M63.6302 44.84L66.3062 44.8035L68.488 47.1193L68.4006 47.963C68.4006 47.963 67.2723 48.6864 67.2358 48.6864C67.1993 48.6864 65.5196 48.9095 65.5196 48.9095L64.5662 48.9839L64.8649 47.0117L63.6302 44.84Z" fill="white"/>
<path d="M49.4067 46.5938L49.626 47.9962L50.3681 47.3472L52.8168 45.7723L51.6854 45.5586L50.1933 45.6567L49.4067 46.5938Z" fill="white"/>
<path d="M55.7359 35.6861C55.7359 35.6861 56.1061 44.354 55.6342 46.3595C55.6342 46.3595 56.8911 46.8296 56.7783 48.2273C56.7783 48.2273 57.0675 48.5645 56.8673 48.927H59.9595L61.3468 43.5214L61.3786 33.4179C61.3786 33.4179 60.2742 38.2583 58.5898 39.322C58.5898 39.322 56.5955 39.5088 55.7374 35.6861H55.7359Z" fill="#702F31"/>
<path d="M63.1249 44.5487C63.1249 44.5487 62.1031 43.4993 61.2848 43.7541C60.4664 44.0089 59.5225 45.2483 59.5225 45.2483C59.5225 45.2483 57.8397 45.8008 57.8699 46.3595C57.9001 46.9183 58.461 46.779 58.5961 46.7663C58.7312 46.7537 58.2608 47.3013 58.2084 47.4185C58.1559 47.5356 57.8334 48.0247 58.3943 48.0706C58.9552 48.1165 58.488 48.2827 58.8043 48.6056C59.1205 48.9285 59.7513 48.6056 59.7513 48.6056C59.7513 48.6056 59.335 48.9317 60.4187 48.9808C61.5025 49.0298 61.798 48.4901 62.8786 48.7782C63.9591 49.0663 64.6107 48.8462 64.7553 48.7671C64.8999 48.6879 65.1048 46.0746 65.1048 46.0746C65.1048 46.0746 64.2086 44.9128 63.1233 44.5503L63.1249 44.5487Z" fill="#F5BCA7"/>
<path d="M50.09 48.2257L50.1948 47.5403C50.1948 47.5403 51.2579 46.225 52.5784 45.9527C53.8989 45.6805 54.641 45.3465 56.3317 46.855L56.7274 47.7794L56.7783 48.3935C56.7783 48.3935 56.9864 49.1185 56.1999 48.908C56.1999 48.908 56.0537 49.5918 55.4832 49.3638C54.9127 49.1359 54.1547 48.9808 54.1547 48.9808L53.6256 49.2673L52.5403 49.1359C52.5403 49.1359 52.2876 48.7687 51.8014 48.908C51.3151 49.0473 50.3776 48.9808 50.0884 48.5787C49.7992 48.1767 50.0884 48.2273 50.0884 48.2273L50.09 48.2257Z" fill="#F5BCA7"/>
<path d="M55.5801 35.1511L55.0684 29.0032L54.5424 29.4163C54.5424 29.4163 46.4637 31.7685 46.0045 32.9604C45.5452 34.1523 46.416 35.5437 46.416 35.5437C46.416 35.5437 45.693 37.5824 45.7057 37.6457L46.3207 41.1724L48.4707 44.7529C48.1624 44.8605 48.1465 45.0711 48.1322 45.1122L47.8938 46.0145C47.8938 46.0145 48.8473 48.2463 49.5051 46.9325C49.9707 46.005 50.9607 45.6441 51.5026 45.5143C51.5773 45.5823 51.6186 45.6314 51.6504 45.6567C51.7441 45.7374 53.1075 45.7833 53.1075 45.7833C54.6251 45.3639 55.6357 46.3579 55.6357 46.3579C56.2491 43.7826 55.5817 35.1511 55.5817 35.1511H55.5801ZM49.6577 44.7719C49.4702 44.7339 49.3049 44.7117 49.1619 44.6991C49.2207 43.5357 49.5051 43.0339 49.5051 43.0339L50.0899 44.8637C49.9533 44.832 49.8102 44.8004 49.6577 44.7703V44.7719ZM50.2822 44.9112H50.4268C50.5078 44.9444 50.5809 44.9761 50.6508 45.0077C50.5364 44.9761 50.4125 44.9428 50.2822 44.9112Z" fill="#2A2A4F"/>
<path d="M65.1605 44.8922C65.1399 44.8922 65.1208 44.8953 65.1033 44.8985C65.0143 44.9191 65.0477 44.9128 65.1605 44.8922Z" fill="#2A2A4F"/>
<path d="M74.0179 43.3552C74.0179 43.3552 73.8748 42.0018 73.3505 40.2211C72.8261 38.4404 71.7058 39.7225 71.9441 37.7344C72.1825 35.7463 70.7285 35.2825 70.9907 34.5465C71.2529 33.8104 70.8954 32.3621 70.5617 31.8635C70.228 31.3649 61.9347 28.674 61.9347 28.674C61.9347 28.674 61.1609 27.5248 61.2419 28.674C61.323 29.8231 61.3929 42.0398 61.377 43.7541C61.377 43.7541 62.5656 43.857 63.2155 44.65C63.2155 44.65 64.3421 44.7086 65.5959 44.8146C65.4068 44.8479 65.2558 44.8748 65.1605 44.8922C65.7612 44.87 67.6934 46.1712 68.1304 47.2966C68.5833 48.46 65.723 49.0536 65.723 49.0536C65.723 49.0536 72.3494 48.7687 73.5888 48.6974C74.8283 48.6262 75.162 48.0801 75.5195 46.0619C75.877 44.0438 74.0179 43.3552 74.0179 43.3552ZM68.5642 44.4379C68.5198 44.5139 68.4212 44.5819 68.3307 44.5724C68.1813 44.5566 68.0319 44.5376 67.8841 44.5186C67.7951 44.5075 67.7268 44.4854 67.6712 44.4126C67.6188 44.3445 67.5997 44.2606 67.6219 44.1767C67.6346 44.1277 67.6458 44.0786 67.6537 44.0279C67.6537 44.02 67.6569 44.0121 67.6569 44.0042C67.6569 44.001 67.6569 43.9963 67.6585 43.9884C67.6601 43.9662 67.6633 43.9425 67.6648 43.9203C67.6728 43.8158 67.6728 43.7098 67.6696 43.6053C67.6648 43.4993 67.6569 43.3932 67.6442 43.2871C67.6442 43.2824 67.6378 43.2412 67.6362 43.227C67.6331 43.2096 67.6299 43.1795 67.6283 43.1748C67.6203 43.1225 67.6124 43.0719 67.6029 43.0196C67.5774 42.8693 67.641 42.7363 67.792 42.6872C67.9223 42.6461 68.1018 42.7363 68.1257 42.8756C68.167 43.1162 68.2035 43.3631 68.2131 43.6101C68.3036 43.6354 68.3783 43.7114 68.4117 43.8016C68.4371 43.8696 68.4625 43.9361 68.4896 44.0042C68.4943 44.0137 68.5007 44.0311 68.5023 44.0343C68.507 44.0453 68.5118 44.058 68.5182 44.0691C68.5325 44.1007 68.5484 44.1324 68.5627 44.1641C68.6071 44.2527 68.6151 44.3493 68.5627 44.4363L68.5642 44.4379Z" fill="#2A2A4F"/>
<path d="M55.1018 29.6047C55.1018 29.6047 55.3131 34.518 55.7342 35.8286C56.1553 37.1392 56.88 39.5025 58.3991 39.4502C59.9182 39.398 61.3134 33.2532 61.3134 33.2532V29.2406C61.3134 29.2406 59.8848 31.6925 58.1051 32.4286C58.1051 32.4286 57.0865 32.2307 56.4509 31.3316C55.8153 30.4341 55.1018 29.6047 55.1018 29.6047Z" fill="white"/>
<path d="M58.2179 34.7744C59.1046 34.51 59.8848 33.2517 59.8848 33.2517C59.8848 33.2517 58.4705 32.3098 57.9223 32.4396C57.3741 32.5694 56.5859 33.0585 56.5859 33.0585C56.5859 33.0585 57.0913 34.7855 57.9462 34.8171C57.2676 35.4582 56.8831 38.3992 56.8831 38.3992L57.9636 39.3679L58.5881 39.3236L59.6035 38.1728C59.157 35.6624 58.4833 34.9596 58.2179 34.776V34.7744Z" fill="#B1344A"/>
<path d="M53.2331 22.3519C53.2331 22.3519 52.3384 22.5703 52.464 23.3444C52.5895 24.1184 52.99 25.0966 53.7813 25.1599C54.5726 25.2233 53.2331 22.3519 53.2331 22.3519Z" fill="#F5BCA7"/>
<path d="M61.992 22.7001C61.992 22.7001 62.2955 21.9625 62.6721 22.0512C63.0487 22.1398 63.4587 22.5751 63.2982 23.4346C63.1377 24.2941 61.8855 24.951 61.8855 24.951C61.8855 24.951 61.5995 23.4267 61.5995 23.2637C61.5995 23.1006 61.9936 22.7001 61.9936 22.7001H61.992Z" fill="#F5BCA7"/>
<path d="M55.0685 26.9961L55.0717 29.239L56.095 30.8805C56.095 30.8805 57.2375 32.4792 58.0241 32.4444C58.8107 32.4096 61.3134 29.239 61.3134 29.239L61.1466 25.5604L55.0685 26.9961Z" fill="#F5BCA7"/>
<path d="M36.0095 49.7042C37.1881 49.7042 38.1435 49.3732 38.1435 48.9649C38.1435 48.5567 37.1881 48.2257 36.0095 48.2257C34.8308 48.2257 33.8754 48.5567 33.8754 48.9649C33.8754 49.3732 34.8308 49.7042 36.0095 49.7042Z" fill="#10111B"/>
<path d="M28.8095 35.4629L36.4242 33.6078L36.6069 38.7553L36.6419 43.6069L34.9638 48.4727L34.5682 49.1375L31.6427 47.8933L30.5876 47.7493L29.6119 48.1387L28.5377 48.4996L27.891 49.1375L27.079 50.2867V36.7213L28.8095 35.4629Z" fill="#702F31"/>
<path d="M48.7424 45.4984C48.8854 44.1688 47.5983 42.6967 47.7175 42.2266C47.8367 41.7565 47.8367 41.2246 47.0024 40.6548C46.1682 40.085 45.4769 35.55 45.4769 35.55C45.4769 35.55 45.2386 33.1994 42.9265 32.8908C40.6145 32.5821 36.6402 30.4832 36.6402 30.4832C36.6402 30.4832 35.7949 29.3878 36.0571 30.8488C36.3193 32.3083 37.2473 41.6394 35.6391 46.0556L35.3245 47.5261C35.3245 47.5261 34.6937 48.1466 35.3849 48.2891C34.8971 48.5202 34.8351 48.7702 34.8351 48.7702C34.8351 48.7702 36.7785 47.8965 37.4221 48.7513C38.0656 49.606 39.1382 51.9803 35.8616 52.0516C35.8616 52.0516 46.3604 52.1228 47.9813 51.9329C49.6021 51.7429 49.769 51.5767 50.0788 49.0124C50.3887 46.4482 48.744 45.4984 48.744 45.4984H48.7424Z" fill="#2A2A4F"/>
<path d="M28.668 29.9308C28.668 29.9308 25.9396 30.9517 24.8718 30.0732C23.8039 29.1947 22.4357 29.9308 22.4357 29.9308C22.4357 29.9308 22.0417 30.0621 21.6126 28.1643C21.1836 26.2664 20.1825 26.5355 20.1825 26.5355C20.1825 26.5355 20.4335 25.1109 19.7185 24.0361C19.0034 22.9613 15.3931 15.4584 15.0356 13.464C14.678 11.4696 13.6054 11.7909 13.6054 11.7909C14.6192 13.073 13.0445 14.0703 11.2568 14.2365C9.46912 14.4027 9.60101 12.967 9.60101 12.967C9.60101 12.967 8.95744 13.4656 9.27843 13.9642C9.60101 14.4628 12.8903 23.6151 12.9968 25.467C13.1033 27.319 16.1797 30.2252 16.5007 33.2057C16.8232 36.1863 20.3986 37.0063 20.5766 39.178C20.683 40.4728 19.6978 44.3318 18.4997 47.5957L17.8307 49.2309L16.0367 52.4267C16.0827 52.384 16.1304 52.3349 16.1781 52.2827L26.4878 52.4267L27.7861 46.608L28.6457 38.6683L28.8889 30.8805L28.668 29.9308Z" fill="#2A2A4F"/>
<path d="M28.8094 31.1654V35.8191C28.8094 35.8191 30.3492 39.2856 31.5649 39.322C31.5649 39.322 35.5375 36.2718 36.3749 33.3276L35.6996 28.7927H35.1577L28.8094 31.167V31.1654Z" fill="white"/>
<path d="M29.9679 34.8504C29.9679 34.8504 30.5161 35.7954 31.1835 35.8666C31.1835 35.8666 30.3159 36.753 30.0823 38.0905C30.0823 38.0905 31.0405 39.4993 31.5649 39.322C32.0893 39.1447 32.9839 38.0905 32.9839 38.0905C32.9839 38.0905 32.9648 36.362 32.1942 36.1151C32.1942 36.1151 33.2668 35.4519 33.4892 34.9833C33.7117 34.5148 32.2736 33.573 32.2736 33.573L31.1374 33.8262L29.9695 34.852L29.9679 34.8504Z" fill="#B1344A"/>
<path d="M6.89488 2.626L6.61044 3.82425L6.5437 4.76606L6.95685 5.91049L8.25193 7.96507L9.37538 10.6069L9.62963 12.9686L9.81714 13.76C9.81714 13.76 10.367 14.7113 12.42 14.0006C14.4731 13.2899 13.8056 12.1138 13.8056 12.1138L12.0577 7.90967C12.0577 7.90967 11.6271 7.28443 12.4422 5.13488C13.2574 2.98532 12.0593 1.21249 12.0593 1.21249C12.0593 1.21249 10.7467 0.090223 10.3336 0.15987C9.92043 0.229517 10.0905 0.755034 10.0905 0.755034L9.67571 0.927569L9.18629 1.31538L8.50776 1.62879L7.90393 1.96911L7.46058 2.36799L6.8917 2.62759L6.89488 2.626Z" fill="#F5BCA7"/>
<path d="M31.123 15.6753C31.123 15.6753 28.4836 19.2716 28.4884 19.3603C28.4932 19.4489 24.8701 22.6305 24.8701 22.6305L24.6683 24.9621L25.9586 27.9427C25.9586 27.9427 29.0684 30.0257 29.0843 30.116C29.1002 30.2062 29.4069 31.8397 29.4069 31.8397L29.9646 32.647L31.0706 33.4337L32.1083 33.573L33.683 32.7277L35.3467 30.8821L35.1545 29.9323L35.4564 28.082L37.8781 24.7373C37.8781 24.7373 38.0561 22.659 38.0831 22.6305C38.1101 22.602 35.6439 19.9618 35.5533 19.6072C35.4627 19.2526 33.6401 16.0299 33.6401 16.0299L31.9446 15.6753H31.1199H31.123Z" fill="#F5BCA7"/>
<path d="M31.5649 31.0388C28.6776 31.0388 26.329 27.4314 26.329 22.9977C26.329 18.5641 28.6776 14.9567 31.5649 14.9567C34.4522 14.9567 36.8008 18.5641 36.8008 22.9977C36.8008 27.4314 34.4522 31.0388 31.5649 31.0388ZM31.5649 15.2732C28.8524 15.2732 26.6468 18.7382 26.6468 22.9977C26.6468 27.2573 28.8524 30.7222 31.5649 30.7222C34.2774 30.7222 36.483 27.2573 36.483 22.9977C36.483 18.7382 34.2774 15.2732 31.5649 15.2732Z" fill="#231F20"/>
<path d="M57.8081 29.4163C60.1969 29.4163 62.1334 26.4094 62.1334 22.7001C62.1334 18.9909 60.1969 15.984 57.8081 15.984C55.4192 15.984 53.4827 18.9909 53.4827 22.7001C53.4827 26.4094 55.4192 29.4163 57.8081 29.4163Z" fill="#F5BCA7"/>
<path d="M57.808 29.5746C55.3355 29.5746 53.3237 26.4912 53.3237 22.7001C53.3237 18.9091 55.3355 15.8257 57.808 15.8257C60.2806 15.8257 62.2923 18.9091 62.2923 22.7001C62.2923 26.4912 60.2806 29.5746 57.808 29.5746ZM57.808 16.1423C55.5103 16.1423 53.6415 19.0848 53.6415 22.7001C53.6415 26.3155 55.5103 29.258 57.808 29.258C60.1058 29.258 61.9745 26.3155 61.9745 22.7001C61.9745 19.0848 60.1058 16.1423 57.808 16.1423Z" fill="#231F20"/>
<path d="M26.7977 26.1176C25.0085 25.323 24.8496 24.0678 24.9131 23.3903C24.9831 22.6574 25.3549 22.0338 25.6409 21.9657C26.1097 21.8549 26.561 22.1667 26.58 22.181L26.3973 22.4406C26.3973 22.4406 26.043 22.1984 25.714 22.2759C25.6012 22.3187 25.2421 22.8426 25.2198 23.5644C25.1992 24.2435 25.4772 25.1884 26.9265 25.8311L26.7977 26.1208V26.1176Z" fill="#231F20"/>
<path d="M36.3494 25.763L36.2207 25.4734C37.6699 24.8307 37.948 23.8857 37.9273 23.2067C37.9051 22.4865 37.546 21.9609 37.4316 21.9182C37.1058 21.8422 36.7546 22.0812 36.7514 22.0844L36.5687 21.8248C36.5878 21.8121 37.0375 21.5003 37.5078 21.6095C37.7939 21.676 38.1673 22.2997 38.2356 23.0341C38.2992 23.7116 38.1403 24.9684 36.351 25.763H36.3494Z" fill="#231F20"/>
<path d="M35.1513 30.9153C34.762 29.1979 35.234 28.1421 35.2546 28.0978L35.5438 28.2292L35.3992 28.1627L35.5438 28.2276C35.5391 28.2371 35.0989 29.2375 35.4628 30.8441L35.1529 30.9137L35.1513 30.9153Z" fill="#231F20"/>
<path d="M31.7841 33.7645C31.6999 33.7645 31.6173 33.7582 31.5362 33.7423C29.8026 33.4273 28.7856 31.0419 28.7427 30.9406L29.0366 30.8188C29.0462 30.8425 30.0314 33.1472 31.5934 33.4305C32.531 33.6015 33.9595 32.4713 34.8875 31.2667C35.4405 30.5497 35.5422 30.1539 35.5041 30.0748C35.3499 29.7503 35.0289 29.2485 35.0258 29.2438L35.2943 29.0728C35.3086 29.0934 35.6296 29.5952 35.7917 29.9387C35.9633 30.3011 35.458 31.0467 35.1402 31.4582C34.2535 32.609 32.8694 33.7629 31.7857 33.7629L31.7841 33.7645Z" fill="#231F20"/>
<path d="M29.1082 36.3953L28.8237 36.2528C29.9297 34.0668 31.5203 33.4812 31.5887 33.4574L31.6951 33.755C31.6793 33.7598 30.1538 34.328 29.1082 36.3937V36.3953Z" fill="#231F20"/>
<path d="M34.1169 36.8875C33.4002 34.2552 32.0686 33.7249 32.0559 33.7202L32.1656 33.4226C32.2259 33.4448 33.6593 33.9972 34.4236 36.8036L34.1169 36.886V36.8875Z" fill="#231F20"/>
<path d="M31.5887 39.4961L31.514 39.4708C29.6452 38.8456 28.6966 35.6418 28.6569 35.5057L28.962 35.4186C28.9715 35.4503 29.8773 38.5084 31.541 39.1447C32.0002 38.8155 34.7842 36.7213 36.2287 33.2659L36.5226 33.3878C34.9145 37.2342 31.6872 39.4312 31.6538 39.4534L31.5887 39.4977V39.4961Z" fill="#231F20"/>
<path d="M26.8374 51.9123L26.5308 51.83C28.9986 42.7458 28.7205 30.0637 28.7189 29.9371L29.0367 29.9292C29.0399 30.0574 29.3179 42.7838 26.839 51.9139L26.8374 51.9123Z" fill="#231F20"/>
<path d="M28.8286 34.328C28.819 34.3233 27.7861 33.8975 26.7787 33.4084C24.6414 32.3732 24.6907 32.0772 24.7177 31.9173C24.7606 31.6561 25.1261 31.6339 25.2627 31.6245C27.079 31.5121 28.7523 29.6126 28.7698 29.5936L29.0097 29.801C28.9382 29.8833 27.2331 31.8191 25.2818 31.941C25.1388 31.9505 25.0705 31.9695 25.0403 31.9838C25.2071 32.3241 27.168 33.3007 28.9509 34.0352L28.8286 34.328Z" fill="#231F20"/>
<path d="M26.599 51.8806L26.2812 51.8585C26.9597 42.0747 24.921 37.0316 24.0502 34.8773C23.8833 34.4657 23.7642 34.1681 23.7117 33.956C23.6402 33.6664 23.7483 33.4812 23.85 33.3767C24.4888 32.7214 26.9867 33.2342 27.268 33.2944L27.2013 33.6046C26.2002 33.391 24.4665 33.1978 24.0772 33.5983C24.0327 33.6426 23.9803 33.7218 24.02 33.8816C24.0661 34.0716 24.1837 34.3597 24.3457 34.7601C25.2245 36.9334 27.2823 42.024 26.599 51.8806Z" fill="#231F20"/>
<path d="M35.0163 48.6531L34.7144 48.5534C37.3554 40.5788 36.34 33.8041 35.957 31.2525C35.8934 30.8251 35.8458 30.5164 35.8394 30.3407C35.7965 29.296 35.1609 29.057 35.1545 29.0554L35.261 28.7578C35.2959 28.7705 36.1048 29.0728 36.1572 30.3281C36.1636 30.4864 36.2096 30.7887 36.2716 31.2066C36.6578 33.7772 37.6811 40.6073 35.0163 48.6531Z" fill="#231F20"/>
<path d="M30.4985 31.9331C29.6627 31.9331 29.1351 31.6434 29.124 31.6371L29.2813 31.3617C29.3767 31.4155 31.6411 32.6375 34.2916 29.4227L34.5379 29.6237C32.987 31.5057 31.5155 31.9331 30.5001 31.9331H30.4985Z" fill="#231F20"/>
<path d="M16.0351 52.5866C15.9922 52.5866 15.9493 52.5692 15.9175 52.5359C15.8587 52.471 15.8619 52.3713 15.9271 52.3127C17.7433 50.646 20.5846 41.2246 20.4177 39.1938C20.3398 38.2504 19.5771 37.5777 18.6952 36.8005C17.6766 35.903 16.5214 34.8852 16.3434 33.2247C16.1718 31.6276 15.177 30.0305 14.2999 28.6217C13.5435 27.4061 12.8904 26.3566 12.8395 25.4781C12.7363 23.6958 9.50889 14.6132 9.14659 14.0513C8.83037 13.5606 9.24193 13.0461 9.50413 12.8435C9.55339 12.8055 9.62331 12.7992 9.67733 12.8293C9.73295 12.8594 9.76473 12.9195 9.75996 12.9828C9.75996 12.9876 9.72342 13.4656 10.0492 13.7853C10.2987 14.0323 10.7007 14.1304 11.2441 14.0813C12.4566 13.969 13.4434 13.4925 13.7008 12.8958C13.8359 12.5839 13.7612 12.2452 13.4815 11.8922C13.4497 11.8511 13.4386 11.7972 13.4545 11.7466C13.4704 11.6959 13.5101 11.6579 13.561 11.6421C13.5753 11.6374 13.928 11.5361 14.3158 11.7735C14.7464 12.0378 15.042 12.5982 15.1929 13.4387C15.5393 15.3682 19.0972 22.8141 19.852 23.9506C20.4415 24.837 20.4098 25.9276 20.3669 26.3677C20.4956 26.3756 20.6656 26.4104 20.8483 26.5196C21.2758 26.7777 21.5857 27.319 21.77 28.1294C22.0719 29.4622 22.342 29.7202 22.412 29.7661C22.6821 29.6348 23.9422 29.1029 24.9735 29.9513C25.9587 30.7618 28.587 29.7931 28.6124 29.7836C28.6951 29.7535 28.7856 29.7946 28.8174 29.8754C28.8476 29.9577 28.8063 30.0479 28.7253 30.0796C28.6108 30.1223 25.8983 31.1227 24.7717 30.1951C23.8008 29.3973 22.5248 30.0637 22.5121 30.0701C22.5041 30.0748 22.4962 30.078 22.4866 30.0811C22.4565 30.0906 22.3722 30.108 22.2626 30.0463C21.9686 29.8817 21.6985 29.2596 21.4585 28.1991C21.2567 27.3063 20.931 26.9423 20.6926 26.7951C20.44 26.6384 20.2318 26.6858 20.2223 26.6874C20.1698 26.7001 20.1142 26.6858 20.0761 26.6494C20.0363 26.613 20.0173 26.5592 20.0268 26.507C20.03 26.4927 20.2572 25.1299 19.5866 24.1216C18.9367 23.1449 15.2469 15.5471 14.8783 13.4909C14.7464 12.758 14.4969 12.2579 14.1553 12.0442C14.0631 11.9856 13.9741 11.9555 13.8994 11.9413C14.1553 12.3924 14.0981 12.7675 13.9916 13.0161C13.6849 13.7268 12.6187 14.2665 11.2727 14.3916C10.6292 14.4517 10.1413 14.3204 9.82194 14.0022C9.609 13.7901 9.51366 13.5352 9.47235 13.3295C9.36747 13.4798 9.28961 13.6809 9.41514 13.874C9.78221 14.4438 13.0541 23.6483 13.1589 25.4544C13.205 26.2521 13.8692 27.319 14.5732 28.4492C15.4678 29.8864 16.4832 31.5168 16.6628 33.1852C16.828 34.7237 17.8864 35.6561 18.9097 36.5567C19.8043 37.345 20.6513 38.0905 20.7387 39.1621C20.9183 41.3386 18.0373 50.8043 16.1479 52.5407C16.1177 52.5692 16.078 52.5818 16.0399 52.5818L16.0351 52.5866Z" fill="#231F20"/>
<path d="M36.6673 36.4807L36.6148 36.1689C39.7055 35.6545 40.4635 35.0197 40.5541 34.5781C40.6955 33.8975 39.4004 33.0649 38.4534 32.457L38.3898 32.4159C36.2223 31.023 35.5772 29.3989 35.5502 29.3308L35.8473 29.2169C35.8537 29.2327 36.4861 30.8172 38.5614 32.15L38.625 32.1911C39.7611 32.9208 41.0499 33.7487 40.8639 34.643C40.6971 35.4487 39.3623 36.0344 36.6657 36.4823L36.6673 36.4807Z" fill="#231F20"/>
<path d="M37.6731 47.9187L37.3744 47.8126C38.8125 43.7905 41.0181 37.2025 40.8131 36.6501C40.6017 36.2433 38.7441 36.218 37.4936 36.3304L37.465 36.0154C38.0037 35.9663 40.7098 35.7637 41.0959 36.5076C41.4662 37.2215 38.3088 46.1379 37.6731 47.9187Z" fill="#231F20"/>
<path d="M42.9472 47.0354C42.3195 46.7109 42.3656 45.8862 42.4133 45.0141C42.4546 44.2669 42.4975 43.4945 42.1272 43.0165C41.328 41.986 42.0812 40.2812 42.2909 39.8554C41.3391 38.6113 42.2846 34.8076 42.3259 34.643L42.6342 34.7206C42.3545 35.827 41.8047 38.882 42.596 39.7256L42.6739 39.808L42.6199 39.9077C42.6103 39.9267 41.6045 41.8246 42.3783 42.8234C42.8217 43.3948 42.7756 44.2274 42.7311 45.0331C42.6882 45.8008 42.6485 46.5257 43.0934 46.7568L42.9472 47.0386V47.0354Z" fill="#231F20"/>
<path d="M20.2239 38.0763L19.9664 37.8911C19.9887 37.8594 22.1895 34.7855 22.3738 32.5299C22.3929 32.3399 22.4644 31.8951 22.7266 31.8302C22.9507 31.7748 23.1127 32.0186 23.1652 32.0993C23.626 32.8005 22.6932 36.3953 21.9559 37.7455L21.6762 37.5935C22.4565 36.1642 23.2335 32.7815 22.8982 32.2718C22.8506 32.2006 22.8172 32.1658 22.7981 32.15C22.7552 32.2133 22.7059 32.3937 22.6885 32.5568C22.4962 34.8979 20.316 37.9465 20.2223 38.0747L20.2239 38.0763Z" fill="#231F20"/>
<path d="M31.8604 26.1318C31.8112 26.1318 31.7635 26.1097 31.7317 26.0669C31.6793 25.9957 31.6952 25.8976 31.7651 25.8453C31.9542 25.7076 32.0289 25.5256 31.9955 25.2882C31.9749 25.1425 31.9113 25.0048 31.8112 24.8893C31.023 23.9728 31.8334 21.7821 31.8684 21.6887C31.8986 21.6064 31.9907 21.5652 32.0734 21.5953C32.156 21.6254 32.1973 21.7172 32.1671 21.7995C31.9478 22.3836 31.4997 24.0393 32.0543 24.6819C32.1941 24.8434 32.2831 25.0365 32.3117 25.2423C32.3626 25.5952 32.2402 25.8912 31.9558 26.0986C31.9272 26.1192 31.8938 26.1287 31.862 26.1287L31.8604 26.1318Z" fill="#231F20"/>
<path d="M23.9565 29.706C23.9534 29.6601 23.8993 28.5267 24.0884 24.0298C24.2712 19.6784 25.3644 18.2301 27.1744 15.8304L27.4811 15.4236C29.5246 12.7011 32.1481 14.3235 32.1751 14.3409L32.0051 14.6084C31.9081 14.5467 29.6008 13.1316 27.7369 15.6136L27.4302 16.0204C25.6568 18.371 24.5858 19.7892 24.4078 24.0424C24.2203 28.5141 24.2759 29.6775 24.2759 29.6886L23.9581 29.7044L23.9565 29.706Z" fill="#231F20"/>
<path d="M41.1388 32.4855L40.8226 32.4634C40.8623 31.8872 40.446 30.4215 39.9629 28.723C39.3511 26.5735 38.59 23.8984 38.3914 21.7599C38.1165 18.8063 36.8452 17.3484 35.8235 16.1771C35.5327 15.8431 35.2578 15.5281 35.0289 15.2068C34.1836 14.018 32.4563 14.4169 32.0749 14.523C31.7889 15.4125 29.4164 22.4833 25.992 23.1529C24.4602 23.4678 24.3458 25.6032 24.3442 25.6253L24.0264 25.6111C24.0311 25.5129 24.1519 23.2083 25.9285 22.8426C29.3227 22.1794 31.7714 14.4264 31.7968 14.3488L31.8206 14.2713L31.8985 14.246C31.9923 14.2143 34.2026 13.4973 35.288 15.0232C35.5072 15.3318 35.7774 15.6421 36.0634 15.9697C37.1138 17.1759 38.4231 18.6765 38.7076 21.7314C38.9046 23.8414 39.661 26.5007 40.268 28.6375C40.7797 30.4341 41.1833 31.854 41.1388 32.4855Z" fill="#231F20"/>
<path d="M31.8763 36.2797C31.8302 36.2797 31.7841 36.2765 31.738 36.2718C30.702 36.1562 29.8725 34.9912 29.8375 34.9406L30.0981 34.7586C30.1061 34.7696 30.8799 35.8571 31.773 35.9552C32.639 36.0534 33.3557 34.8931 33.362 34.882L33.6338 35.0466C33.602 35.0989 32.871 36.2781 31.8763 36.2781V36.2797Z" fill="#231F20"/>
<path d="M30.2284 38.1254L29.9186 38.0573C29.9678 37.8341 30.4318 35.8761 31.4075 35.8761H31.4155L31.4123 36.1927H31.4075C30.7973 36.1927 30.3413 37.6236 30.2284 38.1254Z" fill="#231F20"/>
<path d="M32.7534 38.2172C32.7121 37.4226 32.4817 36.2876 32.0956 36.2544L32.1242 35.9394C32.9187 36.0106 33.0522 37.8373 33.0697 38.2013L32.7519 38.2172H32.7534Z" fill="#231F20"/>
<path d="M9.60104 13.1253C9.60104 13.1253 9.58674 13.1253 9.57879 13.1237C9.4914 13.111 9.43101 13.0319 9.44373 12.9448C9.68049 11.2891 8.38224 8.43677 8.26624 8.24841C8.25989 8.24208 7.25084 6.89504 6.68196 5.71105C6.21955 4.74865 6.40229 3.98729 6.56278 3.31614C6.60251 3.14994 6.64065 2.99323 6.66766 2.83653C6.7201 2.53895 6.84722 2.34109 7.04585 2.24611C7.36207 2.09574 7.71961 2.28885 7.7355 2.29835C7.75139 2.30785 7.76728 2.31893 7.7784 2.33317C7.81018 2.37116 8.57134 3.25283 8.67304 3.8844C8.72548 4.20889 8.76997 4.78189 8.4903 4.97342C8.39972 5.03516 8.24241 5.08264 8.00882 4.9481C7.56388 4.69167 7.49079 4.16615 7.47807 3.99045C7.38591 3.87648 7.28262 3.76885 7.21906 3.72136C7.18092 3.73719 7.13643 3.73877 7.09511 3.72136C7.01407 3.68654 6.97752 3.59315 7.01089 3.514C7.04109 3.44277 7.10147 3.39687 7.17615 3.38737C7.22859 3.38104 7.39068 3.36046 7.75934 3.83533C7.78158 3.86224 7.79271 3.89706 7.79271 3.93189C7.79271 3.93663 7.80065 4.46215 8.16772 4.67268C8.23287 4.71066 8.28849 4.72491 8.30915 4.71066C8.36953 4.66951 8.43786 4.421 8.35841 3.93189C8.28849 3.49501 7.77523 2.81753 7.55753 2.56111C7.47807 2.5247 7.30646 2.4693 7.18092 2.52945C7.08081 2.57694 7.01407 2.69882 6.97911 2.88876C6.94892 3.05497 6.90919 3.22434 6.86947 3.38737C6.71374 4.03794 6.55166 4.70908 6.9664 5.57175C7.52257 6.72726 8.51413 8.04897 8.52367 8.06163C8.60789 8.17243 10.0158 11.1878 9.75836 12.9876C9.74723 13.0667 9.6789 13.1237 9.60104 13.1237V13.1253Z" fill="#231F20"/>
<path d="M13.4592 11.8558C13.3972 11.7149 11.9353 8.38454 11.7685 7.4269C11.6779 6.90771 11.8845 6.29988 12.1054 5.65565C12.3135 5.04782 12.528 4.41941 12.5058 3.829C12.4422 2.14639 12.2468 1.67311 12.1371 1.54015C11.8225 1.15867 11.4173 0.723379 10.6005 0.373562C10.4559 0.311829 10.3479 0.299166 10.3034 0.338738C10.2112 0.417883 10.235 0.724962 10.2875 0.927572C10.4305 1.16817 10.8421 1.75384 11.1932 1.84248C11.2727 1.86306 11.341 1.85356 11.4046 1.81557L11.5698 2.08624C11.4316 2.17014 11.279 2.1923 11.1154 2.14956C10.5624 2.00868 10.0587 1.16342 10.003 1.06845L9.98715 1.03204C9.95537 0.919657 9.81394 0.346653 10.0952 0.101306C10.2414 -0.0269078 10.4543 -0.0316565 10.7261 0.0838941C11.5667 0.443209 12.0195 0.89908 12.3834 1.33912C12.6281 1.63512 12.7727 2.44081 12.8236 3.80209C12.849 4.46532 12.625 5.12222 12.4073 5.75695C12.2007 6.36161 12.0052 6.93145 12.0831 7.37149C12.2452 8.29115 13.7373 11.6928 13.7532 11.7276L13.4624 11.8542L13.4592 11.8558Z" fill="#231F20"/>
<path d="M9.1338 4.92277C8.81599 4.92277 8.50136 4.77556 8.45686 4.7534L8.5967 4.46848C8.72541 4.5318 9.10837 4.67109 9.32448 4.56979C9.37057 4.54763 9.43413 4.50489 9.46909 4.38459C9.44684 4.23422 9.34355 3.55991 9.18306 3.21326C9.05911 2.94575 8.6841 2.14164 8.3059 2.01818C8.23122 1.99444 8.16289 2.00077 8.09297 2.03876C7.79741 2.20021 7.77675 2.30468 7.77516 2.31734L7.54952 2.55003C7.49867 2.50096 7.44305 2.40124 7.45894 2.27777C7.48278 2.09574 7.64009 1.92795 7.93883 1.76333C8.08503 1.68261 8.24552 1.66836 8.40284 1.71901C8.85571 1.86622 9.21007 2.52312 9.46909 3.07871C9.6709 3.514 9.78372 4.33869 9.78848 4.37351L9.79166 4.402L9.78531 4.43049C9.73764 4.63152 9.62481 4.77715 9.45955 4.85629C9.35785 4.90378 9.24662 4.92277 9.1338 4.92277Z" fill="#231F20"/>
<path d="M10.0031 4.40517C9.76315 4.40517 9.54863 4.29911 9.51685 4.28328L9.66304 4.00311C9.74408 4.04427 9.98721 4.13449 10.1477 4.06168C10.2256 4.02527 10.2796 3.95088 10.313 3.83374C10.2907 3.68337 10.1874 3.00748 10.0253 2.66241C9.9014 2.3949 9.52638 1.5908 9.14819 1.46733C9.0735 1.44359 9.00517 1.44992 8.93526 1.48791C8.63969 1.64936 8.61903 1.75383 8.61745 1.7665L8.3918 1.99918C8.34095 1.95011 8.28534 1.85039 8.30123 1.72693C8.32506 1.54489 8.48238 1.37711 8.78112 1.21249C8.92731 1.13176 9.0878 1.11752 9.24512 1.16817C9.698 1.31538 10.0524 1.97227 10.3114 2.52787C10.5132 2.96316 10.626 3.78784 10.6308 3.82266L10.6339 3.85116L10.6276 3.87965C10.5593 4.16773 10.4004 4.29436 10.278 4.34977C10.1874 4.39092 10.0921 4.40675 9.99992 4.40675L10.0031 4.40517Z" fill="#231F20"/>
<path d="M10.8198 3.98254C10.5799 3.98254 10.3653 3.87648 10.3336 3.86065L10.4798 3.58048C10.5608 3.62164 10.8039 3.71186 10.9644 3.63905C11.0423 3.60264 11.0963 3.52825 11.1297 3.41111C11.1074 3.26074 11.0041 2.58485 10.8421 2.23978C10.6514 1.82981 9.94425 1.07478 9.7488 1.06686C9.55017 1.18874 9.53428 1.27264 9.53428 1.2948C9.53428 1.34703 9.59625 1.39927 9.60896 1.40718L9.43576 1.67311C9.41351 1.65886 9.21329 1.52273 9.21647 1.29163C9.21965 1.1096 9.34518 0.941815 9.59307 0.791441C9.64392 0.759783 9.73291 0.731291 9.86003 0.769281C10.2891 0.899077 10.9819 1.78549 11.1313 2.10682C11.3315 2.53895 11.4443 3.36363 11.4491 3.39845L11.4523 3.42694L11.4459 3.45544C11.3776 3.74352 11.2187 3.87015 11.0963 3.92555C11.0057 3.96671 10.9104 3.98254 10.8182 3.98254H10.8198Z" fill="#231F20"/>
<path d="M37.7876 23.6989C37.6112 23.6989 37.4205 23.6483 37.2187 23.5486C36.0476 22.9692 34.5094 20.6202 34.1153 18.8062C33.6735 16.777 31.452 15.8304 31.4298 15.8225C31.3487 15.7893 31.3106 15.6959 31.344 15.6152C31.3774 15.5344 31.4711 15.4964 31.5521 15.5297C31.6491 15.5708 33.95 16.5475 34.4267 18.7398C34.797 20.4461 36.278 22.7302 37.3601 23.2652C37.6175 23.3919 37.8352 23.4156 38.01 23.3349C38.0895 23.2985 38.1848 23.3317 38.2214 23.4124C38.2579 23.4916 38.2246 23.5866 38.1435 23.623C38.0323 23.6736 37.9147 23.7005 37.7876 23.7005V23.6989Z" fill="#231F20"/>
<path d="M31.9493 14.3963C31.9493 14.3963 30.06 13.2994 28.0991 14.9583L27.1758 16.0932L25.7266 18.1747L24.708 20.6028C24.708 20.6028 24.2901 22.9312 24.2393 24.2751C24.1884 25.619 24.2393 24.5774 24.2393 24.5774C24.2393 24.5774 24.716 23.3776 25.9634 22.9977C27.2108 22.6178 28.5345 21.6032 29.1065 20.4271C29.6786 19.2526 31.3407 16.7596 31.4933 15.7972C31.4933 15.7972 31.8238 15.7006 32.4721 16.242C33.1205 16.7833 33.8292 16.8007 34.9447 20.5727C34.9447 20.5727 36.2747 23.5153 38.0894 23.5375L38.7791 23.3412C38.7791 23.3412 38.3611 18.7619 37.1122 17.5368C35.8632 16.3116 35.0718 14.3678 33.6623 14.2444C32.2528 14.1209 31.9509 14.3932 31.9509 14.3932L31.9493 14.3963Z" fill="#231F20"/>
<path d="M24.9925 22.9977C24.9925 22.9977 24.7812 25.0349 26.8628 25.972C26.8628 25.972 27.8131 28.913 28.8904 29.6965C28.8904 29.6965 27.3967 30.7333 25.5423 30.3708C25.5423 30.3708 24.6016 29.6474 23.7594 29.6965L24.1074 29.6332V29.1583L24.3664 23.7559L24.9925 22.9961V22.9977Z" fill="#231F20"/>
<path d="M38.0863 22.8679C38.0863 22.8679 38.5329 24.4872 36.4734 25.5303C36.4734 25.5303 35.582 28.1405 35.1593 28.5663V28.9066L35.7473 29.4052L36.3765 30.5164L37.6859 31.0071L40.8767 32.4396L40.9848 32.1009L40.3904 29.649L38.544 22.3519L38.0879 22.8679H38.0863Z" fill="#231F20"/>
<path d="M28.8889 29.6981L28.9668 31.0514L29.3052 31.5501C29.3052 31.5501 30.122 31.9933 31.0516 31.7843C31.9812 31.5754 33.7816 30.2173 33.7816 30.2173C33.7816 30.2173 31.2487 31.8397 28.8889 29.6981Z" fill="#231F20"/>
<path d="M29.345 24.1263C29.5565 24.1263 29.728 23.7911 29.728 23.3776C29.728 22.9641 29.5565 22.6289 29.345 22.6289C29.1335 22.6289 28.962 22.9641 28.962 23.3776C28.962 23.7911 29.1335 24.1263 29.345 24.1263Z" fill="#231F20"/>
<path d="M33.9262 24.1263C34.1377 24.1263 34.3091 23.7911 34.3091 23.3776C34.3091 22.9641 34.1377 22.6289 33.9262 22.6289C33.7147 22.6289 33.5432 22.9641 33.5432 23.3776C33.5432 23.7911 33.7147 24.1263 33.9262 24.1263Z" fill="#231F20"/>
<path d="M55.8343 23.2637C56.0292 23.2637 56.1871 22.9547 56.1871 22.5735C56.1871 22.1924 56.0292 21.8834 55.8343 21.8834C55.6395 21.8834 55.4816 22.1924 55.4816 22.5735C55.4816 22.9547 55.6395 23.2637 55.8343 23.2637Z" fill="#231F20"/>
<path d="M59.78 23.2637C59.9748 23.2637 60.1328 22.9547 60.1328 22.5735C60.1328 22.1924 59.9748 21.8834 59.78 21.8834C59.5852 21.8834 59.4272 22.1924 59.4272 22.5735C59.4272 22.9547 59.5852 23.2637 59.78 23.2637Z" fill="#231F20"/>
<path d="M29.9679 22.0322C29.9409 22.0322 29.9154 22.0195 29.9011 21.9958C29.3656 21.1521 27.0552 21.7156 27.0329 21.7219C26.99 21.733 26.9471 21.7061 26.936 21.6649C26.9249 21.6222 26.9519 21.5795 26.9932 21.5684C27.0933 21.5431 29.4387 20.9716 30.0346 21.9119C30.0585 21.9483 30.0473 21.9973 30.0092 22.0211C29.9965 22.029 29.9806 22.0337 29.9663 22.0337L29.9679 22.0322Z" fill="#231F20"/>
<path d="M33.3049 21.9277C33.2906 21.9277 33.2763 21.9245 33.262 21.915C33.2254 21.8913 33.2143 21.8422 33.2365 21.8058C33.8324 20.8656 36.1795 21.4386 36.278 21.4623C36.3209 21.4734 36.3463 21.5161 36.3352 21.5589C36.3241 21.6016 36.2811 21.6269 36.2382 21.6159C36.2144 21.6095 33.9039 21.046 33.37 21.8897C33.3541 21.9134 33.3287 21.9261 33.3033 21.9261L33.3049 21.9277Z" fill="#231F20"/>
<path d="M26.7087 22.8284L26.661 22.678C30.9038 21.3246 31.4075 15.8478 31.4123 15.7924L31.5712 15.8051C31.5664 15.8621 31.0547 21.4433 26.7103 22.8284H26.7087Z" fill="#231F20"/>
<path d="M23.68 29.5303C23.324 25.706 24.4046 21.619 24.4141 21.5779L24.5682 21.619C24.5571 21.6602 23.4845 25.7203 23.8389 29.516L23.68 29.5303Z" fill="#231F20"/>
<path d="M41.6108 32.6581L41.4534 32.6359C41.4566 32.6153 41.7204 30.6288 40.9195 29.5699C40.09 28.4745 38.9046 24.769 38.8538 24.6123L39.0047 24.5648C39.0174 24.6028 40.2315 28.4017 41.0451 29.4749C41.8857 30.5845 41.6219 32.5742 41.6092 32.6581H41.6108Z" fill="#231F20"/>
<path d="M26.6595 25.2502C25.2357 24.7753 25.4614 23.1734 25.4629 23.1576L25.6203 23.1813C25.6107 23.2415 25.4137 24.6677 26.7103 25.0998L26.6595 25.2502Z" fill="#231F20"/>
<path d="M26.4465 24.2403C25.8268 23.8636 26.019 22.9724 26.0286 22.936L26.1843 22.9708C26.1827 22.9787 26.0095 23.7892 26.5307 24.1057L26.4481 24.2403H26.4465Z" fill="#231F20"/>
<path d="M36.4003 25.0507L36.3495 24.9004C37.6462 24.4682 37.4475 23.042 37.4396 22.9819L37.5969 22.9582C37.6001 22.974 37.8241 24.5759 36.4003 25.0507Z" fill="#231F20"/>
<path d="M36.6117 24.0408L36.5291 23.9063C37.0503 23.5881 36.8771 22.7793 36.8755 22.7714L37.0312 22.7365C37.0391 22.7745 37.2314 23.6641 36.6133 24.0408H36.6117Z" fill="#231F20"/>
<path d="M53.6812 25.304C52.3766 24.7247 52.2606 23.805 52.3082 23.308C52.3559 22.8109 52.6197 22.3076 52.8628 22.2506C53.2172 22.1667 53.5556 22.401 53.5699 22.4105L53.3872 22.6685L53.4794 22.5387L53.3888 22.6685C53.3888 22.6685 53.152 22.507 52.9375 22.5577C52.8565 22.602 52.6038 23.0104 52.6197 23.5296C52.634 23.9712 52.8517 24.5869 53.8131 25.0127L53.6843 25.3024L53.6812 25.304Z" fill="#231F20"/>
<path d="M61.9999 24.9637L61.8712 24.674C62.8326 24.2482 63.0503 23.6325 63.0646 23.1908C63.0805 22.6717 62.8278 22.2633 62.7372 22.2158C62.5323 22.1683 62.2987 22.3282 62.2955 22.3297L62.1128 22.0702C62.1271 22.0607 62.4655 21.8264 62.8199 21.9103C63.063 21.9673 63.3284 22.4706 63.3745 22.9677C63.4221 23.4647 63.3061 24.3843 62.0015 24.9637H61.9999Z" fill="#231F20"/>
<path d="M28.9668 26.8394C29.7057 26.8394 30.3047 26.5531 30.3047 26.1999C30.3047 25.8467 29.7057 25.5604 28.9668 25.5604C28.2278 25.5604 27.6288 25.8467 27.6288 26.1999C27.6288 26.5531 28.2278 26.8394 28.9668 26.8394Z" fill="url(#paint0_radial_806_148)"/>
<path d="M34.414 26.8394C35.153 26.8394 35.752 26.5531 35.752 26.1999C35.752 25.8467 35.153 25.5604 34.414 25.5604C33.6751 25.5604 33.076 25.8467 33.076 26.1999C33.076 26.5531 33.6751 26.8394 34.414 26.8394Z" fill="url(#paint1_radial_806_148)"/>
<path d="M55.6342 25.6475C56.2002 25.6475 56.6591 25.4285 56.6591 25.1584C56.6591 24.8882 56.2002 24.6693 55.6342 24.6693C55.0681 24.6693 54.6093 24.8882 54.6093 25.1584C54.6093 25.4285 55.0681 25.6475 55.6342 25.6475Z" fill="url(#paint2_radial_806_148)"/>
<path d="M60.2948 25.6475C60.8609 25.6475 61.3198 25.4285 61.3198 25.1584C61.3198 24.8882 60.8609 24.6693 60.2948 24.6693C59.7288 24.6693 59.2699 24.8882 59.2699 25.1584C59.2699 25.4285 59.7288 25.6475 60.2948 25.6475Z" fill="url(#paint3_radial_806_148)"/>
<path d="M31.8207 28.2402C30.6019 28.2402 29.8344 27.7527 29.8233 27.7448C29.7867 27.7211 29.7772 27.672 29.801 27.6356C29.8249 27.5992 29.8741 27.5897 29.9107 27.6134C29.9266 27.6245 31.5776 28.6692 33.8881 27.6071C33.9278 27.5881 33.9755 27.6071 33.9929 27.6451C34.012 27.6847 33.9929 27.7321 33.9548 27.7496C33.1555 28.1168 32.4309 28.2402 31.8191 28.2402H31.8207Z" fill="#231F20"/>
<path d="M57.8302 27.1655C56.7067 27.1655 56.068 26.689 56.0282 26.6589C55.9933 26.632 55.9869 26.583 56.0139 26.5481C56.0409 26.5133 56.0902 26.507 56.1252 26.5339C56.1395 26.545 57.5442 27.5849 59.8499 26.5244C59.8896 26.5054 59.9373 26.5244 59.9548 26.5624C59.9738 26.602 59.9548 26.6494 59.915 26.6669C59.103 27.0404 58.4023 27.1639 57.8286 27.1639L57.8302 27.1655Z" fill="#231F20"/>
<path d="M53.508 23.4346C53.508 23.4346 52.6372 22.7223 52.0174 21.6064C51.3977 20.4904 51.7076 18.6622 52.4576 17.6887C53.2076 16.7153 53.5906 15.8368 54.6394 15.5281C55.6881 15.2194 57.4043 14.3884 58.3577 14.9583C58.3577 14.9583 59.3112 14.6021 59.8832 15.077C60.4553 15.5518 62.7673 16.5253 62.8627 18.0449C62.958 19.5644 63.0502 21.7773 62.1349 22.7001L62.0697 21.532C62.0697 21.532 61.3865 20.6313 60.0993 20.5838C58.8122 20.5363 57.8826 21.0112 56.6193 19.7766C56.6193 19.7766 57.4536 20.644 57.8095 20.8213C58.3005 21.0666 55.213 20.4889 54.5218 19.9902C54.5218 19.9902 54.3311 20.4176 54.6409 20.5601C54.6409 20.5601 54.5218 20.7025 54.0927 20.4414C53.6637 20.1802 53.4269 22.6685 53.5095 23.433L53.508 23.4346Z" fill="#231F20"/>
<path d="M58.0368 32.6027C58.0368 32.6027 58.0257 32.6027 58.0209 32.6027C56.7385 32.5773 55.1113 29.7139 54.9286 29.3862L54.9064 29.3451L54.9095 29.2976C54.9556 28.6755 54.7427 27.71 54.7411 27.6989L55.051 27.6308C55.0605 27.672 55.2639 28.6059 55.2289 29.2723C55.7184 30.1429 57.1088 32.2671 58.0257 32.2845C58.9409 32.3082 60.5506 30.1207 61.1434 29.2074C61.0051 28.5046 61.0893 26.8267 61.0925 26.7539L61.4103 26.7697C61.4103 26.7871 61.3197 28.5885 61.4675 29.1995L61.4834 29.2644L61.4469 29.3213C61.2324 29.6585 59.316 32.5995 58.0368 32.5995V32.6027Z" fill="#231F20"/>
<path d="M55.7486 35.1195L55.4355 35.0641C55.917 32.3304 57.9415 32.2813 57.9621 32.2813L57.9653 32.5979C57.8922 32.5979 56.184 32.6549 55.7486 35.1195Z" fill="#231F20"/>
<path d="M60.654 35.1685C60.4522 33.3213 58.1751 32.5853 58.1528 32.5789L58.2482 32.2766C58.3499 32.3083 60.7462 33.0854 60.9702 35.1353L60.654 35.1685Z" fill="#231F20"/>
<path d="M55.7915 46.3833L55.4784 46.3342C56.3 41.1677 54.9254 29.4464 54.9111 29.3293L55.2274 29.2929C55.2417 29.4116 56.6209 41.1756 55.7931 46.3848L55.7915 46.3833Z" fill="#231F20"/>
<path d="M61.4724 43.9282L61.1545 43.9219C61.296 37.6584 61.1545 29.3261 61.1545 29.2422L61.4724 29.2375C61.4724 29.3214 61.6138 37.6584 61.4724 43.9282Z" fill="#231F20"/>
<path d="M55.5737 35.6893C55.2019 35.5358 51.9284 34.1586 51.5344 33.1187C51.474 32.9588 51.4772 32.8084 51.5439 32.6707C52.0301 31.6846 54.8364 28.8892 54.9556 28.7705L55.1796 28.9953C55.151 29.0238 52.2907 31.8714 51.8283 32.81C51.8109 32.8449 51.7918 32.9034 51.8315 33.0063C52.1239 33.7788 54.7204 34.9928 55.6961 35.3965L55.5737 35.6893Z" fill="#231F20"/>
<path d="M53.7766 45.8055C53.3777 44.8289 49.9104 36.2196 50.8861 34.8345C51.9094 33.383 55.5547 35.3205 55.7104 35.4044L55.5595 35.683C54.5743 35.1543 51.8618 34.0019 51.1467 35.0166C50.4841 35.9584 52.5323 41.9132 54.0721 45.6868L53.7782 45.8055H53.7766Z" fill="#231F20"/>
<path d="M61.4755 34.8361L61.2785 34.5876C62.4337 33.6759 64.1991 32.1294 64.3294 31.6102C64.4343 31.1955 62.7992 29.5556 61.1609 28.2086L61.3627 27.9648C61.9459 28.4429 64.8427 30.871 64.6377 31.6862C64.4391 32.476 61.779 34.5955 61.4755 34.8345V34.8361Z" fill="#231F20"/>
<path d="M62.2796 43.9899L61.9888 43.8601C63.287 40.965 65.607 35.1195 65.0969 33.7218C65 33.4558 64.8411 33.2976 64.6139 33.2422C63.7383 33.0253 62.0571 34.3154 61.4819 34.8314L61.2689 34.5955C61.3579 34.5148 63.4713 32.6327 64.6901 32.9351C65.0223 33.0174 65.2606 33.2469 65.3941 33.6141C66.0758 35.4804 62.4337 43.6433 62.278 43.9899H62.2796Z" fill="#231F20"/>
<path d="M58.3641 39.5262C58.2926 39.5262 58.2227 39.5151 58.1528 39.4945C55.9996 38.8313 55.4975 35.4946 55.4784 35.3537L55.793 35.3094C55.7978 35.3426 56.2872 38.5891 58.2481 39.1938C58.3657 39.2302 58.488 39.2112 58.6215 39.1352C59.9102 38.4071 61.1481 33.3973 61.1608 33.3466L61.4691 33.421C61.4167 33.6331 60.1852 38.6145 58.7788 39.4091C58.6406 39.4866 58.5023 39.5262 58.3657 39.5262H58.3641Z" fill="#231F20"/>
<path d="M45.8742 37.4732L45.5754 37.364L46.2428 35.5532C46.0776 35.2223 45.3975 33.7281 45.9648 32.6438C46.575 31.4772 53.6907 29.486 54.4995 29.2628L54.5838 29.5683C51.4581 30.4294 46.6592 31.998 46.246 32.7895C45.6962 33.8405 46.5463 35.4519 46.5559 35.4677L46.5893 35.531L45.8742 37.4732Z" fill="#231F20"/>
<path d="M49.9835 45.0457C49.2748 43.0228 47.2615 35.9426 47.2408 35.8713L47.5459 35.7859C47.5666 35.8571 49.5767 42.9278 50.2839 44.9413L49.9835 45.0457Z" fill="#231F20"/>
<path d="M65.723 49.1169C65.6436 49.1169 65.5752 49.0583 65.5657 48.9776C65.5562 48.8953 65.6102 48.8193 65.6912 48.8035C66.2108 48.6959 67.6299 48.2843 67.9556 47.6891C68.0319 47.5483 68.0414 47.409 67.9826 47.2586C67.5711 46.2028 65.7055 44.9523 65.1891 44.9523H65.1859C65.1859 44.9523 65.1811 44.9523 65.1796 44.9523C65.1541 44.9571 65.1271 44.9618 65.1001 44.965H65.0969C65.0079 44.9745 64.9205 44.9618 64.8967 44.8463C64.876 44.745 64.9333 44.6785 65.0683 44.6484C65.089 44.6437 65.1112 44.6405 65.1351 44.6405C67.0975 44.2796 68.0049 44.2638 68.4419 44.3319C68.0748 43.5182 67.2628 41.5017 67.5965 40.2528C67.6187 40.1689 67.7061 40.1182 67.7904 40.1404C67.8746 40.1625 67.9254 40.2496 67.9032 40.3335C67.5186 41.7771 68.8789 44.5155 68.8932 44.544C68.9265 44.612 68.9075 44.6943 68.8471 44.7402C68.7867 44.7861 68.7009 44.783 68.6437 44.7307C68.5849 44.6785 68.186 44.4537 65.8279 44.8415C66.7035 45.261 67.935 46.2598 68.2798 47.1446C68.372 47.3821 68.3577 47.6163 68.2353 47.8395C68.0192 48.2352 67.4789 48.5376 66.9577 48.7465C68.9392 48.661 72.6862 48.4964 73.5809 48.4442C74.6932 48.3809 75.011 47.9361 75.3638 45.9385C75.6927 44.0786 74.0337 43.4344 73.9622 43.4074C73.9066 43.3869 73.8669 43.3346 73.8605 43.2761C73.8605 43.2634 73.7127 41.9148 73.1979 40.1704C72.977 39.4186 72.6544 39.2698 72.37 39.1384C71.9187 38.931 71.6549 38.7253 71.7868 37.6204C71.9203 36.5045 71.5024 35.9077 71.1655 35.4297C70.9192 35.0783 70.7063 34.776 70.8413 34.3993C71.0797 33.7297 70.7539 32.3415 70.4298 31.8571C70.1279 31.501 65.0286 29.7503 61.8855 28.7309C61.8012 28.704 61.7567 28.6138 61.7838 28.5315C61.8108 28.4492 61.9014 28.4033 61.984 28.4302C63.3776 28.8829 70.3471 31.1638 70.6936 31.683C71.0686 32.2418 71.4166 33.7297 71.1401 34.5069C71.0638 34.7206 71.1862 34.9089 71.4261 35.2508C71.7741 35.7463 72.2508 36.4238 72.1014 37.66C71.987 38.6161 72.1809 38.7063 72.5019 38.8535C72.8133 38.9975 73.2392 39.1922 73.5014 40.0834C73.9463 41.595 74.1211 42.817 74.164 43.1526C74.5502 43.3315 76.0042 44.1403 75.6752 45.9955C75.3193 48.001 74.9697 48.6832 73.5967 48.7608C72.37 48.832 65.7945 49.1137 65.7294 49.1169C65.7278 49.1169 65.7246 49.1169 65.723 49.1169Z" fill="#231F20"/>
<path d="M67.9063 40.3081L67.5901 40.2765C67.8507 37.6758 69.4175 33.2437 69.4334 33.1994L69.7321 33.3055C69.7162 33.3498 68.1621 37.7455 67.9047 40.3081H67.9063Z" fill="#231F20"/>
<path d="M67.6347 44.5724C67.3804 44.3113 67.5346 42.8265 67.6474 41.9654L67.962 42.0066C67.8301 43.0054 67.7554 44.1878 67.8667 44.3572L67.6347 44.5724Z" fill="#231F20"/>
<path d="M64.8363 49.0662C64.2245 49.0662 64.223 49.0283 64.2182 48.908C64.2102 48.7497 64.366 48.737 64.4804 48.7291C64.8443 48.7022 64.8745 47.9551 64.9047 47.2317C64.9142 46.9943 64.9237 46.7505 64.946 46.521C65.0302 45.6488 63.5047 44.9539 63.4888 44.9476C63.4205 44.9175 63.3823 44.8431 63.3982 44.7703C63.4141 44.6975 63.4793 44.6452 63.554 44.6452H65.1033C65.1907 44.6452 65.2622 44.7165 65.2622 44.8035C65.2622 44.8906 65.1907 44.9618 65.1033 44.9618H64.1657C64.6695 45.2863 65.3289 45.8514 65.2606 46.551C65.2399 46.7711 65.2304 47.0117 65.2209 47.2443C65.197 47.8189 65.1732 48.4062 64.9698 48.7481C65.3416 48.7449 65.8215 48.7354 66.1727 48.7291C66.2585 48.7291 66.3332 48.7972 66.3348 48.8842C66.3364 48.9713 66.2665 49.0441 66.1791 49.0457C65.5514 49.0583 65.1255 49.0662 64.8363 49.0662Z" fill="#231F20"/>
<path d="M49.5274 46.7521C49.494 46.7521 49.4591 46.741 49.4305 46.7188C49.3621 46.665 49.3494 46.5669 49.4019 46.4972C49.4321 46.4592 50.047 45.6884 51.3198 45.451C50.3156 45.1344 49.1174 44.8257 48.825 44.9492C48.744 44.984 48.6518 44.946 48.6169 44.8653C48.5819 44.7846 48.62 44.6912 48.7011 44.6579C49.2874 44.4078 51.6694 45.2246 52.1414 45.3908C52.2145 45.4161 52.259 45.4905 52.2447 45.5665C52.232 45.6425 52.1652 45.6979 52.0873 45.6979C50.4522 45.6979 49.6593 46.6809 49.6513 46.6919C49.6196 46.7315 49.5735 46.7521 49.5258 46.7521H49.5274Z" fill="#231F20"/>
<path d="M49.0237 44.8589C48.7043 44.373 49.2493 43.1969 49.3621 42.9658L49.6482 43.1035C49.4018 43.6116 49.1269 44.4363 49.2906 44.6848L49.0252 44.8574L49.0237 44.8589Z" fill="#231F20"/>
<path d="M58.005 34.9675C57.9876 34.9675 57.9717 34.9675 57.9558 34.9675C56.9849 34.9153 56.4573 33.1804 56.4351 33.106L56.7402 33.0158C56.872 33.459 57.3519 34.6177 57.9733 34.6509C58.6184 34.6889 59.4781 33.7059 59.7562 33.326L60.0136 33.5128C59.9691 33.573 58.9394 34.9691 58.005 34.9691V34.9675Z" fill="#231F20"/>
<path d="M57.1183 38.5052L56.8021 38.4783C56.8562 37.8578 57.174 34.7554 58.067 34.6509C58.9489 34.5465 59.5861 37.2959 59.7593 38.1396L59.4479 38.2029C59.1253 36.6311 58.531 34.9643 58.121 34.9643C58.1147 34.9643 58.1099 34.9643 58.1036 34.9643C57.684 35.0134 57.2645 36.8401 57.1183 38.5037V38.5052Z" fill="#231F20"/>
<path d="M49.9564 48.384C49.9564 48.384 49.9469 48.384 49.9421 48.384C49.8547 48.3761 49.7912 48.2985 49.7991 48.2115C49.9167 46.9389 51.4867 46.1775 52.4576 45.8261L51.5407 45.7343C51.4533 45.7248 51.3898 45.6488 51.3977 45.5617C51.4072 45.4747 51.4835 45.413 51.5709 45.4193L53.2633 45.5887C53.3395 45.5966 53.3999 45.6583 53.4063 45.7359C53.411 45.8134 53.3602 45.8815 53.2855 45.9005C53.2553 45.9084 50.2615 46.6539 50.1154 48.2416C50.1074 48.3239 50.0391 48.3856 49.9564 48.3856V48.384Z" fill="#231F20"/>
<path d="M53.3046 49.3717C53.2379 49.3717 53.1695 49.3702 53.0996 49.3654C52.6372 49.3417 52.3973 49.2483 52.205 49.1723C51.9762 49.0837 51.8506 49.0346 51.4248 49.1786C50.6668 49.4366 50.0455 48.8415 49.823 48.4901C49.7769 48.4157 49.7976 48.3191 49.8723 48.2716C49.9469 48.2257 50.0439 48.2463 50.0915 48.3207C50.1138 48.3555 50.6143 49.1185 51.3231 48.8795C51.8331 48.7069 52.035 48.7655 52.321 48.8779C52.5021 48.9475 52.7055 49.0283 53.1171 49.0488C53.6669 49.0773 53.9307 48.9729 53.9895 48.9175C53.9704 48.8969 53.9196 48.8526 53.7861 48.8035C53.5271 48.7069 53.2379 48.5392 52.9582 48.3761C52.5863 48.1593 52.1621 47.9107 51.9476 47.9408C51.8602 47.9519 51.7807 47.8886 51.7712 47.8031C51.76 47.7161 51.8236 47.6369 51.9094 47.6274C52.232 47.5894 52.6626 47.8395 53.1187 48.1039C53.3856 48.2606 53.6637 48.422 53.8973 48.5075C54.3089 48.6595 54.3327 48.8668 54.3105 48.976C54.258 49.2277 53.8878 49.3717 53.3062 49.3717H53.3046Z" fill="#231F20"/>
<path d="M56.6225 48.3175C56.5383 48.3175 56.462 48.2701 56.4159 48.2194C56.3571 48.1545 56.3603 48.0548 56.4255 47.9962C56.4636 47.9614 56.516 47.9487 56.5637 47.9566C56.5685 47.9044 56.5701 47.8205 56.5605 47.6891C56.5192 47.1541 55.7994 46.6618 55.221 46.2661C55.1352 46.2076 55.0541 46.1506 54.9763 46.0968C54.4074 45.6963 53.1489 45.9385 53.1377 45.9401C53.0519 45.9559 52.9677 45.9005 52.9518 45.815C52.9343 45.7295 52.99 45.6456 53.0773 45.6298C53.1346 45.6187 54.4821 45.3591 55.1622 45.8387C55.2385 45.8926 55.3195 45.948 55.4037 46.005C56.0377 46.4387 56.8259 46.98 56.8799 47.6638C56.9101 48.05 56.8609 48.2337 56.7131 48.2985C56.6845 48.3112 56.6543 48.3175 56.6257 48.3175H56.6225Z" fill="#231F20"/>
<path d="M56.605 49.1375C56.3174 49.1375 55.9964 48.9064 55.9249 48.8526C55.329 48.3761 53.6415 47.1605 52.9804 47.2285C52.8946 47.2349 52.8152 47.1747 52.8056 47.0876C52.7961 47.0006 52.8597 46.923 52.9471 46.9135C53.8624 46.8201 55.8916 48.4204 56.1188 48.604C56.2698 48.718 56.5415 48.8589 56.6464 48.8162C56.6797 48.8019 56.6956 48.7481 56.702 48.7038C56.7465 48.4173 56.2284 48.0564 55.8487 47.7936C55.6262 47.6401 55.4339 47.5055 55.337 47.3836C55.1717 47.1731 54.3565 46.7774 53.883 46.5764C53.802 46.5416 53.7638 46.4497 53.7988 46.369C53.8337 46.2883 53.9275 46.2519 54.007 46.2851C54.1404 46.3421 55.3179 46.8455 55.5881 47.189C55.6548 47.2744 55.8375 47.4011 56.0298 47.534C56.5033 47.8617 57.0913 48.2701 57.015 48.7528C56.9801 48.9792 56.8577 49.0726 56.764 49.1106C56.7131 49.1312 56.6575 49.1391 56.6019 49.1391L56.605 49.1375Z" fill="#231F20"/>
<path d="M55.6215 49.5221C55.5643 49.5221 55.5039 49.5174 55.4387 49.5063C54.7809 49.3971 54.1119 49.0647 54.0833 49.0504C54.0054 49.0109 53.9736 48.9159 54.0134 48.8383C54.0531 48.7608 54.1484 48.7291 54.2263 48.7687C54.2326 48.7718 54.881 49.0947 55.4912 49.196C55.5992 49.2135 55.7454 49.2198 55.8296 49.1454C55.9202 49.0647 55.9154 48.9206 55.9154 48.919C55.9123 48.832 55.979 48.7576 56.0664 48.7544C56.1522 48.7481 56.2285 48.8162 56.2333 48.9032C56.2348 48.9333 56.2444 49.2008 56.0442 49.3812C55.9361 49.4778 55.7947 49.5269 55.6215 49.5269V49.5221Z" fill="#231F20"/>
<path d="M58.5389 46.9246C58.4705 46.9246 58.4038 46.9199 58.3402 46.9104C58.113 46.8771 57.943 46.7806 57.8333 46.627C57.7602 46.5226 57.6665 46.3627 57.711 46.1917C57.7698 45.9654 58.0208 45.8435 58.4372 45.6425C58.6803 45.5253 58.9822 45.3781 59.3366 45.1708C60.2137 44.6563 60.9781 44.5899 61.5914 44.536C61.8568 44.5123 62.0872 44.4933 62.2922 44.4411C63.0804 44.2448 63.5619 44.6674 63.5809 44.6848C63.6461 44.7434 63.6508 44.8431 63.592 44.908C63.5333 44.9729 63.4331 44.9777 63.368 44.9207C63.3505 44.9049 62.985 44.5946 62.3685 44.7482C62.1397 44.8051 61.887 44.8273 61.6184 44.851C61.0051 44.9049 60.3123 44.965 59.4955 45.443C59.13 45.6567 58.8217 45.8071 58.5738 45.9274C58.2973 46.0604 58.0367 46.187 58.0161 46.2709C58.0129 46.2851 58.0113 46.3326 58.0908 46.445C58.148 46.5257 58.2433 46.5764 58.3847 46.597C58.8551 46.6666 59.559 46.3674 59.6401 46.3041C59.7529 46.2171 61.2434 45.3386 62.0999 45.5538C62.1857 45.5744 62.2366 45.6615 62.2159 45.7454C62.1953 45.8308 62.1079 45.8815 62.0237 45.8609C61.3467 45.6916 59.9817 46.4418 59.8355 46.5542C59.6973 46.6619 59.0696 46.923 58.5373 46.9246H58.5389Z" fill="#231F20"/>
<path d="M58.5119 48.2273C58.461 48.2273 58.4118 48.2226 58.3625 48.2115C58.1655 48.1703 58.0066 48.0469 57.9017 47.8553C57.6554 47.4042 58.4801 46.8059 58.7391 46.6334C58.8122 46.5843 58.9107 46.6033 58.96 46.6777C59.0093 46.7505 58.9886 46.8486 58.9171 46.8977C58.4737 47.1937 58.1162 47.5847 58.1814 47.705C58.2418 47.8142 58.3244 47.8807 58.4308 47.9028C58.577 47.9345 58.7582 47.8759 58.9298 47.7461C59.1872 47.5514 59.6926 47.3931 60.1375 47.2523C60.3743 47.1779 60.5983 47.1082 60.708 47.0528C61.0401 46.8882 62.3208 46.6381 62.4654 46.6096C62.5528 46.5922 62.6355 46.6492 62.6514 46.7347C62.6688 46.8201 62.6116 46.904 62.5258 46.9199C62.1445 46.9943 61.0989 47.2111 60.851 47.3346C60.7191 47.3995 60.495 47.4707 60.2344 47.553C59.8356 47.6781 59.3382 47.8348 59.1237 47.9962C58.925 48.1466 58.7137 48.2257 58.5151 48.2257L58.5119 48.2273Z" fill="#231F20"/>
<path d="M59.1317 48.9032C58.8806 48.9032 58.7455 48.794 58.6772 48.7006C58.4786 48.4331 58.5978 48.0184 58.6121 47.9725C58.6375 47.8886 58.7265 47.8411 58.8107 47.868C58.8949 47.8933 58.941 47.982 58.9156 48.0659C58.8917 48.145 58.8441 48.3967 58.9315 48.5138C58.9458 48.5328 58.9871 48.5866 59.1301 48.5866C59.5274 48.5866 60.0724 48.2938 60.4712 48.0785C60.6254 47.9962 60.7589 47.9234 60.8717 47.8743C61.1466 47.7525 61.5057 47.7018 61.8537 47.6527C62.0587 47.6242 62.2701 47.5942 62.4544 47.5514C62.5386 47.5324 62.626 47.5847 62.6451 47.6686C62.6657 47.754 62.6117 47.8395 62.5275 47.8585C62.3288 47.9044 62.1096 47.9361 61.8982 47.9661C61.5725 48.012 61.234 48.0595 61.0004 48.1624C60.8987 48.2067 60.77 48.2764 60.6222 48.3555C60.1693 48.5993 59.6068 48.9016 59.1301 48.9016L59.1317 48.9032Z" fill="#231F20"/>
<path d="M64.6377 49.0852C64.6377 49.0852 64.6345 49.0852 64.6329 49.0852C64.5837 49.0852 63.4141 49.0441 62.6593 48.9C62.1095 48.7956 61.5613 48.8858 60.9797 48.9792C60.7985 49.0093 60.6126 49.0393 60.4219 49.0647C60.0263 49.1169 59.7736 49.0647 59.6497 48.9048C59.5257 48.7449 59.5956 48.5629 59.6036 48.5439C59.637 48.4632 59.7307 48.4252 59.8117 48.4584C59.8912 48.4917 59.9309 48.5819 59.8991 48.6626C59.8991 48.6658 59.888 48.6974 59.9023 48.7133C59.9103 48.7228 59.9897 48.8051 60.3806 48.7513C60.5681 48.7259 60.7509 48.6958 60.9304 48.6674C61.539 48.5676 62.1159 48.4742 62.7197 48.5898C63.4491 48.7291 64.6329 48.7687 64.644 48.7687C64.7314 48.7718 64.7998 48.8446 64.7982 48.9317C64.795 49.0172 64.7251 49.0852 64.6393 49.0852H64.6377Z" fill="#231F20"/>
<path d="M59.4177 45.4668C59.3827 45.4668 59.3477 45.4557 59.3191 45.4319C59.2508 45.3781 59.2397 45.2784 59.2937 45.2088C59.3493 45.1391 60.6841 43.485 61.6884 43.6006C62.6784 43.7145 63.1758 44.4284 63.1964 44.4585C63.2457 44.5313 63.2266 44.6294 63.1535 44.6785C63.0804 44.7276 62.9819 44.7086 62.9326 44.6358C62.9279 44.6294 62.4925 44.0105 61.6519 43.914C60.9638 43.8364 59.8944 44.9634 59.5416 45.405C59.5098 45.4446 59.4637 45.4652 59.4177 45.4652V45.4668Z" fill="#231F20"/>
<path d="M35.6996 28.7911L35.1577 29.2723L35.7473 30.089L36.3749 29.3103L35.6996 28.7911Z" fill="#231F20"/>
<path d="M55.1813 29.4163C55.1813 29.4163 57.9621 31.5596 59.9008 28.579C59.9008 28.579 57.1136 31.0451 54.8953 27.6672L55.1813 29.4163Z" fill="black"/>
<path d="M57.9955 25.6791C57.9558 25.6791 57.9176 25.6586 57.8938 25.6237C57.8589 25.5683 57.8763 25.4955 57.932 25.4607C57.9351 25.4575 58.3229 25.2138 58.3499 24.8972C58.3626 24.7421 58.2831 24.5885 58.1115 24.4382C57.3265 23.7464 57.8398 22.6353 57.862 22.5878C57.8906 22.5292 57.9606 22.5039 58.0209 22.5308C58.0813 22.5577 58.1067 22.6289 58.0781 22.6891C58.0734 22.6986 57.6189 23.6863 58.2704 24.2609C58.5008 24.4635 58.6073 24.6851 58.5882 24.9194C58.5517 25.3546 58.0797 25.6506 58.0591 25.6633C58.04 25.676 58.0178 25.6807 57.9971 25.6807L57.9955 25.6791Z" fill="black"/>
<path d="M54.4487 21.589C54.4185 21.589 54.3899 21.5715 54.3772 21.5431C54.3582 21.5035 54.3772 21.456 54.4154 21.437C54.4758 21.4085 55.9202 20.7453 56.667 21.4512C56.6988 21.4813 56.7004 21.532 56.6702 21.5636C56.64 21.5953 56.5892 21.5969 56.5574 21.5668C55.89 20.9352 54.4964 21.5747 54.4821 21.581C54.471 21.5858 54.4599 21.589 54.4487 21.589Z" fill="black"/>
<path d="M61.377 21.589C61.3658 21.589 61.3547 21.5858 61.3436 21.581C61.3293 21.5747 59.9357 20.9352 59.2683 21.5668C59.2365 21.5969 59.1857 21.5953 59.1555 21.5636C59.1253 21.532 59.1269 21.4813 59.1587 21.4512C59.9039 20.7453 61.3484 21.4085 61.4103 21.437C61.4501 21.456 61.4675 21.5035 61.4485 21.5415C61.4342 21.57 61.4056 21.5874 61.377 21.5874V21.589Z" fill="black"/>
<path d="M26.2797 21.8675C26.2717 21.8675 26.2638 21.8628 26.2606 21.8549C26.2574 21.8438 26.2622 21.8327 26.2733 21.8296C29.0494 20.8687 30.273 15.9112 30.2841 15.8621C30.2873 15.851 30.2984 15.8447 30.3079 15.8478C30.319 15.851 30.3254 15.8605 30.3222 15.8716C30.319 15.8842 30.0124 17.1411 29.3656 18.5008C28.7681 19.7576 27.748 21.361 26.286 21.8675C26.2844 21.8675 26.2813 21.8675 26.2797 21.8675Z" fill="white"/>
<path d="M26.1415 21.2882C26.1335 21.2882 26.1256 21.2835 26.1224 21.2755C26.1192 21.2661 26.1224 21.2534 26.1335 21.2502C27.7861 20.6376 29.1686 17.3073 29.1829 17.274C29.1877 17.2645 29.1988 17.2582 29.2083 17.2629C29.2178 17.2677 29.2226 17.2788 29.2194 17.2883C29.2051 17.3215 27.8147 20.6677 26.1462 21.2866C26.1446 21.2866 26.1415 21.2866 26.1399 21.2866L26.1415 21.2882Z" fill="white"/>
<path d="M25.5265 20.5332C25.5154 20.5332 25.5074 20.5237 25.5074 20.5126C25.5933 19.1323 26.4656 18.1953 26.4736 18.1858C26.4815 18.1778 26.4942 18.1778 26.5022 18.1858C26.5101 18.1937 26.5101 18.2063 26.5022 18.2143C26.4942 18.2237 25.6298 19.1513 25.5456 20.5173C25.5456 20.5284 25.536 20.5363 25.5265 20.5363V20.5332Z" fill="white"/>
<path d="M25.857 20.5332C25.8475 20.5332 25.838 20.5253 25.838 20.5158C25.8014 20.1105 26.2448 19.2479 26.2622 19.2115C26.267 19.202 26.2797 19.1972 26.2892 19.2036C26.2988 19.2083 26.3035 19.221 26.2972 19.2305C26.2924 19.24 25.8411 20.12 25.8761 20.5142C25.8761 20.5253 25.8697 20.5348 25.8586 20.5363C25.8586 20.5363 25.8586 20.5363 25.857 20.5363V20.5332Z" fill="white"/>
<path d="M37.8114 23.0183C37.0026 22.9851 36.1747 22.1635 35.3484 20.5775C34.735 19.3998 34.352 18.2158 34.3488 18.2048C34.3457 18.1937 34.352 18.1826 34.3616 18.1794C34.3727 18.1763 34.3838 18.1826 34.387 18.1921C34.4013 18.2396 35.9188 22.8996 37.813 22.9772C37.8241 22.9772 37.832 22.9866 37.832 22.9977C37.832 23.0088 37.8225 23.0167 37.813 23.0167L37.8114 23.0183Z" fill="white"/>
<path d="M37.7638 22.6495C37.7638 22.6495 37.7606 22.6495 37.759 22.6495C36.251 22.3092 35.7711 20.4192 35.7663 20.4002C35.7631 20.3891 35.7695 20.3796 35.7806 20.3765C35.7917 20.3733 35.8013 20.3796 35.8045 20.3907C35.8092 20.4097 36.2843 22.2775 37.7685 22.6115C37.7796 22.6147 37.786 22.6242 37.7828 22.6352C37.7812 22.6447 37.7733 22.6511 37.7638 22.6511V22.6495Z" fill="white"/>
<path d="M37.8623 22.2744C37.8623 22.2744 37.8591 22.2744 37.8575 22.2744C37.0423 22.0433 36.9661 21.4623 36.9661 21.456C36.9661 21.4449 36.9724 21.4354 36.9835 21.4338C36.9963 21.4323 37.0042 21.4402 37.0058 21.4513C37.0058 21.4576 37.0805 22.0132 37.8686 22.2364C37.8798 22.2395 37.8845 22.2506 37.8829 22.2601C37.8798 22.2696 37.8718 22.2744 37.8639 22.2744H37.8623Z" fill="white"/>
<path d="M52.9821 19.2938C52.971 19.2938 52.963 19.2843 52.963 19.2732C53.0313 17.0872 56.041 16.0599 56.0712 16.0504C56.0823 16.0473 56.0934 16.052 56.0966 16.0631C56.0998 16.0742 56.095 16.0853 56.0839 16.0884C56.0537 16.0979 53.0695 17.1173 53.0027 19.2764C53.0027 19.2874 52.9932 19.2954 52.9837 19.2954L52.9821 19.2938Z" fill="white"/>
<path d="M53.7067 18.7952C53.7067 18.7952 53.7066 18.7952 53.7035 18.7952C53.6923 18.7952 53.6844 18.7841 53.686 18.773C53.8354 17.57 55.3561 17.2281 55.372 17.2249C55.3831 17.2234 55.3926 17.2297 55.3958 17.2408C55.399 17.2519 55.391 17.2614 55.3799 17.2645C55.3656 17.2677 53.8719 17.6017 53.7257 18.7778C53.7257 18.7873 53.7162 18.7952 53.7067 18.7952Z" fill="white"/>
<path d="M54.4488 18.6701C54.4376 18.6701 54.4297 18.6606 54.4297 18.6511C54.4297 18.2823 54.9795 18.1731 55.0033 18.1684C55.0129 18.1652 55.024 18.1731 55.0272 18.1842C55.0288 18.1953 55.0224 18.2048 55.0113 18.2079C55.0065 18.2079 54.4694 18.3156 54.4694 18.6511C54.4694 18.6622 54.4599 18.6701 54.4503 18.6701H54.4488Z" fill="white"/>
<path d="M61.8299 19.6056C61.8299 19.6056 61.8251 19.6056 61.8235 19.6056C61.8124 19.6024 61.8076 19.5914 61.8108 19.5803C62.3304 18.0164 59.7403 16.6219 59.7148 16.6076C59.7053 16.6029 59.7021 16.5902 59.7069 16.5807C59.7117 16.5712 59.7244 16.5681 59.7339 16.5728C59.7609 16.587 62.3781 17.9974 61.8489 19.5929C61.8458 19.6009 61.8378 19.6072 61.8299 19.6072V19.6056Z" fill="white"/>
<path d="M61.2768 19.528C61.2768 19.528 61.272 19.528 61.2705 19.528C61.2593 19.5249 61.2546 19.5138 61.2577 19.5027C61.4945 18.7698 60.236 18.037 60.2233 18.0291C60.2137 18.0243 60.2106 18.0116 60.2153 18.0021C60.2217 17.9926 60.2328 17.9895 60.2423 17.9942C60.2948 18.0243 61.5406 18.7509 61.2943 19.5138C61.2911 19.5217 61.2832 19.528 61.2752 19.528H61.2768Z" fill="white"/>
<path d="M50.4936 50.5652L49.7483 50.57C49.7404 50.6175 49.7308 50.6634 49.7181 50.7093C49.4432 51.7081 48.4548 52.1386 47.4934 51.9677C48.1036 52.0753 47.762 52.012 47.4537 52.0626C47.1995 52.1054 46.9468 52.1275 46.691 52.137C46.2794 52.1513 45.8647 52.126 45.4515 52.1275C44.6173 52.1291 43.7878 52.1782 42.9567 52.0943C42.5102 52.05 42.0557 52.0183 41.5981 51.9962C41.007 52.1481 40.3872 52.1576 39.7564 52.1513C39.0572 52.145 38.3596 52.1291 37.67 52.0357C37.1297 52.1149 36.6148 52.1655 36.0523 52.0136C35.9347 51.9819 35.8251 51.9392 35.7218 51.8869C35.5676 51.8141 35.4358 51.7192 35.3182 51.6099C35.0067 51.3725 34.7636 51.0243 34.6349 50.6602L10.4591 50.8074L0.735718 53.34H47.8542L50.7812 51.1762C51.0736 50.961 50.8861 50.5621 50.4936 50.5652Z" fill="#D98844"/>
<path d="M47.8542 53.4983H0.735762C0.65631 53.4983 0.587981 53.4398 0.578447 53.3606C0.568912 53.2815 0.618173 53.2071 0.696036 53.1865L10.4194 50.6539C10.4321 50.6507 10.4448 50.6491 10.4591 50.6491L34.6349 50.5019C34.7064 50.4988 34.7636 50.5447 34.7859 50.608C34.9066 50.9515 35.1371 51.2712 35.4151 51.4849C35.4199 51.4881 35.4231 51.4912 35.4279 51.496C35.5407 51.602 35.6599 51.6843 35.7902 51.7461C35.8903 51.7967 35.992 51.8347 36.0937 51.8616C36.6387 52.0072 37.1393 51.9534 37.6462 51.879C37.6605 51.8774 37.6764 51.8774 37.6907 51.879C38.3787 51.9724 39.0874 51.9867 39.7564 51.993C40.3491 51.9993 40.9752 51.993 41.5568 51.8426C41.5727 51.8379 41.5886 51.8363 41.6045 51.8379C42.0955 51.8616 42.5436 51.8933 42.9727 51.936C43.5765 51.9962 44.1962 51.9867 44.7937 51.9756C45.013 51.9724 45.2307 51.9677 45.45 51.9677C45.6121 51.9677 45.7805 51.9708 45.9473 51.974C46.1905 51.9803 46.4415 51.9851 46.6847 51.9772C46.9151 51.9693 47.1312 51.9503 47.3409 51.9186C47.3648 51.8442 47.4395 51.7967 47.5205 51.811C48.3134 51.9518 49.2907 51.6543 49.564 50.6665C49.5751 50.6254 49.5831 50.5842 49.591 50.5415C49.6037 50.4671 49.6705 50.4117 49.7468 50.4101L50.492 50.4054H50.4968C50.759 50.4054 50.9846 50.5526 51.0593 50.7726C51.1245 50.9673 51.0546 51.1715 50.8766 51.3029L47.9496 53.4667C47.9225 53.4872 47.8892 53.4983 47.8542 53.4983ZM1.97204 53.1817H47.8018L50.6859 51.0496C50.7542 50.9989 50.7781 50.9388 50.7558 50.8739C50.7304 50.7995 50.6398 50.7235 50.4952 50.7235H50.492L49.8739 50.7267C49.8739 50.7267 49.8691 50.7425 49.8675 50.7504C49.6276 51.6226 48.8569 52.1624 47.9178 52.1624C47.8669 52.1924 47.8018 52.194 47.7605 52.1956C47.6921 52.1972 47.5793 52.2004 47.476 52.2178C47.2249 52.2589 46.9675 52.2842 46.6926 52.2937C46.44 52.3032 46.1841 52.2969 45.9362 52.2906C45.7726 52.2874 45.6089 52.2827 45.4468 52.2842C45.2291 52.2842 45.0114 52.289 44.7953 52.2922C44.1883 52.3017 43.559 52.3127 42.9361 52.251C42.5198 52.2099 42.086 52.1782 41.6092 52.1545C40.9975 52.308 40.3555 52.3143 39.7501 52.3096C39.0779 52.3032 38.3644 52.289 37.6668 52.1956C37.1536 52.27 36.6022 52.327 36.0063 52.1671C35.8839 52.1339 35.7616 52.088 35.6456 52.0294C35.4914 51.9566 35.3452 51.8569 35.2102 51.7302C34.9146 51.5039 34.6683 51.1762 34.5205 50.8185L10.475 50.9641L1.96727 53.1802L1.97204 53.1817Z" fill="black"/>
<path d="M48.0306 53.34H0.63565C0.372368 53.34 0.158936 53.5526 0.158936 53.8149C0.158936 54.0772 0.372368 54.2898 0.63565 54.2898H48.0306C48.2939 54.2898 48.5073 54.0772 48.5073 53.8149C48.5073 53.5526 48.2939 53.34 48.0306 53.34Z" fill="#D98844"/>
<path d="M48.0322 54.4481H0.635619C0.28444 54.4481 0 54.1647 0 53.8149C0 53.4651 0.28444 53.1818 0.635619 53.1818H48.0322C48.3833 53.1818 48.6678 53.4651 48.6678 53.8149C48.6678 54.1647 48.3833 54.4481 48.0322 54.4481ZM0.635619 53.4983C0.460824 53.4983 0.31781 53.6408 0.31781 53.8149C0.31781 53.989 0.460824 54.1315 0.635619 54.1315H48.0322C48.2069 54.1315 48.35 53.989 48.35 53.8149C48.35 53.6408 48.2069 53.4983 48.0322 53.4983H0.635619Z" fill="black"/>
<path d="M26.6833 51.8695L27.0329 50.6586L28.0579 48.8668L29.426 48.2052L30.4923 47.8633H31.1359L32.512 48.2052L34.5682 49.1359L36.5227 49.3417L37.5207 49.3053L37.8432 49.9052V51.2221L37.0964 51.9772L35.4501 52.1988L34.5889 52.2035C34.5889 52.2035 32.4532 51.1066 31.8319 50.9657C31.2105 50.8248 31.1613 51.3883 31.1613 51.3883L30.9499 52.4283L30.7465 52.7085L30.2285 52.6768L29.8027 52.5375L29.4133 51.9756L29.0637 51.8695L28.6474 51.7524L28.2247 50.6602L27.9006 51.0876L27.489 51.7302L27.087 52.0389L26.6865 51.8711L26.6833 51.8695Z" fill="#F5BCA7"/>
<path d="M36.2938 52.3001C35.9681 52.3001 35.7599 52.3001 35.7059 52.3001C35.6185 52.3001 35.5486 52.2304 35.547 52.1434C35.547 52.0563 35.6153 51.9851 35.7027 51.9835C36.7642 51.9598 37.4316 51.6859 37.6843 51.1683C38.0497 50.4212 37.484 49.3448 37.1344 48.8795C36.6704 48.2637 35.2482 48.7196 34.7398 48.9475C34.6841 48.9729 34.619 48.9634 34.5729 48.9254C34.5268 48.8874 34.5062 48.8257 34.5205 48.7655C34.5364 48.7022 34.7143 48.1323 36.1461 47.8918C36.6752 47.8031 37.2647 47.735 37.8336 47.6701C38.7616 47.5641 39.6388 47.4644 40.241 47.2792C40.3411 47.2475 40.446 47.2143 40.5557 47.1795C41.4773 46.885 42.7184 46.4893 43.6273 46.8945C43.8037 46.5051 44.4568 45.7279 46.8324 45.9179C46.9198 45.9242 46.985 46.0018 46.9786 46.0888C46.9722 46.1759 46.8976 46.2408 46.807 46.2345C44.0722 46.0145 43.88 47.1304 43.8784 47.1415C43.8704 47.1937 43.8371 47.2412 43.7894 47.2633C43.7417 47.2855 43.6845 47.2839 43.6384 47.257C42.8423 46.7821 41.5774 47.1858 40.6526 47.4802C40.543 47.515 40.4365 47.5498 40.3348 47.5799C39.7039 47.7746 38.8125 47.8759 37.8686 47.9836C37.3029 48.0485 36.7181 48.1149 36.1969 48.202C35.9967 48.2352 35.8251 48.2764 35.6773 48.3191C36.2923 48.1973 37.0137 48.1925 37.3855 48.6864C37.805 49.2419 38.3977 50.4196 37.9671 51.3029C37.8273 51.5894 37.5937 51.8157 37.2695 51.9788C40.2585 51.974 46.5845 51.9471 47.7985 51.8046C49.3272 51.6258 49.4512 51.5514 49.7563 49.0219C50.0486 46.6001 48.5629 45.701 48.4993 45.6631C48.4453 45.6314 48.4151 45.5712 48.4215 45.5095C48.5025 44.7561 48.0909 43.944 47.7604 43.2919C47.5157 42.8091 47.3393 42.4609 47.4013 42.2171C47.5014 41.8214 47.5427 41.3544 46.7498 40.8147C45.8837 40.2227 45.2291 36.0739 45.1575 35.6038C45.1464 35.5057 44.9001 33.3656 42.7438 33.0775C40.4301 32.7689 36.5672 30.7396 36.4035 30.6526C36.3256 30.6114 36.297 30.5164 36.3367 30.4389C36.3781 30.3613 36.4734 30.3312 36.5513 30.3724C36.591 30.393 40.5271 32.4618 42.7851 32.7625C45.1941 33.0839 45.4706 35.5373 45.4722 35.5627C45.7455 37.3497 46.3589 40.1641 46.9293 40.5535C47.8462 41.1803 47.8383 41.785 47.708 42.2947C47.6746 42.4245 47.8701 42.8091 48.0433 43.1494C48.3611 43.7778 48.7933 44.6278 48.7456 45.4462C49.0968 45.69 50.3521 46.7362 50.0725 49.0599C49.7578 51.6574 49.5703 51.9154 47.8351 52.1181C46.4272 52.2827 38.5455 52.2953 36.2907 52.2953L36.2938 52.3001Z" fill="#231F20"/>
<path d="M27.0266 52.2035C26.9185 52.2035 26.8184 52.1608 26.7326 52.0785C26.259 51.6274 26.7707 50.7679 27.2665 49.9353C27.4397 49.644 27.6034 49.3686 27.7241 49.1185C28.0388 48.46 28.4297 48.3429 28.9716 48.183C29.2894 48.0896 29.6485 47.982 30.1061 47.7414C30.8991 47.3235 32.1242 47.8569 33.3096 48.373C34.1487 48.737 35.0163 49.1153 35.6646 49.1248C37.2394 49.1486 37.519 49.1486 37.5222 49.1486C37.6096 49.1486 37.6811 49.2198 37.6811 49.3069C37.6811 49.3939 37.6096 49.4651 37.5222 49.4651C37.5111 49.4651 37.241 49.4651 35.6599 49.4414C34.948 49.4303 34.0501 49.0409 33.1825 48.6642C32.0654 48.1783 30.9118 47.6781 30.2539 48.0231C29.7677 48.278 29.3768 48.3951 29.0621 48.4885C28.5473 48.6405 28.2644 48.7259 28.0118 49.2562C27.8862 49.519 27.7114 49.815 27.5414 50.0983C27.1298 50.79 26.6627 51.5735 26.9535 51.8505C26.9932 51.8885 27.0218 51.8917 27.052 51.8838C27.3428 51.8221 27.8068 50.991 28.0435 50.4212C28.0769 50.3405 28.1707 50.3025 28.2517 50.3357C28.3328 50.369 28.3709 50.4624 28.3375 50.5431C28.2311 50.7979 27.6749 52.0785 27.1187 52.1956C27.0885 52.2019 27.0583 52.2051 27.0281 52.2051L27.0266 52.2035Z" fill="#231F20"/>
<path d="M28.9382 51.9851C28.2867 51.9851 28.1786 51.3424 28.0896 50.8233C28.0515 50.6032 28.0134 50.3737 27.9419 50.1933C27.8767 50.0287 27.8847 49.8593 27.9657 49.7057C28.2168 49.2293 29.0971 49.0077 29.1972 48.9855C29.283 48.965 29.3688 49.0172 29.3879 49.1027C29.407 49.1881 29.3561 49.2736 29.2703 49.2926C29.0383 49.348 28.4027 49.5554 28.247 49.853C28.2088 49.9258 28.2056 49.9986 28.2374 50.0793C28.3216 50.2914 28.363 50.5368 28.4027 50.7726C28.5123 51.4216 28.6013 51.7018 29.0018 51.6685C29.0892 51.659 29.1654 51.7255 29.1734 51.8126C29.1813 51.8996 29.1162 51.9756 29.0288 51.9835C28.997 51.9867 28.9668 51.9883 28.9366 51.9883L28.9382 51.9851Z" fill="#231F20"/>
<path d="M29.4117 52.1355H29.4101C29.1987 52.1339 29.0335 52.0721 28.9175 51.9534C28.6982 51.7287 28.7061 51.3662 28.7125 50.98C28.7172 50.7314 28.722 50.475 28.6632 50.2692C28.614 50.0983 28.6394 49.9321 28.7347 49.7865C29.0303 49.3353 29.9281 49.2008 30.0298 49.1881C30.1156 49.177 30.1966 49.2372 30.2094 49.3243C30.2221 49.4113 30.1601 49.4905 30.0743 49.5031C29.8375 49.5364 29.186 49.6804 29.0017 49.9622C28.9556 50.0318 28.9461 50.103 28.9699 50.1853C29.0414 50.437 29.0366 50.7172 29.0319 50.9895C29.0255 51.306 29.0207 51.6052 29.1463 51.7366C29.2019 51.7936 29.2893 51.822 29.4132 51.8236C29.5006 51.8236 29.5721 51.8964 29.5706 51.9835C29.5706 52.0706 29.4991 52.1402 29.4117 52.1402V52.1355Z" fill="#231F20"/>
<path d="M30.0393 52.6974H30.0378C29.8264 52.6958 29.6611 52.6341 29.5451 52.5154C29.3259 52.2906 29.3338 51.9281 29.3402 51.5419C29.3449 51.2934 29.3497 51.037 29.2909 50.8312C29.2416 50.6602 29.2671 50.494 29.3624 50.3484C29.658 49.8973 30.5558 49.7627 30.6575 49.7501C30.7433 49.739 30.8243 49.7991 30.837 49.8862C30.8498 49.9733 30.7878 50.0524 30.702 50.0651C30.4652 50.0983 29.8137 50.2423 29.6294 50.5241C29.5833 50.5937 29.5737 50.665 29.5976 50.7473C29.6691 50.999 29.6643 51.2791 29.6596 51.5514C29.6532 51.868 29.6484 52.1671 29.774 52.2985C29.8296 52.3555 29.917 52.384 30.0409 52.3856C30.1283 52.3856 30.1998 52.4584 30.1982 52.5454C30.1982 52.6325 30.1267 52.7021 30.0393 52.7021V52.6974Z" fill="#231F20"/>
<path d="M30.47 52.8668C30.3826 52.8668 30.2905 52.8541 30.1904 52.8319C30.0744 52.805 29.9838 52.7401 29.9282 52.6467C29.7947 52.4204 29.89 52.0753 30.0028 51.6764C30.0775 51.4089 30.1554 51.1319 30.1633 50.8913C30.1919 50.0524 31.352 49.9131 31.4012 49.9083C31.4902 49.9004 31.5665 49.9606 31.576 50.0476C31.5855 50.1347 31.5236 50.2123 31.4362 50.2233C31.4266 50.2233 30.5002 50.3357 30.4812 50.9024C30.4716 51.181 30.3858 51.4896 30.3095 51.7619C30.2285 52.05 30.1379 52.3761 30.2031 52.4869C30.2078 52.4948 30.219 52.5138 30.265 52.5249C30.4637 52.5723 30.613 52.5565 30.71 52.4805C30.8371 52.3808 30.9038 52.156 30.9038 51.8284C30.9038 51.4137 30.9181 51.1288 31.1136 50.9562C31.3138 50.7789 31.6523 50.7789 32.1322 50.8359C32.5485 50.885 32.914 51.1351 33.3001 51.3978C33.9119 51.8157 34.5443 52.2463 35.5121 52.0262C37.1059 51.6622 37.5476 51.3883 37.5524 51.3852C37.6255 51.3377 37.724 51.3583 37.7717 51.4311C37.8194 51.5039 37.8003 51.6004 37.7272 51.6495C37.7081 51.6622 37.2569 51.9534 35.5836 52.3349C34.4824 52.5866 33.7594 52.0943 33.1222 51.659C32.7694 51.4184 32.4357 51.1905 32.0956 51.1509C31.6555 51.0987 31.4187 51.1113 31.3265 51.1937C31.2312 51.2791 31.2232 51.5102 31.2232 51.8284C31.2232 52.2684 31.1199 52.5628 30.9086 52.729C30.791 52.8224 30.6448 52.8683 30.4732 52.8683L30.47 52.8668Z" fill="#231F20"/>
</g>
<defs>
<radialGradient id="paint0_radial_806_148" cx="0" cy="0" r="1" gradientUnits="userSpaceOnUse" gradientTransform="translate(28.8453 26.325) scale(1.40466 1.14481)">
<stop stop-color="#F59394"/>
<stop offset="0.09" stop-color="#F59394" stop-opacity="0.94"/>
<stop offset="0.27" stop-color="#F59394" stop-opacity="0.8"/>
<stop offset="0.52" stop-color="#F59394" stop-opacity="0.55"/>
<stop offset="0.81" stop-color="#F59394" stop-opacity="0.23"/>
<stop offset="1" stop-color="#F59394" stop-opacity="0"/>
</radialGradient>
<radialGradient id="paint1_radial_806_148" cx="0" cy="0" r="1" gradientUnits="userSpaceOnUse" gradientTransform="translate(34.2804 -8.17877) scale(1.40466 1.14481)">
<stop stop-color="#F59394"/>
<stop offset="0.09" stop-color="#F59394" stop-opacity="0.94"/>
<stop offset="0.27" stop-color="#F59394" stop-opacity="0.8"/>
<stop offset="0.52" stop-color="#F59394" stop-opacity="0.55"/>
<stop offset="0.81" stop-color="#F59394" stop-opacity="0.23"/>
<stop offset="1" stop-color="#F59394" stop-opacity="0"/>
</radialGradient>
<radialGradient id="paint2_radial_806_148" cx="0" cy="0" r="1" gradientUnits="userSpaceOnUse" gradientTransform="translate(55.4456 25.2799) scale(1.07674 0.87755)">
<stop stop-color="#F59394"/>
<stop offset="0.09" stop-color="#F59394" stop-opacity="0.94"/>
<stop offset="0.27" stop-color="#F59394" stop-opacity="0.8"/>
<stop offset="0.52" stop-color="#F59394" stop-opacity="0.55"/>
<stop offset="0.81" stop-color="#F59394" stop-opacity="0.23"/>
<stop offset="1" stop-color="#F59394" stop-opacity="0"/>
</radialGradient>
<radialGradient id="paint3_radial_806_148" cx="0" cy="0" r="1" gradientUnits="userSpaceOnUse" gradientTransform="translate(60.0927 25.2799) scale(1.07674 0.87755)">
<stop stop-color="#F59394"/>
<stop offset="0.09" stop-color="#F59394" stop-opacity="0.94"/>
<stop offset="0.27" stop-color="#F59394" stop-opacity="0.8"/>
<stop offset="0.52" stop-color="#F59394" stop-opacity="0.55"/>
<stop offset="0.81" stop-color="#F59394" stop-opacity="0.23"/>
<stop offset="1" stop-color="#F59394" stop-opacity="0"/>
</radialGradient>
<clipPath id="clip0_806_148">
<rect width="78" height="62" fill="white"/>
</clipPath>
</defs>
</svg>
