<svg width="14" height="14" viewBox="0 0 14 14" fill="none" xmlns="http://www.w3.org/2000/svg">
<path fill-rule="evenodd" clip-rule="evenodd" d="M13.645 3.07637e-06C13.647 8.533e-06 13.6491 3.10407e-05 13.6511 7.05225e-05C13.7023 -0.000990276 13.7544 0.00989687 13.8038 0.0341381C13.8396 0.0517032 13.8711 0.0748868 13.8978 0.102197C13.9251 0.128892 13.9483 0.160387 13.9659 0.19617C13.9901 0.245563 14.001 0.297719 13.9999 0.348863C14 0.351178 14 0.353495 14 0.355814C14 0.369534 13.9993 0.383255 13.9977 0.396904C13.9935 0.434314 13.9835 0.471663 13.9672 0.507605L7.83649 14L5.47603 8.68482C5.45732 8.6427 5.44721 8.59873 5.44494 8.55506C5.40127 8.55279 5.3573 8.54269 5.31518 8.52398L0 6.16351L13.4924 0.0328499C13.5275 0.0169058 13.5639 0.00696553 13.6004 0.00259712C13.6152 0.000806116 13.6301 -5.85646e-05 13.645 3.07637e-06ZM12.0513 1.44456L1.68142 6.15642L5.59945 7.89641L12.0513 1.44456ZM6.10359 8.40055L12.5554 1.9487L7.84359 12.3186L6.10359 8.40055Z" fill="white"/>
</svg>
