<svg width="14" height="14" viewBox="0 0 14 14" fill="none" xmlns="http://www.w3.org/2000/svg">
<path fill-rule="evenodd" clip-rule="evenodd" d="M6.40226 0C6.07956 0 5.78291 0.177882 5.62992 0.463134L3.33096 4.74949C3.17116 4.5391 2.91831 4.40325 2.63373 4.40325H0.875C0.391751 4.40325 0 4.795 0 5.27825V11.4541C0 11.9373 0.391752 12.3291 0.875001 12.3291H2.63374C2.92213 12.3291 3.17793 12.1896 3.33734 11.9744L10.8941 13.9708C11.3414 14.089 11.8032 13.8382 11.9495 13.3977L13.955 7.35747C14.0286 7.13589 14.0114 6.89405 13.9074 6.68514L12.8356 4.53319C12.6469 4.15414 12.216 3.96384 11.8101 4.08026L6.93922 5.47743L8.88281 1.24969C9.15107 0.666157 8.72652 0 8.08636 0H6.40226ZM2.63374 11.4039C2.63201 11.4207 2.63127 11.4375 2.63148 11.4541H0.875V5.27825H2.63374V6.11952C2.63069 6.14941 2.63073 6.17934 2.63374 6.20886V11.4039ZM3.50874 11.109L11.1173 13.1192L13.1228 7.07898L12.0511 4.92702L7.1802 6.3242C6.45879 6.53113 5.82836 5.79231 6.14277 5.10839L8.08636 0.88065L6.40226 0.880649L3.50874 6.27556V11.109Z" fill="#FD8181"/>
</svg>
