<svg width="12" height="12" viewBox="0 0 12 12" fill="none" xmlns="http://www.w3.org/2000/svg">
<path fill-rule="evenodd" clip-rule="evenodd" d="M5.48765 0C5.21105 0 4.95678 0.15247 4.82565 0.396972L2.85511 4.07099C2.71814 3.89066 2.50141 3.77421 2.25749 3.77421H0.75C0.335786 3.77421 0 4.11 0 4.52421V9.81779C0 10.232 0.335787 10.5678 0.750001 10.5678H2.25749C2.50468 10.5678 2.72394 10.4482 2.86057 10.2637L9.3378 11.975C9.7212 12.0763 10.1171 11.8613 10.2424 11.4837L11.9614 6.3064C12.0245 6.11648 12.0098 5.90918 11.9206 5.73012L11.002 3.88559C10.8402 3.56069 10.4708 3.39757 10.1229 3.49736L5.9479 4.69494L7.61383 1.07117C7.84377 0.570991 7.47987 0 6.93116 0H5.48765ZM2.25749 9.7748C2.25601 9.7892 2.25538 9.80355 2.25555 9.81779H0.75V4.52421H2.25749V5.24531C2.25488 5.27092 2.25491 5.29658 2.25749 5.32188V9.7748ZM3.00749 9.522L9.52915 11.245L11.2481 6.0677L10.3295 4.22316L6.15446 5.42074C5.5361 5.59811 4.99574 4.96483 5.26523 4.37862L6.93116 0.754842L5.48765 0.754842L3.00749 5.37905V9.522Z" fill="#FD8181"/>
</svg>
