<svg xmlns="http://www.w3.org/2000/svg" width="60" height="48" fill="none" viewBox="0 0 60 48">
  <path fill="#D9D9D9" fill-rule="evenodd" d="M9 3h9v9H9V3Zm-3 9V3a3 3 0 0 1 3-3h9a3 3 0 0 1 3 3v9h18V9a3 3 0 0 1 3-3h9a3 3 0 0 1 3 3v3h3a3 3 0 0 1 3 3v30a3 3 0 0 1-3 3H3a3 3 0 0 1-3-3V15a3 3 0 0 1 3-3h3Zm45 0h-9V9h9v3Zm-33 3h39v30H3V15h15Zm21 15a9 9 0 1 1-18 0 9 9 0 0 1 18 0Zm3 0c0 6.627-5.373 12-12 12s-12-5.373-12-12 5.373-12 12-12 12 5.373 12 12Zm6-9a3 3 0 1 1-6 0 3 3 0 0 1 6 0Zm-15 9a3 3 0 1 1-6 0 3 3 0 0 1 6 0Zm3 0a6 6 0 1 1-12 0 6 6 0 0 1 12 0Z" clip-rule="evenodd"/>
</svg>
