<svg width="14" height="14" viewBox="0 0 14 14" fill="none" xmlns="http://www.w3.org/2000/svg">
<path fill-rule="evenodd" clip-rule="evenodd" d="M0.746859 0.128141C0.576005 -0.0427136 0.298995 -0.0427136 0.128141 0.128141C-0.0427136 0.298995 -0.0427136 0.576005 0.128141 0.746859L6.38128 7L0.128141 13.2531C-0.0427136 13.424 -0.0427136 13.701 0.128141 13.8719C0.298995 14.0427 0.576005 14.0427 0.746859 13.8719L7 7.61872L13.2531 13.8719C13.424 14.0427 13.701 14.0427 13.8719 13.8719C14.0427 13.701 14.0427 13.424 13.8719 13.2531L7.61872 7L13.8719 0.746859C14.0427 0.576005 14.0427 0.298995 13.8719 0.128141C13.701 -0.0427136 13.424 -0.0427136 13.2531 0.128141L7 6.38128L0.746859 0.128141Z" fill="white"/>
</svg>
