<svg width="18" height="12" viewBox="0 0 18 12" fill="none" xmlns="http://www.w3.org/2000/svg">
<path fill-rule="evenodd" clip-rule="evenodd" d="M1.64571 4.28146L9 1.22824L16.3543 4.28146L9 8.35241L1.64571 4.28146ZM9.18315 0.0370166C9.06426 -0.01234 8.93573 -0.0123378 8.81685 0.0370168L0.39604 3.53301C-0.105589 3.74127 -0.139217 4.60904 0.343968 4.8765L3.5 6.62352V9.79729L3.62037 9.94709C4.22494 10.6994 6.06942 12 9 12C11.9306 12 13.7751 10.6994 14.3796 9.94709L14.5 9.79729V6.62352L16 5.79319V10.1333C16 10.4279 16.2239 10.6667 16.5 10.6667C16.7761 10.6667 17 10.4279 17 10.1333V5.23965L17.656 4.8765C18.1392 4.60904 18.1056 3.74127 17.604 3.53301L9.18315 0.0370166ZM13.5 7.17707L9.23522 9.53783C9.08547 9.62072 8.91453 9.62072 8.76478 9.53783L4.5 7.17707V9.38669C5.03713 9.93155 6.54905 10.9333 9 10.9333C11.451 10.9333 12.9629 9.93156 13.5 9.38669V7.17707Z" fill="#2137A8"/>
</svg>
