<svg width="16" height="16" viewBox="0 0 16 16" fill="none" xmlns="http://www.w3.org/2000/svg">
<path fill-rule="evenodd" clip-rule="evenodd" d="M3 1H13C14.1046 1 15 1.89543 15 3V4.75972L8.00002 10.3597L1 4.75969V3C1 1.89543 1.89543 1 3 1ZM1 6.04032V12.2929L4.47366 8.81924L1 6.04032ZM0.020954 13.3564C-0.0253421 13.5114 0.00508234 13.6844 0.112227 13.8157C0.467552 15.0762 1.62589 16 3 16H13C14.3741 16 15.5324 15.0762 15.8878 13.8157C15.9949 13.6844 16.0253 13.5114 15.979 13.3564C15.9929 13.2395 16 13.1206 16 13V5.00579C16.0001 5.00173 16.0001 4.99767 16 4.99362V3C16 1.34315 14.6569 0 13 0H3C1.34315 0 0 1.34315 0 3V13C0 13.1206 0.00711703 13.2396 0.020954 13.3564ZM15 6.04035L11.5264 8.81925L15 12.2929V6.04035ZM14.9047 13.6118L10.7407 9.44779L8.62471 11.1406C8.2595 11.4328 7.74054 11.4327 7.37532 11.1406L5.25933 9.44778L1.09531 13.6118C1.35378 14.4171 2.10882 15 3 15H13C13.8912 15 14.6462 14.4171 14.9047 13.6118Z" fill="white"/>
</svg>
