<svg width="14" height="14" viewBox="0 0 14 14" fill="none" xmlns="http://www.w3.org/2000/svg">
<path fill-rule="evenodd" clip-rule="evenodd" d="M10.9375 11.2984L11.2216 11.0382C12.3992 9.95991 13.125 8.4436 13.125 6.76845C13.125 3.54121 10.4108 0.875075 7 0.875075C3.58921 0.875075 0.875 3.54121 0.875 6.76845C0.875 9.99569 3.58921 12.6618 7 12.6618C7.72438 12.6618 8.41736 12.5412 9.05961 12.3205L9.38272 12.2095L10.9375 12.8921V11.2984ZM11.8125 11.6836V13.562C11.8125 13.8777 11.4883 14.0895 11.1992 13.9626L9.34385 13.1482C8.61107 13.3999 7.82208 13.5369 7 13.5369C3.13401 13.5369 0 10.5066 0 6.76845C0 3.03034 3.13401 0 7 0C10.866 0 14 3.03034 14 6.76845C14 8.70411 13.1597 10.45 11.8125 11.6836Z" fill="#888888"/>
</svg>
