<svg width="18" height="16" viewBox="0 0 18 16" fill="none" xmlns="http://www.w3.org/2000/svg">
<path d="M8.66042 2.48733L9.01838 2.81855L9.35842 2.46895C10.432 1.36521 11.4736 0.792328 12.4109 0.58864C13.3433 0.386017 14.2047 0.541061 14.9464 0.949293C16.4452 1.77416 17.5 3.66853 17.5 5.82157C17.5 6.83296 17.0566 7.94691 16.316 9.07848C15.5798 10.2033 14.5792 11.3011 13.5351 12.2688C12.4925 13.2353 11.4196 14.0601 10.5504 14.6406C10.1153 14.9313 9.73773 15.1563 9.44536 15.3065C9.29872 15.3819 9.18079 15.4346 9.09243 15.4673C9.04511 15.4848 9.01531 15.4931 9 15.4969C8.98469 15.4931 8.95489 15.4848 8.90757 15.4673C8.81921 15.4346 8.70128 15.3819 8.55464 15.3065C8.26227 15.1563 7.88471 14.9313 7.4496 14.6406C6.58044 14.0601 5.50755 13.2353 4.4649 12.2688C3.42084 11.3011 2.42018 10.2033 1.68399 9.07848C0.943401 7.94691 0.5 6.83296 0.5 5.82157C0.5 3.64428 1.44778 1.75995 2.8731 0.945355C4.2444 0.161632 6.25883 0.265113 8.66042 2.48733Z" stroke="#2137A8"/>
</svg>
