<svg width="18" height="10" viewBox="0 0 18 10" fill="none" xmlns="http://www.w3.org/2000/svg">
<path fill-rule="evenodd" clip-rule="evenodd" d="M16.8632 2.33183L14.8251 5L16.8632 7.66817V2.33183ZM16.8356 0.263319C17.2653 -0.299187 18 0.0992044 18 0.894705V9.1053C18 9.9008 17.2653 10.2992 16.8356 9.73668L14.1729 6.25076C13.3732 8.40691 10.5545 10 7.2 10C3.22355 10 0 7.76143 0 5C0 2.23858 3.22355 4.29712e-06 7.2 4.29712e-06C10.5545 4.29712e-06 13.3732 1.59309 14.1729 3.74924L16.8356 0.263319ZM11.7208 7.71417C12.8401 6.93686 13.4 5.96121 13.4 5C13.4 4.03879 12.8401 3.06315 11.7208 2.28584C10.6052 1.5111 9.00991 1 7.2 1C5.39009 1 3.79485 1.5111 2.67923 2.28584C1.55991 3.06315 1 4.03879 1 5C1 5.96121 1.55991 6.93686 2.67923 7.71417C3.79485 8.4889 5.39009 9 7.2 9C9.00991 9 10.6052 8.4889 11.7208 7.71417ZM3.6 5C4.09705 5 4.5 4.55228 4.5 4C4.5 3.44771 4.09705 3 3.6 3C3.10294 3 2.7 3.44771 2.7 4C2.7 4.55228 3.10294 5 3.6 5Z" fill="#2137A8"/>
</svg>
