<svg width="24" height="24" viewBox="0 0 24 24" fill="none" xmlns="http://www.w3.org/2000/svg">
<circle cx="12" cy="12" r="12" fill="#2137A8"/>
<path fill-rule="evenodd" clip-rule="evenodd" d="M17.645 6C17.647 6.00001 17.6491 6.00003 17.6511 6.00007C17.7023 5.99901 17.7544 6.0099 17.8038 6.03414C17.8396 6.0517 17.8711 6.07489 17.8978 6.1022C17.9251 6.12889 17.9483 6.16039 17.9659 6.19617C17.9901 6.24556 18.001 6.29772 17.9999 6.34886C18 6.35118 18 6.35349 18 6.35581C18 6.36953 17.9993 6.38326 17.9977 6.3969C17.9935 6.43431 17.9835 6.47166 17.9672 6.5076L11.8365 20L9.47603 14.6848C9.45732 14.6427 9.44721 14.5987 9.44494 14.5551C9.40127 14.5528 9.3573 14.5427 9.31518 14.524L4 12.1635L17.4924 6.03285C17.5275 6.01691 17.5639 6.00697 17.6004 6.0026C17.6152 6.00081 17.6301 5.99994 17.645 6ZM16.0513 7.44456L5.68142 12.1564L9.59945 13.8964L16.0513 7.44456ZM10.1036 14.4005L16.5554 7.9487L11.8436 18.3186L10.1036 14.4005Z" fill="white"/>
</svg>
