<svg width="12" height="12" viewBox="0 0 12 12" fill="none" xmlns="http://www.w3.org/2000/svg">
<path fill-rule="evenodd" clip-rule="evenodd" d="M0.75 0.75H11.25V7.86787L9.59232 6.60488C9.34931 6.41972 9.01827 6.40048 8.75544 6.55623L7.23661 7.45627L4.28033 4.49999C3.98744 4.2071 3.51256 4.2071 3.21967 4.49999L0.75 6.96966V0.75ZM9.13779 7.20145L11.25 8.81075V11.25H0.75V8.03032L3.75 5.03032L6.57062 7.85094L5.80879 8.30239C5.63062 8.40797 5.57177 8.638 5.67736 8.81618C5.78294 8.99435 6.01297 9.05319 6.19114 8.94761L9.13779 7.20145ZM0 7.87492V0.75C0 0.335786 0.335786 0 0.75 0H11.25C11.6642 0 12 0.335786 12 0.75V11.25C12 11.6642 11.6642 12 11.25 12H0.75C0.335786 12 0 11.6642 0 11.25V7.87492ZM9 3.75C9 4.16421 8.66421 4.5 8.25 4.5C7.83579 4.5 7.5 4.16421 7.5 3.75C7.5 3.33579 7.83579 3 8.25 3C8.66421 3 9 3.33579 9 3.75ZM9.75 3.75C9.75 4.57843 9.07843 5.25 8.25 5.25C7.42157 5.25 6.75 4.57843 6.75 3.75C6.75 2.92157 7.42157 2.25 8.25 2.25C9.07843 2.25 9.75 2.92157 9.75 3.75Z" fill="#63E196"/>
</svg>
