<svg width="30" height="30" viewBox="0 0 30 30" fill="none" xmlns="http://www.w3.org/2000/svg">
<circle cx="15" cy="15" r="15" fill="#E4E4E4"/>
<path fill-rule="evenodd" clip-rule="evenodd" d="M8.875 8.875H21.125V17.1792L19.191 15.7057C18.9075 15.4897 18.5213 15.4672 18.2147 15.6489L16.4427 16.699L12.9937 13.25C12.652 12.9083 12.098 12.9083 11.7563 13.25L8.875 16.1313V8.875ZM18.6608 16.4017L21.125 18.2792V21.125H8.875V17.3687L12.375 13.8687L15.6657 17.1594L14.7769 17.6861C14.5691 17.8093 14.5004 18.0777 14.6236 18.2855C14.7468 18.4934 15.0151 18.5621 15.223 18.4389L18.6608 16.4017ZM8 17.1874V8.875C8 8.39175 8.39175 8 8.875 8H21.125C21.6082 8 22 8.39175 22 8.875V21.125C22 21.6082 21.6082 22 21.125 22H8.875C8.39175 22 8 21.6082 8 21.125V17.1874ZM18.5 12.375C18.5 12.8582 18.1082 13.25 17.625 13.25C17.1418 13.25 16.75 12.8582 16.75 12.375C16.75 11.8918 17.1418 11.5 17.625 11.5C18.1082 11.5 18.5 11.8918 18.5 12.375ZM19.375 12.375C19.375 13.3415 18.5915 14.125 17.625 14.125C16.6585 14.125 15.875 13.3415 15.875 12.375C15.875 11.4085 16.6585 10.625 17.625 10.625C18.5915 10.625 19.375 11.4085 19.375 12.375Z" fill="#888888"/>
</svg>
