<svg width="18" height="18" viewBox="0 0 18 18" fill="none" xmlns="http://www.w3.org/2000/svg">
<path fill-rule="evenodd" clip-rule="evenodd" d="M8.18603 7.91075C8.45001 7.88719 8.72129 7.875 9 7.875C9.27869 7.875 9.54995 7.88719 9.81392 7.91075C11.4245 7.55068 12.6032 6.14511 12.6032 4.5C12.6032 2.58826 11.0115 1 8.99996 1C6.98845 1 5.39673 2.58826 5.39673 4.5C5.39673 6.14511 6.57543 7.55069 8.18603 7.91075ZM6.45596 8.25093C5.21482 7.44487 4.39673 6.06583 4.39673 4.5C4.39673 2.01472 6.45767 0 8.99996 0C11.5423 0 13.6032 2.01472 13.6032 4.5C13.6032 6.06582 12.7851 7.44485 11.544 8.25091C13.1042 8.73906 14.3449 9.66025 15.3074 10.7616C16.7318 12.3914 17.5536 14.4186 17.954 16.0541C18.2118 17.1071 17.3469 18 16.3274 18H1.67255C0.653112 18 -0.211825 17.1071 0.0459865 16.0541C0.446391 14.4186 1.2682 12.3914 2.69261 10.7616C3.65512 9.66026 4.89577 8.73908 6.45596 8.25093ZM1.16519 16.3159C1.53794 14.7934 2.29648 12.9467 3.56757 11.4924C4.82627 10.0521 6.58034 9 9 9C11.4197 9 13.1737 10.0521 14.4324 11.4924C15.7035 12.9467 16.4621 14.7934 16.8348 16.3159C16.8992 16.5791 16.6924 16.875 16.3274 16.875H1.67255C1.30758 16.875 1.10077 16.5791 1.16519 16.3159Z" fill="white"/>
</svg>
