<svg width="20" height="18" viewBox="0 0 20 18" fill="none" xmlns="http://www.w3.org/2000/svg">
<path fill-rule="evenodd" clip-rule="evenodd" d="M16.2774 3.58398L10 0L3.72266 3.58398C3.49289 3.73715 3.43081 4.04759 3.58398 4.27735C3.73716 4.50712 4.04759 4.56921 4.27736 4.41603L5 3.98466V7.32071L2.14655 9.21576C1.95129 9.39517 1.95129 9.68604 2.14655 9.86545C2.34182 10.0449 2.6584 10.0449 2.85366 9.86545L4.00011 9.08492V10.191L1.28634 11.5479C1.27993 11.5509 1.27361 11.5541 1.26736 11.5574L0.276503 12.0528C0.0295135 12.1763 -0.0705987 12.4766 0.0528959 12.7236C0.176391 12.9706 0.476727 13.0707 0.723716 12.9472L1.00011 12.809V15.5V17H0.500107C0.223964 17 0.000106811 17.2239 0.000106811 17.5C0.000106811 17.7761 0.223964 18 0.500107 18H1.50011H4.49912H4.50011H4.50109H7.50011H10.0001H12.5001H15.4991H15.5001H15.5011H18.5001H19.5001C19.7762 18 20.0001 17.7761 20.0001 17.5C20.0001 17.2239 19.7762 17 19.5001 17H19.0001V15.5V12.809L19.2765 12.9472C19.5235 13.0707 19.8238 12.9706 19.9473 12.7236C20.0708 12.4766 19.9707 12.1763 19.7237 12.0528L18.7328 11.5573L18.7224 11.552L18.714 11.5479L16.0001 10.191V9.08492L17.1466 9.86545C17.3418 10.0449 17.6584 10.0449 17.8537 9.86545C18.0489 9.68604 18.0489 9.39517 17.8537 9.21576L15 7.32057V3.98465L15.7227 4.41603C15.9524 4.56921 16.2629 4.50712 16.416 4.27735C16.5692 4.04759 16.5071 3.73715 16.2774 3.58398ZM14 3.38772L10 1L6 3.38773V6.65658L10.0001 4L14 6.65644V3.38772ZM10.5001 17H12.0001V15.5V13.5C12.0001 13.2239 11.7762 13 11.5001 13H10.5001V17ZM9.50011 17H8.00011V15.5V13.5C8.00011 13.2239 8.22396 13 8.50011 13H9.50011V17ZM10.0001 12H11.5001C12.3285 12 13.0001 12.6716 13.0001 13.5V15H15.0001V10.5099C15 10.5031 15 10.4962 15.0001 10.4893V8.4041L10.0001 5L5.00011 8.4041V10.489C5.00026 10.4961 5.00026 10.5032 5.00011 10.5102V15H7.00011V13.5C7.00011 12.6716 7.67168 12 8.50011 12H10.0001ZM18.0001 12.309V15H16.0001V11.309L18.0001 12.309ZM18.0001 16H16.0001V17H18.0001V16ZM15.0001 16H13.0001V17H15.0001V16ZM2.00011 16V17H4.00011V16H2.00011ZM4.00011 15H2.00011V12.309L4.00011 11.309V15ZM5.00011 16V17H7.00011V16H5.00011Z" fill="#2137A8"/>
</svg>
