<svg width="14" height="10" viewBox="0 0 14 10" fill="none" xmlns="http://www.w3.org/2000/svg">
<path fill-rule="evenodd" clip-rule="evenodd" d="M3.45459 2.25153C2.38475 3.03112 1.49559 4.00708 0.919483 4.77759C0.821151 4.9091 0.821151 5.0909 0.919483 5.22241C1.49559 5.99292 2.38475 6.96888 3.45459 7.74847C4.52714 8.53004 5.74874 9.09091 7 9.09091C8.25127 9.09091 9.47287 8.53004 10.5454 7.74847C11.6152 6.96888 12.5044 5.99292 13.0805 5.22241C13.1789 5.0909 13.1789 4.9091 13.0805 4.77759C12.5044 4.00708 11.6152 3.03112 10.5454 2.25153C9.47287 1.46996 8.25127 0.909091 7 0.909091C5.74874 0.909091 4.52714 1.46996 3.45459 2.25153ZM2.98002 1.49905C4.13088 0.660415 5.51778 0 7 0C8.48222 0 9.86912 0.660414 11.02 1.49905C12.1736 2.33968 13.1227 3.38287 13.7397 4.20808C14.0868 4.67221 14.0868 5.32779 13.7397 5.79192C13.1227 6.61713 12.1736 7.66032 11.02 8.50095C9.86912 9.33959 8.48222 10 7 10C5.51778 10 4.13088 9.33959 2.98002 8.50095C1.82643 7.66032 0.877279 6.61713 0.26027 5.79192C-0.0867562 5.32779 -0.086757 4.67221 0.26027 4.20808C0.877279 3.38287 1.82643 2.33968 2.98002 1.49905ZM7 8C8.44975 8 9.625 6.65686 9.625 5C9.625 4.81169 9.60982 4.62744 9.58078 4.44874C9.40256 5.33725 8.7065 6 7.875 6C6.9085 6 6.125 5.10457 6.125 4C6.125 3.04972 6.70491 2.25422 7.48236 2.05054C7.326 2.01735 7.16477 2 7 2C5.55025 2 4.375 3.34315 4.375 5C4.375 6.65686 5.55025 8 7 8ZM7 9C8.933 9 10.5 7.20914 10.5 5C10.5 2.79086 8.933 1 7 1C5.067 1 3.5 2.79086 3.5 5C3.5 7.20914 5.067 9 7 9ZM8.75 4C8.75 4.55229 8.35825 5 7.875 5C7.39175 5 7 4.55229 7 4C7 3.44772 7.39175 3 7.875 3C8.35825 3 8.75 3.44772 8.75 4Z" fill="#888888"/>
</svg>
