<svg width="69" height="65" viewBox="0 0 69 65" fill="none" xmlns="http://www.w3.org/2000/svg">
<g clip-path="url(#clip0_871_2)">
<path d="M5.88031 8.44289L3.67432 9.83988V10.7712L4.91666 11.2674L5.88031 13.658H8.30122L9.32726 12.1987L8.20832 11.0498L6.50009 11.4544L5.88031 8.44289Z" fill="#1D651D"/>
<path d="M6.18958 8.44289L6.74974 11.0498L8.19868 10.6576L9.08884 11.4641L11.1797 9.6015L12.7951 9.95352L12.6703 11.0498L13.3954 11.9187L12.6287 13.2644H10.4754L9.64762 12.4163L8.63267 13.8022L7.86729 16.6793L8.77825 17.0923V18.5419L14.4922 19.6174L18.2192 16.5753L18.8196 12.085L17.0795 11.5681L16.9561 11.1329L15.6722 9.43658L16.5623 7.38822L13.0433 3.51741H11.3447L8.30128 9.0222L6.18958 8.44289Z" fill="#1D651D"/>
<path d="M9.40491 11.6706L11.2365 9.99648L12.4165 10.1351V11.1593L13.0682 11.9187L12.4317 13.0524L10.6154 12.9124L9.40491 11.6706Z" fill="#1D651D"/>
<path d="M3.16275 20.8896L5.74034 17.9252H6.81075L7.72725 18.8413L8.65901 18.7789L14.4354 19.8655L15.5377 21.4482L14.6988 22.1633L13.5965 21.9304L14.3106 25.6239L13.5812 27.6417L15.087 28.4012L15.6306 28.0298L17.2764 30.5119H8.20838L6.62495 28.2002L7.13797 26.8033L5.46025 25.8248L4.48274 22.938L2.92981 22.349L3.19325 22.0385L3.16275 20.8896Z" fill="#1D651D"/>
<path d="M7.20453 30.9125H19.585V32.1986L17.1835 38.8412H12.4637L9.60603 37.0825L7.51512 38.8412L6.00378 37.5786L7.9089 33.8547L7.76331 31.64L7.18373 31.4959L7.20453 30.9125Z" fill="#1D651D"/>
<path d="M5.81794 37.8683L7.55667 39.1308L9.64758 37.4969L12.2349 39.1308H17.0587L18.9846 46.332V47.492H18.1776L17.9502 47.0568H16.5831L16.0243 47.6569L16.6455 49.1467L15.7969 49.726L15.7553 49.1051L13.5396 50.1404L12.4013 49.9741V51.0925H8.40523L7.86725 50.7613L7.06028 51.0925L5.27996 49.6844L4.45081 50.595L3.12666 50.4716V51.2367L3.51905 51.5887V52.168L3.02267 51.9199L1.15915 52.9954L0 51.9823L2.25729 48.153L1.34633 48.0713L0.662768 45.2454L1.42814 44.9045L1.80112 43.3939H2.56649L2.60809 42.0897L2.07011 42.0703L1.75952 41.2623L4.40921 40.683L5.81794 37.8683Z" fill="#1D651D"/>
<path d="M19.8123 32.5714L17.4524 39.0491L19.2743 46.1047L21.5926 46.6341V45.0708L24.4947 45.0292L26.4122 46.3527L27.301 46.3943L27.8335 45.6404L27.0085 44.2212L27.6171 41.6559L32.0693 37.9306V37.3513L30.6606 35.6342L30.9504 35.2614H22.8142V33.7272L19.8123 32.5714Z" fill="#1D651D"/>
<path d="M28.0456 45.1165L27.301 44.181L28.0456 41.7765L32.172 38.3242L33.1689 38.8204L33.2909 39.2348L32.8347 39.3789L32.7931 40.9519L28.6737 42.5457L28.0955 43.829L28.2175 44.691L28.0456 45.1165Z" fill="#1D651D"/>
<path d="M31.0752 35.4887L32.4825 34.1652L35.0712 35.0549L34.8438 36.8136L34.3045 37.3098V38.1787L33.4351 38.5515L32.3383 37.9099V37.228L31.0752 35.4887Z" fill="#1D651D"/>
<path d="M24.6569 34.8886V31.744L26.4164 30.6062L27.8667 30.9125L28.4255 32.2609L26.5412 34.8886H24.6569Z" fill="#1D651D"/>
<path d="M24.2854 34.7029V31.744L26.3555 30.2334L28.1566 30.7295L28.8804 32.4674L26.7895 34.9717H31.3027L32.441 33.7272L35.0713 34.7652L36.0848 30.2334V29.406L35.8367 29.9645L34.6359 30.6062L34.1395 29.7358L34.5735 29.6541L34.6359 28.8045L34.0147 27.8746L34.3253 22.5347L35.0713 21.9554V20.4863L34.1811 19.6798L34.5125 17.8795L33.8081 16.6793L26.2515 17.8587L25.1547 21.1488L23.0222 20.5071L20.0411 22.8659V26.5912L21.6551 27.4186L19.8748 30.7087V32.1986L23.043 33.4403V34.8775H24.2854V34.7029Z" fill="#1D651D"/>
<path d="M13.871 22.3185L14.5434 25.4839H15.0412L14.6571 22.4418L13.871 22.3185Z" fill="#1D651D"/>
<path d="M15.3102 25.1527V25.7112H14.5546L14.0707 27.6611L15.0413 28.1226L15.6097 27.8122L16.2725 25.7735L15.3102 25.1527Z" fill="#1D651D"/>
<path d="M15.9522 21.5826L15.0052 22.4114L15.3518 24.6981L16.5941 25.6183L15.8787 27.7083L17.6396 30.5119H19.7305L21.2099 27.6459L19.7097 26.7561V22.6276L23.0222 20.0927L24.9675 20.7136L25.9103 17.7866L18.509 16.7403L14.7916 19.7726L15.9522 21.5826Z" fill="#1D651D"/>
<path d="M13.5396 3.51741L17.0586 7.38822L16.1892 9.53914L17.2874 11.2161L19.1703 11.733L18.6947 16.3896L26.0656 17.4651L33.6833 16.4312L25.009 0.414384L24.0357 0L24.0149 1.92501L23.6114 2.08993V2.31722L22.9597 2.25624L22.8973 1.9458L21.8006 1.92501L21.7174 3.41485L13.5396 3.51741Z" fill="#1D651D"/>
<path d="M45.6548 31.2465L50.0917 36.3202L58.7743 32.0849C58.7743 32.0849 62.5845 35.3224 64.6075 37.7477C64.6075 37.7477 68.0142 42.2727 67.2488 45.0389L66.9452 47.6818C66.9452 47.6818 66.7109 48.7656 67.1753 51.4861C67.6398 54.2066 67.809 59.4911 67.809 59.4911L68.9044 60.3725L68.8059 61.4646L68.9044 63.2676C68.9044 63.2676 68.9044 65.194 68.114 64.8725L57.9548 64.8767C57.9548 64.8767 58.1073 62.2545 56.3034 61.3149L58.3417 59.085C58.3417 59.085 57.1201 56.2675 57.6137 53.1838L58.6939 45.754L55.7294 34.179C55.7294 34.179 49.2182 40.4239 45.2485 40.507H36.9792C36.9792 40.507 35.332 45.226 35.3153 47.4822L35.1018 48.6672L34.8176 51.5346C34.8176 51.5346 34.195 51.6136 33.9149 48.5522C33.9149 48.5522 34.6068 44.3778 35.3971 42.7106C36.1875 41.0434 37.2745 36.3673 37.2745 36.3673C37.2745 36.3673 38.2298 33.0079 41.5908 32.2831L45.3456 31.1966L45.6562 31.2437L45.6548 31.2465Z" fill="white"/>
<path d="M45.7962 31.2465L44.8298 31.3892L41.6809 32.351L40.709 32.6767L40.1821 33.7799L39.26 36.3701L38.4364 38.2965C38.4364 38.2965 37.4395 40.1855 37.1344 40.4696C36.8294 40.7537 35.8824 43.6031 35.7673 45.2122C35.6522 46.8212 35.1253 49.4932 34.8771 52.1777C34.629 54.8622 34.3669 58.5334 34.4653 59.34C34.5638 60.1466 34.1353 64.3029 33.6917 64.9085L42.9385 64.8392L57.7108 53.4582C57.7108 53.4582 58.6176 46.2239 59.5313 43.0377C59.5313 43.0377 61.1688 37.7158 64.5131 37.7588L64.5478 37.5662C64.5478 37.5662 60.7168 33.3586 59.5923 32.8998L58.8325 32.1944L56.1273 33.8201C56.1273 33.8201 48.4417 40.963 45.3872 40.5431C42.3326 40.1231 43.9382 35.109 43.9382 35.109L43.69 35.1824L44.4318 32.7862L45.7962 31.2451V31.2465Z" fill="#545152"/>
<path d="M47.2187 29.09L44.3999 32.7709L43.6539 35.0272L43.4154 37.0658C43.4154 37.0658 42.8941 39.7295 45.0003 40.4211C47.1064 41.1127 51.8581 37.6022 54.4454 35.3252L55.7876 33.8201L58.7714 32.0849L57.2809 29.6513L56.6514 29.503L48.0285 33.7799L45.9861 37.4234C45.9861 37.4234 45.3108 33.6274 47.3089 30.6519L47.2187 29.09Z" fill="white"/>
<path d="M41.6129 58.5514L41.5894 55.2502L42.363 54.973C42.363 54.973 56.1273 52.8692 57.536 53.3391C57.536 53.3391 57.2892 57.573 58.3388 59.0864C58.3388 59.0864 56.5224 60.8977 56.3006 61.3163L56.5224 61.563C56.5224 61.563 51.0387 62.3848 48.4417 61.1126C48.4417 61.1126 47.5515 59.4384 45.5757 59.6851C43.5998 59.9318 41.6129 58.55 41.6129 58.55V58.5514Z" fill="#6D8EC9"/>
<path d="M12.7271 41.6393C12.7271 41.6393 13.0571 40.7011 16.565 41.3261C16.565 41.3261 19.9149 41.9844 20.7358 43.829C21.5566 45.6737 22.652 46.3209 23.3688 46.5745C24.0857 46.8281 28.6529 49.4544 28.6529 49.4544L27.5534 53.856C27.5534 53.856 21.6717 49.8383 19.6293 49.5583C18.1471 49.2119 17.4219 47.9936 17.4219 47.9936C17.4219 47.9936 15.3352 48.02 15.3074 46.8295L14.6863 45.4256L15.0648 44.8227L15.5265 44.5843L15.3449 43.9108L15.0121 43.5172C15.0121 43.5172 14.8665 44.5968 14.4395 44.6522C14.0124 44.7077 13.5049 44.0092 13.462 43.5075C13.419 43.0058 14.2079 42.5568 14.2079 42.5568C14.2079 42.5568 12.7104 42.396 12.7257 41.6393H12.7271Z" fill="#F5BCA6"/>
<path d="M13.6006 37.7699L13.699 37.4733L14.0748 37.3416L14.4575 37.4567L15.7913 41.7959C15.7913 41.7959 15.0398 41.5215 14.696 41.7211L13.6006 37.8683V37.7699Z" fill="#F2EC64"/>
<path d="M14.9275 42.4902L15.367 43.9898L15.5722 44.7548L15.9411 44.9156H16.2197L16.5109 44.4887L15.9965 42.6926L14.9275 42.4902Z" fill="#F2EC64"/>
<path d="M41.6297 56.4421C41.6297 56.4421 41.0792 56.0305 40.9128 56.1136C40.7464 56.1968 39.364 57.0352 39.364 57.0352L38.8372 57.7268V58.0927L39.5166 59.2707L39.3141 59.6213L39.2642 60.719L39.7689 61.7362L39.9076 62.486C39.9076 62.486 39.8091 64.0229 41.8016 64.5122L42.7944 64.842L58.045 64.8572C58.045 64.8572 57.8924 62.1215 56.4116 61.5214C56.4116 61.5214 49.7742 62.4361 48.1936 60.9213C48.1936 60.9213 48.1312 60.0925 46.5963 59.8181C45.0614 59.5437 43.3504 59.6477 42.4949 59.0448C41.6394 58.4419 40.7298 58.2548 40.7298 58.2548C40.7298 58.2548 41.6879 57.1835 41.6297 56.4435V56.4421Z" fill="#F5BCA6"/>
<path d="M46.9942 26.8199L47.3159 30.8473L46.9942 30.9748C46.9942 30.9748 46.1026 32.4508 46.0208 34.0155L45.8558 35.6883L45.9876 37.4234L48.0299 33.7799L56.3755 29.7691L55.5408 26.1283L53.5969 24.9767L46.9942 26.8199Z" fill="#F5BCA6"/>
<path d="M49.8615 28.7505C53.3481 28.7505 56.1745 24.6329 56.1745 19.5536C56.1745 14.4744 53.3481 10.3568 49.8615 10.3568C46.375 10.3568 43.5486 14.4744 43.5486 19.5536C43.5486 24.6329 46.375 28.7505 49.8615 28.7505Z" fill="#F5BCA6"/>
<path d="M49.795 28.7906C46.2787 28.7906 43.4169 24.6718 43.4169 19.6091C43.4169 14.5464 46.2787 10.4275 49.795 10.4275C53.3113 10.4275 56.1731 14.5464 56.1731 19.6091C56.1731 24.6718 53.3113 28.7906 49.795 28.7906ZM49.795 10.7047C46.4312 10.7047 43.6942 14.6988 43.6942 19.6091C43.6942 24.5193 46.4312 28.5135 49.795 28.5135C53.1587 28.5135 55.8958 24.5193 55.8958 19.6091C55.8958 14.6988 53.1587 10.7047 49.795 10.7047Z" fill="black"/>
<path d="M56.2229 23.2179C55.9969 23.2179 55.7696 23.1694 55.5408 23.0724L55.6503 22.8174C56.1897 23.0475 56.7138 22.9574 57.2102 22.5472C58.3263 21.6228 58.9558 19.3444 58.6868 18.1262C58.6203 17.8268 58.4692 17.4512 58.1184 17.3584C57.7024 17.2489 57.3363 17.2932 57.0327 17.4928C56.3422 17.9446 56.1633 19.0422 56.1606 19.0533L55.886 19.0104C55.8943 18.9605 56.0843 17.7811 56.8788 17.2614C57.2518 17.0174 57.6913 16.9592 58.1891 17.0909C58.5731 17.1921 58.8394 17.5288 58.9586 18.0666C59.2456 19.3665 58.6092 21.7517 57.3876 22.762C57.0202 23.0669 56.6264 23.2193 56.2243 23.2193L56.2229 23.2179Z" fill="black"/>
<path d="M56.0344 30.0906C55.9942 30.0906 55.954 30.074 55.9277 30.0393C54.5938 28.4151 55.7183 23.2332 55.7668 23.0128C55.7835 22.938 55.857 22.8909 55.9318 22.9075C56.0067 22.9241 56.0538 22.9976 56.0372 23.0724C56.0261 23.1251 54.8933 28.343 56.1412 29.8633C56.1897 29.9229 56.1814 30.0102 56.1218 30.0587C56.0954 30.0795 56.0649 30.0906 56.0344 30.0906Z" fill="black"/>
<path d="M47.1328 34.5754C47.1162 34.5754 47.0996 34.5726 47.0829 34.5657C47.0108 34.538 46.9748 34.459 47.0025 34.3869C47.2854 33.6441 47.1204 29.7511 46.9942 27.797C46.9886 27.7207 47.0469 27.6542 47.1231 27.65C47.1994 27.6445 47.266 27.7027 47.2701 27.7789C47.2854 28.0118 47.6348 33.5027 47.2618 34.4853C47.241 34.5407 47.1883 34.574 47.1328 34.574V34.5754Z" fill="black"/>
<path d="M43.5555 35.3238C43.5236 35.3238 43.4917 35.3127 43.4668 35.2919C43.4238 35.2559 43.4072 35.199 43.4224 35.145L44.1365 32.7751C44.142 32.7585 44.1504 32.7432 44.1601 32.7294L47.0233 29.1122C47.0704 29.0526 47.1578 29.0415 47.2174 29.09C47.277 29.1371 47.2881 29.2244 47.2396 29.284L44.393 32.8804L43.7815 34.9122L44.6038 34.4895C44.6717 34.4534 44.7549 34.4811 44.7909 34.5491C44.8256 34.617 44.7993 34.7001 44.7313 34.7361L43.6193 35.3085C43.5999 35.3196 43.5777 35.3238 43.5555 35.3238Z" fill="black"/>
<path d="M45.0834 39.1641C45.0834 39.1641 45.0779 39.1641 45.0751 39.1641C44.9989 39.1599 44.9406 39.0948 44.9448 39.0186C45.1278 35.7797 44.1475 32.8901 44.1378 32.861C44.1129 32.789 44.1517 32.71 44.2238 32.685C44.2959 32.6601 44.3749 32.6989 44.3999 32.7709C44.4096 32.8 45.4079 35.7395 45.2207 39.0338C45.2166 39.1073 45.1555 39.1641 45.0821 39.1641H45.0834Z" fill="black"/>
<path d="M45.9584 37.6216C45.8877 37.6216 45.8267 37.5675 45.8212 37.4955C45.3525 32.5935 47.0413 30.7337 47.1134 30.6574C47.1661 30.602 47.2535 30.5992 47.3089 30.6519C47.3644 30.7046 47.3672 30.7919 47.3159 30.8473C47.2965 30.8695 45.6423 32.7127 46.0971 37.4691C46.104 37.5454 46.0486 37.6133 45.9723 37.6202C45.9682 37.6202 45.964 37.6202 45.9584 37.6202V37.6216Z" fill="black"/>
<path d="M44.7327 39.7836C44.7091 39.7836 44.6855 39.778 44.6647 39.7656C44.5982 39.7282 44.5746 39.6436 44.612 39.5771L47.955 33.6843C47.9688 33.6593 47.9896 33.6399 48.016 33.6274L48.8812 33.2144C48.8812 33.2144 48.8854 33.2117 48.8881 33.2117L56.6542 29.5058C56.9356 29.3713 57.267 29.46 57.4431 29.7178L59.0016 31.9907C59.0224 32.0226 59.0307 32.06 59.0224 32.0974C59.0141 32.1348 58.9919 32.1667 58.96 32.1861L50.5243 37.3901C50.4896 37.4123 50.4466 37.4165 50.4064 37.404C50.3676 37.3901 50.3357 37.361 50.3218 37.3222L48.8687 33.5276L48.1741 33.8589L44.8533 39.7143C44.8283 39.76 44.7812 39.785 44.7327 39.785V39.7836ZM49.1197 33.4071L50.5215 37.0658L58.691 32.0267L57.2143 29.873C57.1159 29.7289 56.9315 29.679 56.7734 29.7552L49.1197 33.4085V33.4071Z" fill="black"/>
<path d="M45.3511 40.7274C45.1043 40.7274 44.8797 40.6927 44.6828 40.6165C42.3077 39.7087 43.5985 35.2184 43.6554 35.0272C43.6776 34.9537 43.7538 34.9122 43.8273 34.9329C43.9008 34.9551 43.9424 35.0313 43.9216 35.1048C43.9091 35.1491 42.646 39.5397 44.7826 40.3573C46.9817 41.1972 53.1352 36.4353 55.789 33.8201C55.8431 33.766 55.9318 33.7674 55.9845 33.8201C56.0386 33.8741 56.0372 33.9628 55.9845 34.0155C53.4347 36.5281 48.041 40.7246 45.3525 40.726L45.3511 40.7274Z" fill="black"/>
<path d="M58.3388 59.085C58.3277 59.085 58.3166 59.085 58.3055 59.0808C57.7703 58.9478 57.4653 56.6195 57.3585 55.6244C57.3557 55.5828 57.2185 52.24 58.7506 44.917C59.5576 41.0572 61.062 39.2583 62.1823 38.4296C63.0614 37.7796 63.8392 37.6036 64.2275 37.5578C63.0059 35.9433 58.6411 32.3372 58.5953 32.2984C58.5357 32.2498 58.5274 32.1625 58.5773 32.1029C58.6258 32.0447 58.7132 32.035 58.7728 32.0849C58.9697 32.2471 63.6021 36.0763 64.6004 37.6036C64.6282 37.6465 64.6309 37.702 64.606 37.7477C64.581 37.7934 64.5367 37.8184 64.4812 37.8184C64.4812 37.8184 64.4798 37.8184 64.477 37.8184C64.3301 37.8184 60.5018 37.9029 59.0224 44.9738C57.4986 52.2553 57.6331 55.5704 57.6358 55.6036C57.8133 57.2681 58.1516 58.7413 58.3735 58.812C58.4442 58.8355 58.4886 58.9118 58.4691 58.9838C58.4525 59.0448 58.3998 59.085 58.3388 59.085Z" fill="black"/>
<path d="M58.0893 65H33.5059C33.4476 65 33.3963 64.964 33.3755 64.9099C33.3547 64.8559 33.37 64.7949 33.413 64.7575C34.0286 64.2142 34.1659 59.9803 34.2477 57.451L34.2712 56.7608C34.3447 54.639 35.1725 42.5526 37.0762 40.0913C38.0399 38.8453 38.7637 36.8607 39.346 35.2656C39.9394 33.6371 40.2958 32.7058 40.7145 32.5048C41.5575 32.0988 45.4163 31.0261 45.5799 30.9804C45.6534 30.9596 45.7297 31.0025 45.7504 31.0774C45.7712 31.1508 45.7283 31.2271 45.6534 31.2478C45.6132 31.2589 41.656 32.3593 40.8352 32.7543C40.4982 32.9165 40.0656 34.1028 39.6067 35.3598C39.0188 36.973 38.2867 38.9798 37.2967 40.2603C35.5621 42.5013 34.6525 53.7784 34.5486 56.7691L34.525 57.4593C34.4182 60.7342 34.2782 63.7458 33.7721 64.7228H58.0879C58.1642 64.7228 58.2266 64.7852 58.2266 64.8614C58.2266 64.9376 58.1642 65 58.0879 65H58.0893Z" fill="black"/>
<path d="M50.5354 47.1968C50.4799 47.1968 50.4286 47.1884 50.3801 47.1704C50.2733 47.1316 50.1388 47.0304 50.1014 46.7713C49.996 46.0548 50.6976 44.5663 51.7264 43.7902C53.3584 42.5595 57.0577 35.7645 57.0951 35.6966C57.1312 35.6287 57.2158 35.6037 57.2837 35.6411C57.3516 35.6772 57.3766 35.7617 57.3392 35.8296C57.1866 36.111 53.5747 42.7466 51.8942 44.0133C50.8931 44.7687 50.2927 46.1615 50.3773 46.7325C50.3926 46.8323 50.4259 46.8932 50.4785 46.9126C50.5326 46.932 50.7559 46.9598 51.3243 46.465C51.4921 46.3181 51.6627 46.1726 51.836 46.0257C53.6094 44.5081 55.6185 42.7882 57.0882 38.6652C57.1145 38.5931 57.1922 38.5557 57.2657 38.5806C57.3378 38.607 57.3752 38.686 57.3503 38.758C55.8569 42.9504 53.8173 44.6952 52.0176 46.2363C51.8457 46.3832 51.6765 46.5287 51.5087 46.6743C51.1039 47.0263 50.785 47.1995 50.5395 47.1995L50.5354 47.1968Z" fill="black"/>
<path d="M60.0221 32.8375C59.9722 32.5686 59.7143 32.3912 59.4467 32.4425C58.9073 32.5437 58.1405 33.2491 56.4587 34.8345C53.6176 37.5135 49.146 41.728 45.7684 41.728C45.1791 41.728 44.6231 41.6005 44.1156 41.3136C40.2472 39.1294 43.8314 32.2762 43.8675 32.2069C43.9895 31.9782 43.9118 31.6969 43.6983 31.5597C43.4778 31.6733 43.2421 31.7357 42.9939 31.7482C42.779 32.1528 38.9549 39.5355 43.6331 42.1756C44.2917 42.5471 44.9989 42.712 45.7365 42.712C49.544 42.712 54.175 38.3464 57.1339 35.5566C58.1558 34.5934 59.3136 33.5013 59.6297 33.4154C59.8973 33.3655 60.0734 33.1063 60.0235 32.8375H60.0221Z" fill="black"/>
<path d="M34.7773 51.8451C34.7426 51.8451 34.7094 51.8326 34.6816 51.8063C34.6456 51.7716 33.804 50.9442 33.804 48.584C33.804 47.1386 34.69 44.3765 35.5482 41.7044C36.089 40.0206 36.6478 38.2799 36.9694 36.9106C37.8111 33.3378 40.7089 32.5035 40.7381 32.4952C40.8115 32.4744 40.8878 32.5187 40.9086 32.5922C40.9294 32.6656 40.885 32.7418 40.8115 32.7626C40.7838 32.7709 38.0412 33.5678 37.2384 36.9744C36.914 38.3533 36.3538 40.0996 35.8117 41.789C34.9603 44.4402 34.0813 47.1829 34.0813 48.584C34.0813 50.8112 34.8647 51.5984 34.873 51.6067C34.9271 51.6593 34.9298 51.748 34.8771 51.8021C34.8494 51.8298 34.8134 51.8451 34.7773 51.8451Z" fill="black"/>
<path d="M34.2837 60.2769C34.2837 60.2769 34.2781 60.2769 34.2754 60.2769C34.1395 60.2685 30.9435 60.0662 30.0963 59.6421C29.2783 59.2333 27.0085 58.2839 26.9849 58.2742C26.9489 58.259 26.9211 58.2299 26.9073 58.1938C26.3152 56.546 28.5573 49.744 28.6529 49.4558C28.6668 49.4156 28.6973 49.3837 28.7375 49.3685C28.7777 49.3546 28.8221 49.3588 28.8581 49.3823C29.5708 49.8355 31.5827 50.9525 32.3162 50.6989C33.0039 50.4592 33.2493 50.947 33.3672 51.1798C33.3797 51.2048 33.3949 51.2353 33.4088 51.2602C33.7928 50.8139 34.5624 51.2214 34.5943 51.238C34.6622 51.2741 34.6872 51.3586 34.6511 51.4251C34.6151 51.493 34.5305 51.518 34.4639 51.4819C34.4584 51.4792 33.8455 51.1618 33.614 51.4473C33.5862 51.4806 33.5017 51.5831 33.3783 51.5706C33.2479 51.5568 33.1855 51.4334 33.1204 51.3032C32.9956 51.0551 32.868 50.8001 32.4091 50.9595C31.5203 51.2685 29.4765 50.0836 28.8637 49.7094C28.5212 50.7696 26.7062 56.528 27.1513 58.0428C27.5146 58.1952 29.4696 59.0185 30.2211 59.394C31.0184 59.7932 34.2615 59.9969 34.2934 59.9997C34.3696 60.0038 34.4279 60.0704 34.4237 60.1466C34.4196 60.22 34.3586 60.2769 34.2851 60.2769H34.2837Z" fill="black"/>
<path d="M30.737 59.8431C30.6801 59.8431 30.626 59.807 30.6066 59.7502C30.0978 58.3172 31.4788 51.1078 31.537 50.8015C31.5523 50.7266 31.623 50.6781 31.6992 50.692C31.7741 50.7058 31.824 50.7793 31.8088 50.8541C31.7949 50.929 30.3834 58.295 30.8673 59.6574C30.8923 59.7294 30.8548 59.8084 30.7827 59.8348C30.7675 59.8403 30.7522 59.8431 30.737 59.8431Z" fill="black"/>
<path d="M67.802 59.4911C67.7272 59.4911 67.6661 59.4315 67.6634 59.3566C67.6606 59.2943 67.4485 53.1021 66.8758 50.4841C66.5084 48.8044 66.7593 47.2148 66.9812 45.8122C67.1129 44.9807 67.2363 44.1949 67.2058 43.5172C67.1254 41.7488 64.3981 37.799 64.3703 37.7588C64.326 37.6964 64.3426 37.6091 64.405 37.5661C64.4674 37.5218 64.5547 37.5384 64.5977 37.6008C64.7128 37.7657 67.3985 41.6573 67.4817 43.5047C67.5136 44.2115 67.3874 45.0098 67.2543 45.8552C67.0367 47.2342 66.7898 48.7961 67.1462 50.4245C67.7244 53.0674 67.9379 59.2846 67.9393 59.3469C67.9421 59.4231 67.8824 59.4869 67.8048 59.4897C67.8034 59.4897 67.802 59.4897 67.8006 59.4897L67.802 59.4911Z" fill="black"/>
<path d="M14.0818 42.4071C14.0693 42.4071 12.8602 42.2851 12.8256 41.6338C12.8242 41.606 12.8283 41.57 12.8755 41.5243C13.0904 41.3205 13.8003 41.2526 14.5477 41.2526C14.4742 41.1792 14.434 41.078 14.4298 40.9727C13.7171 40.9782 12.967 41.0545 12.6855 41.3233C12.5899 41.4134 12.5441 41.5257 12.5496 41.6476C12.5968 42.5485 14 42.6773 14.0596 42.6829C14.1359 42.6898 14.2038 42.633 14.2093 42.5568C14.2163 42.4805 14.1594 42.414 14.0832 42.4071H14.0818Z" fill="black"/>
<path d="M28.8498 49.3768L23.4839 46.508C23.4839 46.508 23.4728 46.5024 23.4673 46.4997C23.4534 46.4941 22.0571 45.9647 21.5053 44.8227C21.0602 43.9011 20.3267 42.6094 19.1094 42.0412C18.0694 41.5562 16.0492 41.0683 15.9633 41.0475C15.9577 41.0475 15.9508 41.0448 15.9453 41.0448C15.905 41.0406 15.8163 41.0323 15.6957 41.0226C15.7345 41.1085 15.7456 41.2097 15.7262 41.3025C15.7886 41.3081 15.8496 41.3136 15.9078 41.3192C16.0576 41.3552 18.0112 41.8347 18.9929 42.2921C19.8581 42.6967 20.5777 43.538 21.2557 44.9419C21.8381 46.1462 23.2232 46.702 23.3619 46.7547L28.7195 49.6193C28.7403 49.6304 28.7625 49.6359 28.7847 49.6359C28.8346 49.6359 28.8817 49.6096 28.9067 49.5625C28.9427 49.4946 28.9178 49.4114 28.8498 49.3754V49.3768Z" fill="black"/>
<path d="M19.3118 47.3922C19.291 47.3922 19.2702 47.388 19.2508 47.3783C17.7921 46.666 17.3609 45.3923 17.0753 44.5511C16.9588 44.2074 16.8493 43.8831 16.7259 43.8249C16.2517 43.6017 15.9882 43.0571 15.9037 42.8547C15.5057 42.7799 14.2883 42.511 14.0984 42.0357C14.0609 41.9428 14.0679 41.85 14.1178 41.7737C14.2107 41.6296 14.4478 41.5534 14.8624 41.5326C15.4225 41.5063 15.9938 41.6241 16.5137 41.8763C17.3568 42.2838 18.8556 43.0543 19.413 43.6336C19.4657 43.689 19.4643 43.7764 19.4088 43.829C19.3534 43.8817 19.266 43.8803 19.2133 43.8249C18.6865 43.2761 17.2209 42.5249 16.3931 42.1244C15.9148 41.8929 15.3906 41.7834 14.8762 41.8084C14.445 41.8292 14.3632 41.9082 14.3521 41.9206C14.3521 41.9206 14.3535 41.9262 14.3563 41.9317C14.4658 42.2048 15.4003 42.4847 16.0298 42.5956C16.0798 42.6039 16.12 42.6385 16.1366 42.6857C16.1394 42.6926 16.3751 43.3509 16.8451 43.5726C17.0767 43.6807 17.1862 44.0078 17.3401 44.461C17.6105 45.2593 18.0195 46.4664 19.3742 47.1288C19.4435 47.1621 19.4712 47.2453 19.438 47.3146C19.4144 47.3631 19.3645 47.3922 19.3132 47.3922H19.3118Z" fill="black"/>
<path d="M14.3355 44.8227C14.2773 44.8227 14.226 44.8116 14.183 44.7978C13.8156 44.6758 13.5383 44.1256 13.4357 43.6669C13.2942 43.0335 14.3674 42.263 14.4894 42.177C14.5532 42.1327 14.6392 42.1479 14.6822 42.2117C14.7265 42.274 14.7113 42.3614 14.6475 42.4043C14.2426 42.687 13.6284 43.265 13.7047 43.6059C13.7906 43.9912 14.0305 44.4554 14.2676 44.5344C14.3175 44.5511 14.3979 44.5622 14.5075 44.4665C14.8139 44.2004 14.9761 43.6516 14.9096 43.3564C14.8874 43.2566 14.843 43.1957 14.7778 43.1776C14.7044 43.1569 14.6614 43.0792 14.6822 43.0058C14.703 42.9323 14.7806 42.8908 14.8541 42.9102C15.0191 42.9573 15.1356 43.0945 15.1799 43.2954C15.2742 43.7223 15.0454 44.3667 14.6891 44.6758C14.5602 44.7867 14.4368 44.8227 14.3328 44.8227H14.3355Z" fill="black"/>
<path d="M15.4128 43.8193C15.306 43.75 15.227 43.6752 15.1937 43.5934C15.1646 43.5227 15.0828 43.4895 15.0135 43.5172C14.9428 43.5463 14.9081 43.6267 14.9372 43.6974C15.0051 43.8637 15.166 44.0023 15.3712 44.1145C15.3518 44.0147 15.3656 43.908 15.4128 43.8179V43.8193Z" fill="black"/>
<path d="M17.1432 44.3072C16.9713 44.2878 16.7688 44.2559 16.5609 44.2129C16.5733 44.3072 16.5567 44.4056 16.5123 44.4873C16.809 44.5469 17.0475 44.5746 17.1141 44.583C17.1196 44.583 17.1238 44.583 17.1293 44.583C17.1987 44.583 17.2597 44.5303 17.2666 44.4596C17.2749 44.3834 17.2195 44.3155 17.1432 44.3072Z" fill="black"/>
<path d="M15.4905 45.1678C15.4143 45.1706 15.3546 45.2343 15.356 45.3105C15.3588 45.3868 15.4198 45.4491 15.4988 45.445C15.9453 45.4325 16.1616 45.6612 16.2656 45.8566C16.4403 46.1864 16.4181 46.6646 16.2143 46.9431C16.1644 47.0124 16.1061 47.0332 16.0188 47.0138C15.6458 46.932 15.0052 46.1171 14.861 45.3965C14.8374 45.2814 14.861 45.1844 14.9345 45.0943C15.0565 44.9419 15.2992 44.8324 15.5723 44.7548C15.5182 44.6786 15.4933 44.5843 15.4961 44.4887C15.1799 44.5802 14.8832 44.716 14.7182 44.9197C14.5934 45.0749 14.5504 45.2537 14.5893 45.4505C14.7335 46.1712 15.3935 47.1593 15.9592 47.2841C15.9994 47.2924 16.0368 47.2965 16.0742 47.2965C16.2198 47.2965 16.346 47.2314 16.4375 47.1053C16.7024 46.7422 16.7342 46.149 16.511 45.7263C16.3127 45.3507 15.9522 45.1512 15.4891 45.1664L15.4905 45.1678Z" fill="black"/>
<path d="M16.5442 46.2142C16.5179 46.2142 16.4985 46.2142 16.4874 46.2142C16.4111 46.2114 16.3501 46.1476 16.3529 46.0714C16.3556 45.9952 16.4167 45.9384 16.4957 45.937C16.7772 45.9453 17.2722 45.8885 17.4191 45.7014C17.4469 45.6667 17.4801 45.6057 17.4496 45.4935C17.4302 45.42 17.4732 45.3438 17.5481 45.3244C17.6229 45.305 17.6978 45.348 17.7172 45.4228C17.763 45.5933 17.7353 45.7499 17.6354 45.8746C17.3858 46.1892 16.748 46.2155 16.5428 46.2155L16.5442 46.2142Z" fill="black"/>
<path d="M27.5202 54.0403C27.4924 54.0403 27.4647 54.032 27.4411 54.0154C27.3829 53.9752 21.644 49.9824 20.0328 49.7815C18.5229 49.593 17.5897 48.4427 17.3651 48.1364C17.1946 48.1489 16.8147 48.1211 16.0521 47.8634C15.6347 47.722 15.3657 47.5114 15.2548 47.2397C15.1286 46.9307 15.2604 46.6618 15.2659 46.6507C15.3006 46.5828 15.3838 46.5551 15.4517 46.5897C15.5196 46.6244 15.5474 46.7061 15.5141 46.7754C15.5099 46.7851 15.4337 46.9501 15.5141 47.1399C15.5931 47.3298 15.8108 47.4892 16.1422 47.6014C17.0934 47.9244 17.3887 47.8564 17.3915 47.8551C17.4483 47.8412 17.5135 47.862 17.5454 47.9119C17.5551 47.9257 18.4896 49.3103 20.0675 49.5084C21.7466 49.7177 27.3621 53.6232 27.6006 53.7895C27.663 53.8338 27.6782 53.9197 27.6353 53.9821C27.6089 54.0209 27.5645 54.0417 27.5216 54.0417L27.5202 54.0403Z" fill="black"/>
<path d="M58.4692 47.1968C58.4359 47.1968 58.4026 47.1857 58.3763 47.1607C58.3194 47.1094 58.3139 47.0221 58.3652 46.9653C58.82 46.4595 62.8479 42.0343 64.3384 42.378C65.3007 42.5983 65.8817 43.4396 66.3059 44.0535C66.4931 44.3238 66.7039 44.6301 66.8134 44.6384C66.8897 44.6439 66.9465 44.7105 66.941 44.7867C66.9354 44.8629 66.8703 44.9197 66.7926 44.9142C66.5514 44.8962 66.3531 44.6079 66.0772 44.2101C65.6792 43.6322 65.1329 42.8423 64.276 42.6468C63.1474 42.3891 59.7753 45.8095 58.5704 47.1496C58.5427 47.1801 58.5052 47.1954 58.4678 47.1954L58.4692 47.1968Z" fill="black"/>
<path d="M59.835 44.0009C59.3511 44.0009 59.1306 43.5934 59.1209 43.5754C59.0849 43.5075 59.1112 43.4243 59.1791 43.3883C59.2471 43.3523 59.3303 43.3786 59.3663 43.4451C59.3732 43.4576 59.5285 43.7362 59.853 43.7223C60.2911 43.7085 61.2631 43.1749 62.8507 39.7517C62.8826 39.6824 62.9644 39.6519 63.0351 39.6838C63.1044 39.7157 63.1349 39.7988 63.1031 39.8681C61.8413 42.5873 60.7487 43.9773 59.8558 43.9995C59.8488 43.9995 59.8419 43.9995 59.8336 43.9995L59.835 44.0009Z" fill="black"/>
<path d="M57.4931 55.3431C57.421 55.3431 57.36 55.2876 57.3544 55.2142C57.2948 54.4201 59.3538 48.1738 59.792 47.2425C59.792 47.2397 59.792 47.2369 59.792 47.2328H59.7947C59.8239 47.1718 59.846 47.1358 59.8585 47.1275C59.9043 47.1011 59.9625 47.1025 60.0055 47.133C60.0499 47.1621 60.0734 47.2203 60.0651 47.2716C60.061 47.2965 60.0512 47.3201 60.036 47.3381C59.7961 47.8772 57.5679 54.3688 57.629 55.192C57.6345 55.2682 57.5777 55.3347 57.5014 55.3403C57.4972 55.3403 57.4945 55.3403 57.4903 55.3403L57.4931 55.3431Z" fill="black"/>
<path d="M68.4786 65H58.0906C58.0199 65 57.9617 64.9473 57.9533 64.878C57.9492 64.8476 57.5734 61.7695 56.2188 61.4521C56.173 61.441 56.1356 61.4077 56.1189 61.3634C56.1037 61.3191 56.112 61.2692 56.1411 61.2317C56.3422 60.9767 58.1253 58.7413 58.9891 58.6332C59.3967 58.5819 60.2827 58.7288 61.3074 58.8993C62.4666 59.0919 63.7824 59.3109 64.7238 59.2984C65.3256 59.2915 65.6431 59.1972 65.7388 59.1376C65.571 59.0074 64.6739 58.7371 61.9785 58.7025C61.9022 58.7025 61.8412 58.6387 61.8412 58.5625C61.8412 58.4863 61.9036 58.4253 61.9799 58.4253H61.9813C63.8309 58.4502 66.0355 58.593 66.0355 59.1418C66.0355 59.5202 65.1204 59.5714 64.7266 59.5756C63.7616 59.5867 62.4319 59.3677 61.2616 59.1737C60.2994 59.0143 59.3898 58.8646 59.0224 58.9104C58.4303 58.9838 57.0895 60.5014 56.4822 61.2498C57.7162 61.7653 58.1281 64.1463 58.2112 64.7256H68.4467C68.7559 64.5413 68.7102 63.0556 68.6838 62.1603C68.663 61.4854 68.6464 60.9518 68.7213 60.7176C68.8571 60.2879 66.5693 58.3061 65.5003 57.9278C64.4784 57.5647 63.7297 55.0437 63.6978 54.9356C63.6756 54.8622 63.7186 54.7845 63.7921 54.7638C63.8656 54.743 63.9432 54.7845 63.964 54.858C64.1665 55.5509 64.8556 57.4053 65.5932 57.6658C66.4792 57.9804 69.2232 60.0496 68.9861 60.8007C68.9265 60.9906 68.9431 61.5547 68.9611 62.152C69.0083 63.6973 69.0041 64.8046 68.5299 64.9931C68.5133 65 68.4966 65.0028 68.4786 65.0028V65Z" fill="black"/>
<path d="M55.8237 22.0884C55.7502 22.0884 55.6878 22.0302 55.6851 21.9554C55.6726 21.6505 55.8972 21.4038 56.1149 21.1641C56.2965 20.9659 56.4837 20.7594 56.517 20.539C56.5752 20.1634 56.1274 19.7255 55.9499 19.5883C55.8889 19.5412 55.8778 19.4552 55.9249 19.3943C55.9721 19.3333 56.058 19.3222 56.1191 19.3693C56.1509 19.3929 56.8858 19.9666 56.7915 20.582C56.7444 20.8855 56.5281 21.1225 56.3201 21.3511C56.1315 21.5576 55.9541 21.7531 55.9624 21.9429C55.9651 22.0191 55.9055 22.0843 55.8293 22.0871C55.8279 22.0871 55.8251 22.0871 55.8237 22.0871V22.0884Z" fill="black"/>
<path d="M42.5918 61.344C41.7543 61.344 39.9948 60.1327 39.791 59.99C39.7744 59.9789 39.7605 59.9636 39.7508 59.9456C39.7452 59.9345 39.1421 58.891 38.7303 58.1509C38.6568 58.0192 38.6457 57.8723 38.6942 57.7157C38.9327 56.9576 40.616 56.1192 40.8073 56.0263C40.8226 56.0194 40.8392 56.0138 40.8572 56.0125C40.903 56.0097 41.3037 55.9847 41.5214 56.2328C41.642 56.37 41.6781 56.5557 41.6282 56.783C41.5242 57.2598 41.2177 58.1343 40.7338 58.3907C40.5661 58.4794 40.3872 58.4891 40.2139 58.4211C40.1432 58.392 40.1085 58.3117 40.1362 58.241C40.1654 58.1703 40.2458 58.1356 40.3165 58.1634C40.4149 58.2022 40.5064 58.1966 40.6035 58.1453C40.9321 57.9707 41.2316 57.2986 41.3564 56.7234C41.3855 56.5876 41.3717 56.4837 41.312 56.4158C41.2136 56.3035 41.0042 56.2855 40.903 56.2869C40.3955 56.5377 39.1268 57.2611 38.9577 57.7975C38.9313 57.882 38.9355 57.9513 38.9715 58.0151C39.3459 58.6872 39.877 59.6116 39.974 59.7793C40.5439 60.1743 42.0635 61.1264 42.6417 61.0627C42.7166 61.0543 42.7859 61.1098 42.7943 61.186C42.8026 61.2622 42.7471 61.3301 42.6708 61.3385C42.6445 61.3412 42.6182 61.3426 42.5904 61.3426L42.5918 61.344Z" fill="black"/>
<path d="M40.286 62.4846C40.25 62.4846 40.2153 62.4707 40.1876 62.4444C40.1668 62.4236 39.6704 61.9233 39.2946 61.2276C38.9036 60.5014 39.2669 59.1127 39.2822 59.0531C39.3016 58.9797 39.3778 58.9353 39.4513 58.9547C39.5248 58.9741 39.5692 59.0503 39.5498 59.1238C39.5456 59.1376 39.199 60.4653 39.5373 61.0959C39.8922 61.757 40.3761 62.2434 40.3817 62.249C40.4358 62.303 40.4358 62.3903 40.3817 62.4444C40.354 62.4721 40.3193 62.4846 40.2832 62.4846H40.286Z" fill="black"/>
<path d="M43.0855 65C43.0758 65 43.0675 65 43.0578 64.9972C42.9732 64.9806 40.9821 64.5676 40.3582 63.9855C39.7176 63.3896 39.719 61.9025 39.719 61.8402C39.719 61.7639 39.7814 61.7029 39.8576 61.7029C39.9339 61.7029 39.9963 61.7653 39.9963 61.8415C39.9963 61.8554 39.9963 63.2704 40.5468 63.7832C41.1139 64.3112 43.0925 64.7214 43.1133 64.7256C43.1881 64.7408 43.2367 64.8143 43.2214 64.8891C43.2075 64.9543 43.1507 65 43.0855 65Z" fill="black"/>
<path d="M51.9968 61.9871C51.847 61.9871 51.7125 61.9843 51.5933 61.9787C51.0387 61.951 48.2573 61.7625 47.973 60.755C47.7942 60.1258 46.33 59.8029 45.6256 59.8431C44.942 59.8833 42.7042 59.4827 42.4643 59.1723C42.3631 59.042 41.4604 58.6484 40.6826 58.3602C40.6105 58.3338 40.5744 58.2534 40.6008 58.1814C40.6271 58.1093 40.7075 58.0733 40.7796 58.0996C41.1776 58.2465 42.4892 58.7482 42.6847 59.0032C42.8595 59.1848 44.8991 59.6075 45.609 59.5659C46.3827 59.5202 48.0119 59.8722 48.2392 60.6788C48.4084 61.2747 50.1028 61.6267 51.6072 61.7016C52.9535 61.7695 56.6556 61.4008 56.6916 61.3981C56.7707 61.3925 56.8358 61.4466 56.8428 61.5228C56.8497 61.599 56.7942 61.6669 56.718 61.6738C56.5779 61.6877 53.5594 61.9871 51.9954 61.9871H51.9968Z" fill="black"/>
<path d="M58.0838 59.4689C58.0838 59.4689 58.0755 59.4689 58.0713 59.4689L41.7281 57.925V58.5722C41.7281 58.6484 41.6657 58.7108 41.5895 58.7108C41.5132 58.7108 41.4508 58.6484 41.4508 58.5722V57.7739C41.4508 57.7351 41.4674 57.6977 41.4966 57.6714C41.5257 57.645 41.5645 57.6312 41.6033 57.6353L58.0977 59.1931C58.1739 59.2 58.2294 59.2679 58.2224 59.3442C58.2155 59.4162 58.1559 59.4703 58.0852 59.4703L58.0838 59.4689Z" fill="black"/>
<path d="M41.5895 57.9111C41.5132 57.9111 41.4508 57.8488 41.4508 57.7725V55.1116C41.4508 55.0742 41.4661 55.0382 41.4924 55.0118C41.5201 54.9855 41.5562 54.9689 41.5936 54.973L57.5001 55.472C57.5763 55.4747 57.6373 55.5385 57.6346 55.6147C57.6318 55.6895 57.5708 55.7491 57.4959 55.7491C57.4945 55.7491 57.4931 55.7491 57.4917 55.7491L41.7281 55.2544V57.7725C41.7281 57.8488 41.6657 57.9111 41.5895 57.9111Z" fill="black"/>
<path d="M63.3512 62.3599C63.3069 62.3599 63.2639 62.3391 63.2362 62.3003C62.0923 60.6344 59.0557 59.6823 59.0252 59.6726C58.9517 59.6504 58.9115 59.5728 58.9337 59.4994C58.9559 59.4259 59.0335 59.3843 59.107 59.4079C59.236 59.4481 62.2656 60.3988 63.4649 62.1437C63.5079 62.2074 63.4927 62.2933 63.4289 62.3363C63.4053 62.3529 63.3776 62.3612 63.3498 62.3612L63.3512 62.3599Z" fill="black"/>
<path d="M41.5895 55.2502C41.5229 55.2502 41.4633 55.2017 41.4522 55.1338C41.4397 55.0576 41.491 54.9869 41.5673 54.9744C42.1163 54.8857 55.0583 52.7889 57.6096 53.1852C57.6858 53.1963 57.7372 53.2684 57.7247 53.3432C57.7122 53.418 57.6415 53.4707 57.5666 53.4582C55.057 53.0674 41.7447 55.2253 41.6116 55.2474C41.6047 55.2474 41.5964 55.2488 41.5895 55.2488V55.2502Z" fill="black"/>
<path d="M49.4594 24.9766C47.6319 24.9766 46.4769 24.0924 46.4617 24.08C46.4021 24.0329 46.391 23.9455 46.4381 23.8859C46.4853 23.825 46.5726 23.8153 46.6322 23.8624C46.6544 23.8804 48.9394 25.6197 52.1632 24.0342C52.2311 24.001 52.3157 24.0287 52.349 24.098C52.3822 24.1673 52.3545 24.2491 52.2852 24.2837C51.2356 24.7993 50.2788 24.978 49.458 24.978L49.4594 24.9766Z" fill="black"/>
<path d="M47.6223 22.0884C47.5946 22.0884 47.5668 22.0801 47.5419 22.0635C46.9235 21.6269 47.1619 21.1266 47.4933 20.4351C47.6403 20.1288 47.8067 19.7809 47.9592 19.3458C48.4348 17.9903 47.4074 17.1865 47.3977 17.1782C47.3367 17.1325 47.3256 17.0452 47.3713 16.9842C47.4185 16.9232 47.5044 16.9121 47.5654 16.9578C47.5779 16.9675 48.762 17.8947 48.2199 19.4372C48.0618 19.8863 47.8843 20.2563 47.7429 20.5543C47.3866 21.2985 47.2937 21.5479 47.7013 21.8362C47.7637 21.8806 47.779 21.9665 47.7346 22.0288C47.7082 22.0677 47.6653 22.0871 47.6209 22.0871L47.6223 22.0884Z" fill="black"/>
<path d="M43.5582 19.9833C43.4889 19.9833 43.4307 19.932 43.421 19.8641C43.3849 19.6105 42.5738 13.622 45.0058 11.5224C47.4406 9.42133 51.1371 10.6284 51.2924 10.6811C51.3479 10.6991 51.3853 10.7504 51.3867 10.8072C51.3881 10.8641 51.3548 10.9181 51.3007 10.9403C51.23 10.9694 44.264 13.9324 43.6955 19.8571C43.6886 19.9264 43.6304 19.9805 43.561 19.9819H43.5582V19.9833ZM48.7079 10.5772C47.5668 10.5772 46.2371 10.8252 45.1874 11.7316C43.4681 13.2159 43.4751 16.9204 43.5957 18.7581C44.6716 14.1181 49.5038 11.4933 50.8473 10.8446C50.4119 10.7365 49.6188 10.5772 48.7079 10.5772Z" fill="black"/>
<path d="M62.6802 35.8518C62.633 35.8518 62.5873 35.8269 62.5609 35.7839C61.9772 34.7971 61.6736 31.2021 61.32 27.0375C60.8208 21.1488 60.1997 13.8188 58.5524 11.345C55.8459 7.28012 53.9755 8.13938 53.9574 8.14908C53.9242 8.16571 53.8839 8.16848 53.8479 8.15601C53.8118 8.14354 53.7827 8.1172 53.7675 8.08256C53.7647 8.07563 53.3751 7.29121 51.6447 7.26072C46.2399 7.30645 44.9754 11.8785 44.9643 11.9243C44.9449 11.9977 44.8686 12.0421 44.7951 12.0227C44.7217 12.0033 44.6773 11.927 44.6967 11.8536C44.7092 11.8051 46.0222 7.03066 51.6474 6.98354C53.1879 7.01126 53.7716 7.60026 53.9533 7.85527C54.4344 7.70143 56.2841 7.43811 58.784 11.1925C60.47 13.7259 61.0954 21.0948 61.5973 27.0153C61.9467 31.1453 62.2504 34.7112 62.8008 35.6439C62.8396 35.7104 62.8174 35.795 62.7523 35.8338C62.7301 35.8463 62.7065 35.8532 62.6816 35.8532L62.6802 35.8518Z" fill="black"/>
<path d="M56.0954 21.0449L55.8181 21.0365C55.9041 18.3271 54.4357 16.7028 52.9868 15.4708C50.8557 13.6566 51.0983 10.9167 51.1094 10.8003L51.3854 10.8266C51.3826 10.853 51.1483 13.5416 53.1671 15.2587C54.5772 16.4589 56.1856 18.2024 56.0954 21.0449Z" fill="black"/>
<path d="M58.2141 20.2591C58.2002 20.2591 58.1863 20.2577 58.1725 20.2521C58.099 20.23 58.0588 20.151 58.081 20.0789C58.1891 19.731 58.4137 18.7346 58.1545 18.3036C58.0893 18.1955 57.9978 18.1317 57.8758 18.1095C57.0854 17.9626 56.797 19.0561 56.7943 19.0672C56.7748 19.1406 56.7 19.1864 56.6265 19.167C56.5516 19.1476 56.5072 19.0727 56.5267 18.9993C56.6459 18.5281 57.091 17.6813 57.9271 17.8365C58.1295 17.8739 58.2848 17.9834 58.3916 18.1608C58.7687 18.7872 58.3624 20.1066 58.3458 20.162C58.3278 20.2216 58.2723 20.2591 58.2141 20.2591Z" fill="black"/>
<path d="M54.0766 17.3002C54.0572 17.3002 54.0378 17.296 54.0184 17.2877C51.0969 15.9517 49.9073 17.1519 49.8962 17.1643C49.8435 17.2198 49.7562 17.2226 49.7007 17.1699C49.6452 17.1172 49.6425 17.0313 49.6938 16.9745C49.7464 16.9177 51.0151 15.6094 54.1335 17.0355C54.2028 17.0673 54.2333 17.1491 54.2014 17.2198C54.1778 17.2711 54.1279 17.3002 54.0752 17.3002H54.0766Z" fill="black"/>
<path d="M44.0686 17.3002C44.0325 17.3002 43.9979 17.2863 43.9701 17.26C43.916 17.2059 43.916 17.1186 43.9701 17.0646C45.4468 15.5913 46.911 16.7999 46.9248 16.8123C46.9831 16.8622 46.99 16.9495 46.9415 17.0077C46.893 17.0659 46.8056 17.0729 46.746 17.0244C46.6947 16.98 45.4593 15.9697 44.1656 17.2614C44.1393 17.2891 44.1032 17.3015 44.0672 17.3015L44.0686 17.3002Z" fill="black"/>
<path d="M46.0971 19.5536C46.3452 19.5536 46.5463 19.1584 46.5463 18.6708C46.5463 18.1833 46.3452 17.788 46.0971 17.788C45.849 17.788 45.6478 18.1833 45.6478 18.6708C45.6478 19.1584 45.849 19.5536 46.0971 19.5536Z" fill="#221E1F"/>
<path d="M50.7558 19.6146C51.0215 19.6146 51.2369 19.1921 51.2369 18.6708C51.2369 18.1496 51.0215 17.727 50.7558 17.727C50.4901 17.727 50.2747 18.1496 50.2747 18.6708C50.2747 19.1921 50.4901 19.6146 50.7558 19.6146Z" fill="#221E1F"/>
<path d="M14.0124 37.4497C14.0471 37.44 14.0817 37.4345 14.1164 37.4345C14.1788 37.4345 14.2412 37.4511 14.298 37.4816C14.3854 37.5301 14.4492 37.6105 14.4783 37.7075L15.6194 41.6753C15.7428 41.6781 15.8357 41.7252 15.8995 41.7959C15.9134 41.7945 15.9258 41.7918 15.9411 41.7904L14.7445 37.6313C14.696 37.4636 14.585 37.325 14.4325 37.2405C14.28 37.1559 14.1025 37.1365 13.9348 37.1836C13.5881 37.2834 13.3871 37.6465 13.4869 37.993L14.5587 41.7183C14.6225 41.6615 14.7085 41.6254 14.8194 41.6254C14.8194 41.6254 14.8194 41.6254 14.8208 41.6254L13.7545 37.9168C13.6977 37.7172 13.8127 37.5079 14.0124 37.4511V37.4497Z" fill="#221E1F"/>
<path d="M16.3515 43.2206C16.2974 43.1721 16.2586 43.1084 16.2378 43.0391C16.1921 42.9864 16.1602 42.9227 16.1463 42.8547C16.0631 42.8506 15.9924 42.8256 15.9369 42.7868L16.3765 44.3127C16.4333 44.5123 16.3182 44.7215 16.1186 44.7784C16.0215 44.8061 15.9203 44.795 15.8316 44.7465C15.7442 44.698 15.6804 44.6176 15.6513 44.5206L15.0953 42.5873C15.0801 42.5887 15.0648 42.5914 15.0482 42.5914C14.9331 42.5914 14.8443 42.5512 14.7792 42.4902L15.3851 44.5968C15.4669 44.8837 15.7303 45.0708 16.0146 45.0708C16.0742 45.0708 16.1352 45.0625 16.1948 45.0458C16.5415 44.9461 16.7425 44.583 16.6427 44.2365L16.3515 43.222V43.2206Z" fill="#221E1F"/>
<path d="M43.5943 18.7581C43.5943 18.7581 42.6293 14.4715 45.0045 11.5224L45.6464 10.2889C45.6464 10.2889 46.9345 7.66956 50.2747 7.24132C50.2747 7.24132 52.8897 6.58301 53.9518 8.01465C53.9518 8.01465 59.0238 7.09025 60.5005 17.8171C61.6222 27.3257 62.1768 35.005 62.6011 35.6231C63.0254 36.2412 58.6897 32.1944 58.6897 32.1944L58.8935 32.053L57.2809 29.6513L56.7984 29.5529L56.0233 29.9479C56.0233 29.9479 54.7602 28.5717 55.8944 23.0322L55.9665 19.5051C55.9665 19.5051 55.4743 17.0715 52.9202 15.2435C51.0262 13.4986 51.2342 10.8114 51.2342 10.8114C51.2342 10.8114 46.4049 12.207 43.593 18.7581H43.5943Z" fill="black"/>
<path d="M50.8474 28.5135C50.8474 28.5135 54.7616 28.6922 55.4438 26.3196L56.2425 21.7974L55.7253 22.3157C55.7253 22.3157 54.476 27.9355 50.8474 28.5135Z" fill="black"/>
</g>
<defs>
<clipPath id="clip0_871_2">
<rect width="69" height="65" fill="white"/>
</clipPath>
</defs>
</svg>
