<svg width="12" height="12" viewBox="0 0 12 12" fill="none" xmlns="http://www.w3.org/2000/svg">
<path fill-rule="evenodd" clip-rule="evenodd" d="M9.375 9.68348L9.61852 9.46051C10.6278 8.53633 11.25 7.23674 11.25 5.80102C11.25 3.03506 8.92354 0.749999 6 0.749999C3.07646 0.749999 0.75 3.03506 0.75 5.80102C0.75 8.56699 3.07646 10.852 6 10.852C6.62089 10.852 7.21488 10.7486 7.76538 10.5595L8.04233 10.4644L9.375 11.0494V9.68348ZM10.125 10.0137V11.6235C10.125 11.8942 9.84708 12.0757 9.59927 11.9669L8.00902 11.2689C7.38091 11.4846 6.70464 11.602 6 11.602C2.68629 11.602 0 9.00484 0 5.80102C0 2.59721 2.68629 0 6 0C9.31371 0 12 2.59721 12 5.80102C12 7.46002 11.2797 8.95636 10.125 10.0137Z" fill="#7FB2FF"/>
</svg>
