<svg width="18" height="18" viewBox="0 0 18 18" fill="none" xmlns="http://www.w3.org/2000/svg">
<path d="M17.7788 16.72L13.739 12.685C14.854 11.345 15.5289 9.62 15.5289 7.745C15.5289 3.475 12.0442 0 7.76446 0C3.48476 0 0 3.475 0 7.745C0 12.015 3.48476 15.49 7.76446 15.49C9.62433 15.49 11.3342 14.835 12.6741 13.74L16.7188 17.78C16.8638 17.925 17.0588 18 17.2488 18C17.4388 18 17.6338 17.925 17.7788 17.78C18.0737 17.485 18.0737 17.015 17.7788 16.72ZM1.5049 7.745C1.5049 4.3 4.3097 1.5 7.76446 1.5C11.2192 1.5 14.024 4.3 14.024 7.745C14.024 11.19 11.2142 13.99 7.76446 13.99C4.3147 13.99 1.5049 11.19 1.5049 7.745Z" fill="white"/>
</svg>
