<svg width="23" height="23" viewBox="0 0 23 23" fill="none" xmlns="http://www.w3.org/2000/svg">
<path fill-rule="evenodd" clip-rule="evenodd" d="M19.8648 1.77297L20.9254 2.83363C21.2183 3.12653 21.2183 3.6014 20.9254 3.89429C20.6326 4.18719 20.1577 4.18719 19.8648 3.89429L18.8041 2.83363C18.5112 2.54074 18.5112 2.06587 18.8041 1.77297C19.097 1.48008 19.5719 1.48008 19.8648 1.77297ZM17.7435 0.712313C18.6221 -0.166367 20.0468 -0.166367 20.9254 0.712313L21.9861 1.77297C22.8648 2.65165 22.8648 4.07627 21.9861 4.95495C21.1074 5.83363 19.6828 5.83363 18.8041 4.95495L18.8041 4.95492L17.7435 6.01554L18.2738 6.5459L18.2838 6.55592L20.9254 9.1976C21.2183 9.49049 21.2183 9.96536 20.9254 10.2583C20.6325 10.5511 20.1577 10.5512 19.8648 10.2583L18.2738 8.66727L6.60658 20.3345C6.02079 20.9203 5.07104 20.9203 4.48526 20.3345L3.95494 19.8042L1.30327 22.4558C1.01038 22.7487 0.535508 22.7487 0.242615 22.4558C-0.0502785 22.1629 -0.0502782 21.6881 0.242615 21.3952L2.89428 18.7435L2.36394 18.2132C1.77815 17.6274 1.77815 16.6776 2.36394 16.0918L7.66016 10.7956L7.66715 10.7885L7.67423 10.7816L9.78852 8.66726L14.0312 4.42463L12.4402 2.83364C12.1473 2.54074 12.1473 2.06587 12.4402 1.77298C12.7331 1.48008 13.2079 1.48008 13.5008 1.77298L16.1425 4.41466L16.1525 4.42458L16.6828 4.95488L17.7434 3.89426C16.8648 3.01558 16.8648 1.59098 17.7435 0.712313ZM3.4246 17.1525L8.19753 12.3796L9.25814 13.4402C9.55103 13.7331 10.0259 13.7331 10.3188 13.4402C10.6117 13.1473 10.6117 12.6724 10.3188 12.3795L9.25819 11.3189L10.3188 10.2583L11.3795 11.3189C11.6724 11.6118 12.1473 11.6118 12.4402 11.3189C12.7331 11.026 12.7331 10.5511 12.4402 10.2583L11.3795 9.19759L12.4401 8.13695L13.5008 9.19764C13.7937 9.49053 14.2686 9.49053 14.5615 9.19764C14.8544 8.90474 14.8544 8.42987 14.5615 8.13698L13.5008 7.07629L15.0918 5.48529L17.2131 7.60661L5.54592 19.2738L3.4246 17.1525Z" fill="#FD8181"/>
</svg>
