<svg width="16" height="16" viewBox="0 0 16 16" fill="none" xmlns="http://www.w3.org/2000/svg">
<path fill-rule="evenodd" clip-rule="evenodd" d="M4.42529 6.22222C4.40847 5.26131 4.5522 4.00832 5.01745 2.95774C5.28311 2.35787 5.64519 1.84275 6.12339 1.47859C6.59587 1.1188 7.20404 0.888889 7.99996 0.888889C8.79589 0.888889 9.40405 1.1188 9.87653 1.47859C10.3547 1.84275 10.7168 2.35787 10.9825 2.95774C11.4477 4.00832 11.5915 5.26131 11.5746 6.22222H4.42529ZM3.53632 6.22222C3.51977 5.17078 3.67622 3.79114 4.2047 2.59781C4.51311 1.90139 4.95659 1.24984 5.58487 0.771407C6.21887 0.288612 7.01811 0 7.99996 0C8.98181 0 9.78106 0.288612 10.4151 0.771407C11.0433 1.24984 11.4868 1.90139 11.7952 2.59781C12.3237 3.79114 12.4802 5.17078 12.4636 6.22222H15.1111C15.602 6.22222 16 6.62019 16 7.11111V15.1111C16 15.602 15.602 16 15.1111 16H0.888889C0.39797 16 0 15.602 0 15.1111V7.11111C0 6.62019 0.397969 6.22222 0.888889 6.22222H3.53632ZM0.888889 7.11111H15.1111V15.1111H0.888889V7.11111ZM8 12.4444C8.49092 12.4444 8.88889 12.0465 8.88889 11.5556C8.88889 11.0646 8.49092 10.6667 8 10.6667C7.50908 10.6667 7.11111 11.0646 7.11111 11.5556C7.11111 12.0465 7.50908 12.4444 8 12.4444ZM8 13.3333C8.98184 13.3333 9.77778 12.5374 9.77778 11.5556C9.77778 10.7272 9.21121 10.0311 8.44444 9.83379V8.44444C8.44444 8.19898 8.24546 8 8 8C7.75454 8 7.55556 8.19898 7.55556 8.44444V9.83379C6.78879 10.0311 6.22222 10.7272 6.22222 11.5556C6.22222 12.5374 7.01816 13.3333 8 13.3333Z" fill="#2137A8"/>
</svg>
