<svg width="16" height="16" viewBox="0 0 16 16" fill="none" xmlns="http://www.w3.org/2000/svg">
<path fill-rule="evenodd" clip-rule="evenodd" d="M8.71472 0.301542C8.32252 -0.100514 7.67748 -0.100514 7.28528 0.301542L0.142643 7.62368C-0.0504957 7.82167 -0.0470707 8.13924 0.150292 8.333C0.347656 8.52675 0.664219 8.52331 0.857358 8.32532L2 7.15397V15V16H3H3.5L5.60001 16L6 16H7V10.9809L9 10.9809V16H10L10.4 16L11.5 16H13H14V15V7.15397L15.1426 8.32532C15.3358 8.52331 15.6523 8.52675 15.8497 8.333C16.0471 8.13924 16.0505 7.82167 15.8574 7.62368L8.71472 0.301542ZM11.5 15L13 15V6.12884L8 1.00319L3 6.12884V15L3.5 15V14.9968H6V10.9809C6 10.4286 6.44772 9.98088 7 9.98088H9C9.55228 9.98088 10 10.4286 10 10.9809V14.9968H11.5V15Z" fill="white"/>
</svg>
