<svg width="20" height="20" viewBox="0 0 20 20" fill="none" xmlns="http://www.w3.org/2000/svg">
<path d="M11.2815 19.99H9.16478C8.47584 19.99 7.88674 19.5098 7.76692 18.8494L7.43743 16.9885C6.65862 16.7384 5.92974 16.3682 5.27074 15.8979L3.18394 16.6383C2.54492 16.8684 1.82602 16.6183 1.47656 16.048L0.428162 14.3172C0.0786969 13.7369 0.218483 12.9865 0.757657 12.5663L2.30529 11.3657C2.20544 10.8954 2.1655 10.4252 2.1655 9.97499C2.1655 9.69485 2.18547 9.4047 2.22541 9.09455L0.528009 7.76388C-0.0211502 7.35368 -0.160936 6.6033 0.198513 6.02301L1.25689 4.30215C1.60636 3.73187 2.32526 3.49175 2.96428 3.72186L4.87136 4.4022C5.49041 3.89195 6.17935 3.48174 6.93819 3.18159L7.29764 1.13057C7.41746 0.470235 7.99657 0 8.6955 0H10.8023C11.4912 0 12.0803 0.48024 12.2001 1.13057L12.5296 2.9915C13.3084 3.24162 14.0373 3.61181 14.6963 4.08204L16.7931 3.34167C17.4321 3.11156 18.151 3.36168 18.5005 3.93197L19.5589 5.65283C19.9083 6.23312 19.7685 6.98349 19.2294 7.4037L17.6817 8.6043C17.7816 9.07454 17.8315 9.54477 17.8315 10.005C17.8315 10.2751 17.8115 10.5653 17.7716 10.8754L19.479 12.1961C20.0182 12.6163 20.1579 13.3767 19.8085 13.947L18.7501 15.6678C18.4006 16.2381 17.6917 16.4782 17.0427 16.2581L15.1356 15.5878C14.5166 16.0981 13.8177 16.5083 13.0588 16.8184L12.6994 18.8694C12.5796 19.5298 12.0004 20 11.3115 20L11.2815 19.99ZM5.46045 14.7874L5.67013 14.9575C6.36906 15.4977 7.15785 15.8879 8.02652 16.1281L8.32607 16.2081L8.75541 18.6793C8.78536 18.8594 8.96509 18.9895 9.16478 18.9895H11.2716C11.4712 18.9895 11.651 18.8594 11.6809 18.6793L12.1402 16.058L12.4098 15.958C13.2485 15.6578 14.0074 15.2076 14.6564 14.6273L14.876 14.4272L17.3323 15.2977C17.532 15.3677 17.7516 15.2976 17.8515 15.1276L18.9099 13.4067C18.9997 13.2566 18.9598 13.0765 18.82 12.9665L16.6533 11.2756L16.7032 10.9855C16.7631 10.6153 16.7931 10.2851 16.7931 9.98499C16.7931 9.51476 16.7332 9.01451 16.6034 8.51426L16.5235 8.1941L18.5804 6.6033C18.7201 6.49325 18.7601 6.31316 18.6702 6.16308L17.6118 4.44222C17.512 4.28214 17.2823 4.2021 17.0926 4.27214L14.4966 5.1926L14.2869 5.03252C13.588 4.49225 12.7992 4.10205 11.9305 3.86193L11.631 3.78189L11.1917 1.31066C11.1617 1.13057 10.982 1.0005 10.7823 1.0005H8.67553C8.47583 1.0005 8.29611 1.13057 8.26616 1.31066L7.80686 3.93197L7.53727 4.03202C6.69856 4.33217 5.9497 4.78239 5.3007 5.36268L5.08104 5.56278L2.6248 4.69235C2.43509 4.62231 2.20544 4.69235 2.10559 4.86243L1.04721 6.58329C0.957351 6.73337 0.99729 6.91346 1.13708 7.02351L3.30376 8.71436L3.25383 9.0045C3.19393 9.37469 3.16397 9.70485 3.16397 10.015C3.16397 10.4952 3.22388 10.9855 3.35368 11.4857L3.43356 11.8059L1.37671 13.3967C1.23692 13.5068 1.19698 13.6868 1.28685 13.8369L2.33524 15.5678C2.43509 15.7279 2.65475 15.7979 2.85445 15.7379L5.45047 14.8174L5.46045 14.7874Z" fill="white"/>
<path fill-rule="evenodd" clip-rule="evenodd" d="M9.98473 13.0065C11.639 13.0065 12.9801 11.6627 12.9801 10.005C12.9801 8.34732 11.639 7.00351 9.98473 7.00351C8.33041 7.00351 6.98932 8.34732 6.98932 10.005C6.98932 11.6627 8.33041 13.0065 9.98473 13.0065ZM9.98473 14.007C12.1905 14.007 13.9786 12.2153 13.9786 10.005C13.9786 7.79476 12.1905 6.00301 9.98473 6.00301C7.77897 6.00301 5.99084 7.79476 5.99084 10.005C5.99084 12.2153 7.77897 14.007 9.98473 14.007Z" fill="white"/>
</svg>
