<svg width="14" height="14" viewBox="0 0 14 14" fill="none" xmlns="http://www.w3.org/2000/svg">
<path fill-rule="evenodd" clip-rule="evenodd" d="M0.875 0.875H13.125V9.17918L11.191 7.70569C10.9075 7.48967 10.5213 7.46723 10.2147 7.64894L8.44272 8.69899L4.99372 5.24999C4.65201 4.90828 4.09799 4.90828 3.75628 5.24999L0.875 8.13127V0.875ZM10.6608 8.40169L13.125 10.2792V13.125H0.875V9.36871L4.375 5.86871L7.66572 9.15943L6.77692 9.68612C6.56906 9.8093 6.5004 10.0777 6.62358 10.2855C6.74677 10.4934 7.01513 10.5621 7.223 10.4389L10.6608 8.40169ZM0 9.18741V0.875C0 0.391751 0.391751 0 0.875 0H13.125C13.6082 0 14 0.391751 14 0.875V13.125C14 13.6082 13.6082 14 13.125 14H0.875C0.391751 14 0 13.6082 0 13.125V9.18741ZM10.5 4.375C10.5 4.85825 10.1082 5.25 9.625 5.25C9.14175 5.25 8.75 4.85825 8.75 4.375C8.75 3.89175 9.14175 3.5 9.625 3.5C10.1082 3.5 10.5 3.89175 10.5 4.375ZM11.375 4.375C11.375 5.3415 10.5915 6.125 9.625 6.125C8.6585 6.125 7.875 5.3415 7.875 4.375C7.875 3.4085 8.6585 2.625 9.625 2.625C10.5915 2.625 11.375 3.4085 11.375 4.375Z" fill="#888888"/>
</svg>
