<svg width="107" height="126" viewBox="0 0 107 126" fill="none" xmlns="http://www.w3.org/2000/svg">
<path d="M53.6795 157.06C49.8895 157.06 45.4995 154.86 44.2995 151.12L44.2295 150.85C40.2295 127.43 58.5795 114.99 58.7695 114.86C59.6895 114.25 60.9295 114.5 61.5395 115.42C62.1495 116.34 61.8995 117.58 60.9795 118.19C60.3095 118.64 44.6995 129.32 48.1495 150.01C48.8895 152 52.0695 153.29 54.2795 153.02C55.9295 152.82 55.9895 152 56.0195 151.7C56.1195 150.31 55.8195 150.2 54.5195 149.73C53.5295 149.38 50.9095 148.44 51.5195 145.45C51.7395 144.37 52.7895 143.67 53.8795 143.89C54.8195 144.08 55.4695 144.91 55.4795 145.83C55.6095 145.88 55.7495 145.93 55.8595 145.97C57.3095 146.49 60.3295 147.57 59.9995 152C59.7995 154.72 57.7795 156.64 54.7395 157C54.3895 157.04 54.0295 157.06 53.6595 157.06H53.6795Z" fill="#E7EBFF"/>
<path d="M100.63 157.06C100.26 157.06 99.8995 157.04 99.5495 157C96.5095 156.64 94.4995 154.72 94.2895 152C93.9595 147.57 96.9795 146.49 98.4295 145.97C98.5495 145.93 98.6895 145.88 98.8195 145.83C98.8495 144.92 99.4895 144.1 100.42 143.91C101.5 143.69 102.55 144.37 102.77 145.45C103.38 148.45 100.76 149.38 99.7695 149.73C98.4795 150.19 98.1695 150.3 98.2695 151.7C98.2895 152.01 98.3495 152.83 100.01 153.02C102.23 153.29 105.4 152 106.14 150.01C109.59 129.32 93.9795 118.63 93.3095 118.19C92.3895 117.58 92.1395 116.34 92.7495 115.42C93.3595 114.5 94.5995 114.25 95.5195 114.86C95.7095 114.98 114.06 127.43 110.06 150.85L109.99 151.12C108.79 154.86 104.4 157.06 100.62 157.06H100.63Z" fill="#E7EBFF"/>
<path d="M72.5396 135.68C72.3196 135.68 72.0996 135.61 71.9096 135.46C64.5596 129.5 71.3796 117.55 71.6796 117.04C71.9596 116.56 72.5696 116.4 73.0496 116.68C73.5296 116.96 73.6896 117.57 73.4096 118.05C73.3496 118.16 67.1496 129.03 73.1796 133.91C73.6096 134.26 73.6696 134.89 73.3296 135.32C73.1296 135.56 72.8396 135.69 72.5496 135.69L72.5396 135.68Z" fill="#E7EBFF"/>
<path d="M82.1995 135.68C81.9095 135.68 81.6195 135.55 81.4195 135.31C81.0695 134.88 81.1395 134.25 81.5695 133.9C87.6095 129.01 81.3995 118.15 81.3395 118.04C81.0595 117.56 81.2195 116.95 81.6995 116.67C82.1795 116.39 82.7895 116.55 83.0695 117.03C83.3595 117.54 90.1895 129.49 82.8395 135.45C82.6495 135.6 82.4295 135.67 82.2095 135.67L82.1995 135.68Z" fill="#E7EBFF"/>
<path d="M66.5995 18.57L66.9695 16.23C67.3995 13.52 69.8995 0 77.2795 0C84.6595 0 86.4095 13.47 86.6695 16.17L86.8695 18.33L66.6095 18.57H66.5995ZM77.2695 4C74.8395 4 72.5095 9.54 71.3695 14.52L82.3895 14.39C81.5895 9.5 79.6495 4 77.2695 4Z" fill="#E7EBFF"/>
<path d="M137.05 75.4801C137.25 75.5001 137.46 75.5001 137.65 75.5401C137.59 46.9701 111.28 13.8101 77.3795 13.8101C43.4795 13.8101 19.4495 44.1801 17.2695 71.8401C18.0695 71.0201 19.2095 70.4801 20.6995 70.4801C20.9395 70.4801 21.1695 70.5001 21.3995 70.5301C24.2495 45.1001 47.6895 17.8101 77.3795 17.8101C107.07 17.8101 131.1 45.7901 133.45 71.5001C135.56 71.9501 136.77 73.6301 137.06 75.4801H137.05Z" fill="#E7EBFF"/>
<path d="M131.05 89.64C123.36 108.63 99.7395 115.77 77.3695 115.77C54.9995 115.77 30.6195 108.39 23.3395 88.7C23.1095 89 22.8795 89.3 22.6495 89.6C22.5595 89.69 22.4595 89.77 22.3695 89.85C22.3695 91.12 21.9695 92.39 21.1595 93.34C29.3695 109.82 49.6295 119.78 77.3795 119.78C105.13 119.78 125.86 109.6 133.89 92.79C132.4 92.25 131.46 91.04 131.06 89.65L131.05 89.64Z" fill="#E7EBFF"/>
<path d="M77.2695 120.95C50.5895 120.95 28.8795 101.87 28.8795 78.43C28.8795 54.99 50.5895 35.91 77.2695 35.91C103.95 35.91 125.66 54.99 125.66 78.43C125.66 101.87 103.95 120.95 77.2695 120.95ZM77.2695 38.91C52.2395 38.91 31.8795 56.64 31.8795 78.43C31.8795 100.22 52.2395 117.95 77.2695 117.95C102.3 117.95 122.66 100.22 122.66 78.43C122.66 56.64 102.3 38.91 77.2695 38.91Z" fill="#E7EBFF"/>
<path d="M55.0595 86.23C49.6295 86.23 45.2095 81.81 45.2095 76.38C45.2095 70.95 49.6295 66.53 55.0595 66.53C60.4895 66.53 64.9095 70.95 64.9095 76.38C64.9095 81.81 60.4895 86.23 55.0595 86.23ZM55.0595 68.53C50.7295 68.53 47.2095 72.05 47.2095 76.38C47.2095 80.71 50.7295 84.23 55.0595 84.23C59.3895 84.23 62.9095 80.71 62.9095 76.38C62.9095 72.05 59.3895 68.53 55.0595 68.53Z" fill="#E7EBFF"/>
<path d="M98.9695 86.23C93.5395 86.23 89.1195 81.81 89.1195 76.38C89.1195 70.95 93.5395 66.53 98.9695 66.53C104.4 66.53 108.82 70.95 108.82 76.38C108.82 81.81 104.4 86.23 98.9695 86.23ZM98.9695 68.53C94.6395 68.53 91.1195 72.05 91.1195 76.38C91.1195 80.71 94.6395 84.23 98.9695 84.23C103.3 84.23 106.82 80.71 106.82 76.38C106.82 72.05 103.3 68.53 98.9695 68.53Z" fill="#E7EBFF"/>
<path d="M55.4395 82.04C58.5655 82.04 61.0995 79.5059 61.0995 76.38C61.0995 73.254 58.5655 70.72 55.4395 70.72C52.3136 70.72 49.7795 73.254 49.7795 76.38C49.7795 79.5059 52.3136 82.04 55.4395 82.04Z" fill="#E7EBFF"/>
<path d="M98.9696 82.04C102.096 82.04 104.63 79.5059 104.63 76.38C104.63 73.254 102.096 70.72 98.9696 70.72C95.8436 70.72 93.3096 73.254 93.3096 76.38C93.3096 79.5059 95.8436 82.04 98.9696 82.04Z" fill="#E7EBFF"/>
<path d="M68.9295 96.18C64.3495 96.18 60.1895 93.58 59.9795 93.44C59.5095 93.14 59.3795 92.53 59.6695 92.06C59.9695 91.59 60.5795 91.46 61.0495 91.75C61.1095 91.79 66.6495 95.24 71.3695 93.84C73.5695 93.19 75.2795 91.54 76.4695 88.95C76.6995 88.45 77.2895 88.23 77.7995 88.46C78.2995 88.69 78.5195 89.28 78.2895 89.78C76.8495 92.93 74.7195 94.94 71.9295 95.76C70.9395 96.05 69.9295 96.18 68.9295 96.18Z" fill="#E7EBFF"/>
<path d="M85.8095 96.18C84.8195 96.18 83.8095 96.06 82.8095 95.76C80.0295 94.94 77.8895 92.92 76.4495 89.78C76.2195 89.28 76.4495 88.68 76.9395 88.46C77.4395 88.23 78.0395 88.46 78.2695 88.95C79.4495 91.54 81.1695 93.19 83.3695 93.84C88.0795 95.24 93.6295 91.79 93.6895 91.75C94.1495 91.46 94.7695 91.59 95.0695 92.06C95.3695 92.53 95.2295 93.14 94.7595 93.44C94.5495 93.57 90.3895 96.18 85.8095 96.18Z" fill="#E7EBFF"/>
<path d="M63.0695 36.32C57.4295 36.32 52.3995 34.99 51.9795 34.88C51.4495 34.74 51.1295 34.19 51.2795 33.65C51.4195 33.12 51.9695 32.8 52.5095 32.95C52.6995 33 71.9295 38.08 76.4595 28.17C76.6895 27.67 77.2795 27.44 77.7895 27.68C78.2895 27.91 78.5095 28.5 78.2795 29C75.5995 34.86 68.9995 36.33 63.0695 36.33V36.32Z" fill="#E7EBFF"/>
<path d="M93.5895 36.56C86.9195 36.56 79.2495 35.11 76.4595 28.99C76.2295 28.49 76.4595 27.89 76.9495 27.67C77.4495 27.44 78.0495 27.67 78.2795 28.16C82.8295 38.12 104.2 33.46 104.41 33.41C104.95 33.29 105.48 33.63 105.6 34.17C105.72 34.71 105.38 35.24 104.84 35.36C104.4 35.46 99.3695 36.55 93.5795 36.55L93.5895 36.56Z" fill="#E7EBFF"/>
<path d="M56.3895 96.18C55.9695 96.18 55.5695 95.91 55.4395 95.48C55.2695 94.95 55.5595 94.39 56.0895 94.22C60.9395 92.67 60.2195 87.77 60.1895 87.56C60.0995 87.02 60.4695 86.5 61.0195 86.41C61.5595 86.32 62.0795 86.69 62.1695 87.23C62.5595 89.57 61.9195 94.45 56.7095 96.12C56.6095 96.15 56.5095 96.17 56.3995 96.17L56.3895 96.18Z" fill="#E7EBFF"/>
<path d="M98.1495 96.1801C98.0495 96.1801 97.9495 96.1701 97.8495 96.1301C92.6295 94.4601 91.9895 89.5901 92.3895 87.2401C92.4795 86.7001 92.9995 86.3201 93.5395 86.4201C94.0795 86.5101 94.4495 87.0201 94.3595 87.5701C94.3295 87.7901 93.6095 92.6801 98.4595 94.2301C98.9895 94.4001 99.2795 94.9601 99.1095 95.4901C98.9695 95.9101 98.5795 96.1901 98.1595 96.1901L98.1495 96.1801Z" fill="#E7EBFF"/>
<path d="M11.3095 104.71C9.79948 104.71 8.28948 104.26 6.83948 103.36C4.11948 101.67 0.44948 98.93 0.0394799 94.55C-0.54052 88.39 5.19948 80.77 21.9395 65.47L22.2795 65.16L22.7195 65.03C23.0295 64.94 25.7795 64.18 27.9295 66.02C29.6795 67.52 30.2995 70.12 29.7995 73.77C28.9195 80.1 23.5095 99.81 14.7595 103.92C13.6295 104.45 12.4695 104.72 11.3195 104.72L11.3095 104.71ZM24.2095 68.8C11.7195 80.25 3.52948 88.94 4.01948 94.17C4.20948 96.18 5.72948 97.96 8.93948 99.96C10.3595 100.84 11.6595 100.94 13.0395 100.3C19.2795 97.37 24.7495 80.87 25.8195 73.22C26.2495 70.15 25.5495 69.26 25.3195 69.07C25.0195 68.8 24.5395 68.78 24.1995 68.81L24.2095 68.8Z" fill="#E7EBFF"/>
<path d="M56.8495 39.3401H56.8195C56.4895 39.3401 56.1895 39.1601 56.0095 38.8801L53.4495 34.92C53.1495 34.46 53.2795 33.8401 53.7495 33.5401C54.2095 33.2401 54.8295 33.3701 55.1295 33.8401L56.8995 36.5801L58.4095 34.5201C58.7395 34.0701 59.3595 33.98 59.8095 34.3C60.2595 34.63 60.3495 35.2501 60.0295 35.7001L57.6595 38.9301C57.4695 39.1901 57.1695 39.3401 56.8495 39.3401Z" fill="#E7EBFF"/>
<path d="M101.44 39.3401C101.17 39.3401 100.91 39.2301 100.72 39.0301L97.8096 35.9901C97.4296 35.5901 97.4396 34.9601 97.8396 34.5801C98.2396 34.2001 98.8696 34.2101 99.2496 34.6101L101.13 36.5701L102.13 34.3001C102.35 33.8001 102.94 33.5701 103.45 33.7901C103.96 34.0101 104.18 34.6001 103.96 35.1101L102.35 38.7501C102.22 39.0601 101.94 39.2701 101.61 39.3301C101.55 39.3401 101.49 39.3501 101.44 39.3501V39.3401Z" fill="#E7EBFF"/>
<path d="M77.3695 16.31C77.0895 16.31 76.8695 16.09 76.8695 15.81V7.62C76.8695 7.34 77.0895 7.12 77.3695 7.12C77.6495 7.12 77.8695 7.34 77.8695 7.62V15.82C77.8695 16.1 77.6495 16.32 77.3695 16.32V16.31Z" fill="#E7EBFF"/>
<path d="M2.57946 96.93C2.37946 96.93 2.19946 96.81 2.11946 96.62C2.01946 96.37 2.13946 96.07 2.38946 95.97C2.44946 95.94 6.89946 93.99 12.3295 84.51C12.4695 84.27 12.7695 84.19 13.0095 84.32C13.2495 84.46 13.3295 84.76 13.1995 85C7.55946 94.85 2.96946 96.81 2.77946 96.89C2.71946 96.92 2.64946 96.93 2.58946 96.93H2.57946Z" fill="#E7EBFF"/>
<path d="M5.23949 99.59C5.03949 99.59 4.85949 99.47 4.77949 99.28C4.67949 99.03 4.79949 98.73 5.04949 98.63C5.11949 98.6 9.56949 96.64 14.9895 87.17C15.1295 86.93 15.4295 86.85 15.6695 86.98C15.9095 87.12 15.9895 87.42 15.8595 87.66C10.2195 97.51 5.62949 99.47 5.43949 99.55C5.37949 99.58 5.30949 99.59 5.24949 99.59H5.23949Z" fill="#E7EBFF"/>
<path d="M7.79955 102.15C7.59955 102.15 7.41955 102.03 7.33955 101.84C7.23955 101.59 7.35955 101.29 7.60955 101.19C7.67955 101.16 12.1295 99.2 17.5495 89.73C17.6895 89.49 17.9895 89.41 18.2295 89.54C18.4695 89.68 18.5496 89.98 18.4195 90.22C12.7796 100.07 8.18955 102.03 7.99955 102.11C7.93955 102.14 7.86955 102.15 7.80955 102.15H7.79955Z" fill="#E7EBFF"/>
<path d="M41.2195 95.72C46.8196 95.72 51.3595 93.4232 51.3595 90.59C51.3595 87.7567 46.8196 85.46 41.2195 85.46C35.6193 85.46 31.0795 87.7567 31.0795 90.59C31.0795 93.4232 35.6193 95.72 41.2195 95.72Z" fill="#E7EBFF"/>
<path d="M41.2195 96.72C34.9695 96.72 30.0695 94.03 30.0695 90.59C30.0695 87.15 34.9695 84.46 41.2195 84.46C47.4695 84.46 52.3595 87.15 52.3595 90.59C52.3595 94.03 47.4595 96.72 41.2195 96.72ZM41.2195 86.46C35.8295 86.46 32.0695 88.64 32.0695 90.59C32.0695 92.54 35.8295 94.72 41.2195 94.72C46.6095 94.72 50.3595 92.54 50.3595 90.59C50.3595 88.64 46.5995 86.46 41.2195 86.46Z" fill="#E7EBFF"/>
<path d="M113.19 95.72C118.79 95.72 123.33 93.4232 123.33 90.59C123.33 87.7567 118.79 85.46 113.19 85.46C107.589 85.46 103.05 87.7567 103.05 90.59C103.05 93.4232 107.589 95.72 113.19 95.72Z" fill="#E7EBFF"/>
<path d="M113.19 96.72C106.94 96.72 102.05 94.03 102.05 90.59C102.05 87.15 106.95 84.46 113.19 84.46C119.43 84.46 124.34 87.15 124.34 90.59C124.34 94.03 119.44 96.72 113.19 96.72ZM113.19 86.46C107.8 86.46 104.05 88.64 104.05 90.59C104.05 92.54 107.81 94.72 113.19 94.72C118.57 94.72 122.34 92.54 122.34 90.59C122.34 88.64 118.58 86.46 113.19 86.46Z" fill="#E7EBFF"/>
<path d="M65.6795 66.94C65.2395 66.94 64.8395 66.65 64.7195 66.2C63.0295 59.99 55.8495 59.67 55.5395 59.66C54.9895 59.64 54.5595 59.18 54.5695 58.63C54.5895 58.08 55.0095 57.65 55.5995 57.66C55.6895 57.66 64.5595 58.03 66.6395 65.67C66.7895 66.2 66.4695 66.75 65.9395 66.9C65.8495 66.92 65.7595 66.94 65.6795 66.94Z" fill="#E7EBFF"/>
<path d="M89.0595 66.94C88.9695 66.94 88.8795 66.93 88.7995 66.9C88.2695 66.75 87.9495 66.2 88.0995 65.67C90.1895 58.02 99.0495 57.66 99.1395 57.66C99.6995 57.66 100.15 58.08 100.17 58.63C100.19 59.18 99.7595 59.64 99.1995 59.66C98.8995 59.67 91.7195 59.99 90.0195 66.2C89.8995 66.65 89.4995 66.94 89.0595 66.94Z" fill="#E7EBFF"/>
</svg>
