<svg width="360" height="411" viewBox="0 0 360 411" fill="none" xmlns="http://www.w3.org/2000/svg">
<g filter="url(#filter0_d_2589_4073)">
<mask id="mask0_2589_4073" style="mask-type:alpha" maskUnits="userSpaceOnUse" x="-124" y="0" width="484" height="411">
<rect x="-124" width="483.529" height="411" rx="10" fill="white"/>
</mask>
<g mask="url(#mask0_2589_4073)">
<path d="M204.435 516.953C192.982 516.953 179.715 510.305 176.088 499.002L175.877 498.186C163.789 427.41 219.243 389.815 219.818 389.422C222.598 387.579 226.345 388.335 228.189 391.115C230.032 393.895 229.277 397.642 226.496 399.486C224.472 400.846 177.297 433.121 187.723 495.648C189.96 501.662 199.57 505.56 206.249 504.744C211.235 504.14 211.416 501.662 211.507 500.755C211.809 496.554 210.903 496.222 206.974 494.802C203.982 493.744 196.064 490.903 197.908 481.867C198.573 478.603 201.746 476.488 205.04 477.153C207.881 477.727 209.845 480.235 209.875 483.016C210.268 483.167 210.691 483.318 211.023 483.439C215.405 485.01 224.532 488.274 223.535 501.662C222.93 509.882 216.826 515.684 207.639 516.772C206.581 516.893 205.493 516.953 204.375 516.953H204.435Z" fill="#8498FC"/>
<path d="M346.321 516.953C345.203 516.953 344.115 516.893 343.058 516.772C333.871 515.684 327.796 509.882 327.162 501.662C326.164 488.274 335.291 485.01 339.673 483.439C340.036 483.318 340.459 483.167 340.852 483.016C340.942 480.266 342.876 477.787 345.687 477.213C348.951 476.548 352.124 478.603 352.789 481.867C354.632 490.933 346.714 493.744 343.723 494.802C339.824 496.192 338.887 496.524 339.189 500.755C339.25 501.692 339.431 504.17 344.448 504.744C351.157 505.56 360.737 501.662 362.973 495.648C373.399 433.121 326.225 400.816 324.2 399.486C321.42 397.642 320.664 393.895 322.508 391.115C324.351 388.335 328.098 387.579 330.879 389.422C331.453 389.785 386.908 427.41 374.82 498.186L374.608 499.002C370.981 510.305 357.715 516.953 346.291 516.953H346.321Z" fill="#8498FC"/>
<path d="M261.432 452.342C260.767 452.342 260.102 452.13 259.528 451.677C237.316 433.666 257.926 397.552 258.833 396.011C259.679 394.56 261.522 394.077 262.973 394.923C264.423 395.769 264.907 397.612 264.061 399.063C263.879 399.395 245.143 432.245 263.366 446.993C264.665 448.051 264.846 449.954 263.819 451.254C263.215 451.979 262.338 452.372 261.462 452.372L261.432 452.342Z" fill="#8498FC"/>
<path d="M290.625 452.342C289.749 452.342 288.872 451.949 288.268 451.224C287.21 449.924 287.422 448.02 288.721 446.963C306.974 432.185 288.207 399.365 288.026 399.033C287.18 397.582 287.663 395.739 289.114 394.892C290.565 394.046 292.408 394.53 293.254 395.98C294.131 397.522 314.771 433.635 292.559 451.647C291.985 452.1 291.32 452.312 290.655 452.312L290.625 452.342Z" fill="#8498FC"/>
<path d="M243.481 98.4285L244.599 91.3569C245.899 83.1671 253.454 42.3088 275.757 42.3088C298.059 42.3088 303.348 83.016 304.134 91.1755L304.738 97.7032L243.511 98.4285H243.481ZM275.726 54.3971C268.383 54.3971 261.341 71.1393 257.896 86.1891L291.199 85.7963C288.782 71.0184 282.919 54.3971 275.726 54.3971Z" fill="#8498FC"/>
<path d="M456.385 270.414C456.989 270.474 457.624 270.474 458.198 270.595C458.017 184.255 378.506 84.0436 276.059 84.0436C173.611 84.0436 100.991 175.823 94.4026 259.414C96.8202 256.936 100.265 255.304 104.768 255.304C105.494 255.304 106.189 255.364 106.884 255.455C115.497 178.604 186.334 96.1318 276.059 96.1318C365.783 96.1318 438.404 180.689 445.505 258.386C451.882 259.746 455.539 264.823 456.415 270.414H456.385Z" fill="#8498FC"/>
<path d="M438.253 313.206C415.013 370.595 343.632 392.172 276.029 392.172C208.425 392.172 134.748 369.87 112.747 310.365C112.052 311.272 111.357 312.178 110.662 313.085C110.39 313.357 110.088 313.599 109.816 313.841C109.816 317.679 108.607 321.517 106.159 324.388C130.97 374.191 192.197 404.291 276.059 404.291C359.921 404.291 422.568 373.526 446.836 322.725C442.333 321.094 439.492 317.437 438.283 313.236L438.253 313.206Z" fill="#8498FC"/>
<path d="M275.726 407.827C195.097 407.827 129.488 350.166 129.488 279.329C129.488 208.492 195.097 150.831 275.726 150.831C356.354 150.831 421.963 208.492 421.963 279.329C421.963 350.166 356.354 407.827 275.726 407.827ZM275.726 159.897C200.084 159.897 138.554 213.478 138.554 279.329C138.554 345.18 200.084 398.761 275.726 398.761C351.368 398.761 412.897 345.18 412.897 279.329C412.897 213.478 351.368 159.897 275.726 159.897Z" fill="#8498FC"/>
<path d="M208.606 302.901C192.196 302.901 178.839 289.544 178.839 273.134C178.839 256.724 192.196 243.366 208.606 243.366C225.016 243.366 238.373 256.724 238.373 273.134C238.373 289.544 225.016 302.901 208.606 302.901ZM208.606 249.411C195.521 249.411 184.883 260.048 184.883 273.134C184.883 286.219 195.521 296.857 208.606 296.857C221.692 296.857 232.329 286.219 232.329 273.134C232.329 260.048 221.692 249.411 208.606 249.411Z" fill="#8498FC"/>
<path d="M341.305 302.901C324.895 302.901 311.538 289.544 311.538 273.134C311.538 256.724 324.895 243.366 341.305 243.366C357.715 243.366 371.072 256.724 371.072 273.134C371.072 289.544 357.715 302.901 341.305 302.901ZM341.305 249.411C328.22 249.411 317.582 260.048 317.582 273.134C317.582 286.219 328.22 296.857 341.305 296.857C354.391 296.857 365.028 286.219 365.028 273.134C365.028 260.048 354.391 249.411 341.305 249.411Z" fill="#8498FC"/>
<path d="M209.755 290.238C219.202 290.238 226.86 282.58 226.86 273.134C226.86 263.687 219.202 256.029 209.755 256.029C200.308 256.029 192.65 263.687 192.65 273.134C192.65 282.58 200.308 290.238 209.755 290.238Z" fill="#8498FC"/>
<path d="M341.305 290.238C350.752 290.238 358.41 282.58 358.41 273.134C358.41 263.687 350.752 256.029 341.305 256.029C331.858 256.029 324.2 263.687 324.2 273.134C324.2 282.58 331.858 290.238 341.305 290.238Z" fill="#8498FC"/>
<path d="M250.522 332.971C236.681 332.971 224.109 325.113 223.475 324.69C222.054 323.783 221.661 321.94 222.538 320.52C223.444 319.099 225.288 318.706 226.708 319.583C226.89 319.704 243.632 330.13 257.896 325.899C264.544 323.935 269.712 318.948 273.308 311.121C274.003 309.61 275.787 308.945 277.328 309.64C278.839 310.335 279.504 312.118 278.809 313.629C274.457 323.149 268.02 329.223 259.588 331.701C256.596 332.578 253.544 332.971 250.522 332.971Z" fill="#8498FC"/>
<path d="M301.534 332.971C298.543 332.971 295.49 332.608 292.468 331.701C284.067 329.223 277.6 323.119 273.248 313.629C272.553 312.118 273.248 310.305 274.729 309.64C276.24 308.945 278.053 309.64 278.748 311.121C282.314 318.948 287.512 323.935 294.161 325.899C308.395 330.13 325.167 319.704 325.348 319.583C326.738 318.706 328.612 319.099 329.519 320.52C330.425 321.94 330.002 323.783 328.582 324.69C327.947 325.083 315.376 332.971 301.534 332.971Z" fill="#8498FC"/>
<path d="M232.813 152.07C215.768 152.07 200.567 148.051 199.298 147.718C197.696 147.295 196.729 145.633 197.183 144.001C197.606 142.4 199.268 141.432 200.9 141.886C201.474 142.037 259.588 157.389 273.278 127.44C273.973 125.929 275.756 125.234 277.298 125.96C278.809 126.655 279.473 128.438 278.778 129.949C270.679 147.658 250.734 152.1 232.813 152.1V152.07Z" fill="#8498FC"/>
<path d="M325.046 152.795C304.889 152.795 281.71 148.413 273.278 129.918C272.583 128.407 273.278 126.594 274.759 125.929C276.27 125.234 278.083 125.929 278.778 127.41C292.529 157.51 357.11 143.427 357.745 143.276C359.377 142.913 360.978 143.941 361.341 145.573C361.704 147.204 360.676 148.806 359.044 149.169C357.715 149.471 342.514 152.765 325.016 152.765L325.046 152.795Z" fill="#8498FC"/>
<path d="M212.626 332.97C211.356 332.97 210.147 332.154 209.755 330.855C209.241 329.253 210.117 327.561 211.719 327.047C226.376 322.363 224.2 307.555 224.109 306.92C223.837 305.288 224.956 303.717 226.618 303.445C228.25 303.173 229.821 304.291 230.093 305.923C231.272 312.995 229.338 327.742 213.593 332.789C213.29 332.88 212.988 332.94 212.656 332.94L212.626 332.97Z" fill="#8498FC"/>
<path d="M338.826 332.971C338.524 332.971 338.222 332.94 337.92 332.82C322.145 327.773 320.211 313.055 321.419 305.953C321.691 304.322 323.263 303.173 324.895 303.475C326.527 303.747 327.645 305.289 327.373 306.951C327.282 307.616 325.106 322.393 339.763 327.078C341.365 327.591 342.241 329.284 341.728 330.885C341.305 332.155 340.126 333.001 338.857 333.001L338.826 332.971Z" fill="#8498FC"/>
<path d="M76.391 358.749C71.8277 358.749 67.2644 357.389 62.8824 354.669C54.6624 349.562 43.5715 341.281 42.3324 328.044C40.5797 309.429 57.9263 286.4 108.516 240.163L109.543 239.226L110.873 238.833C111.81 238.561 120.12 236.265 126.618 241.825C131.906 246.358 133.78 254.216 132.269 265.246C129.609 284.376 113.26 343.94 86.8172 356.361C83.4022 357.963 79.8966 358.779 76.4213 358.779L76.391 358.749ZM115.376 250.226C77.6301 284.829 52.8794 311.091 54.3602 326.896C54.9344 332.97 59.528 338.35 69.2288 344.394C73.5201 347.053 77.4488 347.355 81.6192 345.421C100.477 336.567 117.008 286.703 120.241 263.584C121.541 254.306 119.425 251.617 118.73 251.042C117.823 250.226 116.373 250.166 115.345 250.257L115.376 250.226Z" fill="#8498FC"/>
<path d="M214.016 161.197H213.925C212.928 161.197 212.021 160.653 211.477 159.807L203.741 147.839C202.834 146.449 203.227 144.575 204.648 143.669C206.038 142.762 207.911 143.155 208.818 144.575L214.167 152.856L218.73 146.63C219.728 145.271 221.601 144.999 222.961 145.966C224.321 146.963 224.593 148.837 223.626 150.197L216.464 159.958C215.89 160.744 214.983 161.197 214.016 161.197Z" fill="#8498FC"/>
<path d="M348.769 161.197C347.953 161.197 347.167 160.864 346.593 160.26L337.799 151.073C336.651 149.864 336.681 147.96 337.89 146.812C339.098 145.663 341.002 145.694 342.151 146.902L347.832 152.826L350.854 145.966C351.519 144.455 353.302 143.76 354.843 144.424C356.385 145.089 357.049 146.872 356.385 148.413L351.519 159.414C351.126 160.351 350.28 160.985 349.283 161.167C349.101 161.197 348.92 161.227 348.769 161.227V161.197Z" fill="#8498FC"/>
<path d="M276.029 91.5986C275.182 91.5986 274.518 90.9338 274.518 90.0876V65.337C274.518 64.4908 275.182 63.8259 276.029 63.8259C276.875 63.8259 277.54 64.4908 277.54 65.337V90.1178C277.54 90.964 276.875 91.6289 276.029 91.6289V91.5986Z" fill="#8498FC"/>
<path d="M50.0083 335.237C49.4039 335.237 48.8599 334.874 48.6182 334.3C48.316 333.545 48.6786 332.638 49.4341 332.336C49.6155 332.245 63.0636 326.352 79.4734 297.703C79.8965 296.978 80.8031 296.736 81.5284 297.129C82.2537 297.552 82.4955 298.459 82.1026 299.184C65.0582 328.951 51.1869 334.874 50.6127 335.116C50.4314 335.207 50.2199 335.237 50.0385 335.237H50.0083Z" fill="#8498FC"/>
<path d="M58.0469 343.276C57.4425 343.276 56.8985 342.913 56.6568 342.339C56.3546 341.583 56.7172 340.677 57.4727 340.375C57.6843 340.284 71.1324 334.361 87.512 305.742C87.9351 305.017 88.8417 304.775 89.567 305.168C90.2923 305.591 90.534 306.497 90.1412 307.223C73.0968 336.99 59.2255 342.913 58.6513 343.155C58.47 343.246 58.2584 343.276 58.0771 343.276H58.0469Z" fill="#8498FC"/>
<path d="M65.7835 351.012C65.1791 351.012 64.6351 350.649 64.3933 350.075C64.0911 349.32 64.4538 348.413 65.2093 348.111C65.4208 348.02 78.869 342.097 95.2485 313.478C95.6716 312.753 96.5783 312.511 97.3035 312.904C98.0288 313.327 98.2706 314.234 97.8777 314.959C80.8333 344.726 66.9621 350.649 66.3879 350.891C66.2066 350.982 65.995 351.012 65.8137 351.012H65.7835Z" fill="#8498FC"/>
<path d="M166.78 331.58C183.704 331.58 197.424 324.639 197.424 316.077C197.424 307.515 183.704 300.574 166.78 300.574C149.856 300.574 136.137 307.515 136.137 316.077C136.137 324.639 149.856 331.58 166.78 331.58Z" fill="#8498FC"/>
<path d="M166.78 334.602C147.893 334.602 133.084 326.473 133.084 316.077C133.084 305.681 147.893 297.552 166.78 297.552C185.668 297.552 200.446 305.681 200.446 316.077C200.446 326.473 185.638 334.602 166.78 334.602ZM166.78 303.596C150.492 303.596 139.129 310.184 139.129 316.077C139.129 321.97 150.492 328.558 166.78 328.558C183.069 328.558 194.402 321.97 194.402 316.077C194.402 310.184 183.039 303.596 166.78 303.596Z" fill="#8498FC"/>
<path d="M384.279 331.58C401.203 331.58 414.922 324.639 414.922 316.077C414.922 307.515 401.203 300.574 384.279 300.574C367.355 300.574 353.635 307.515 353.635 316.077C353.635 324.639 367.355 331.58 384.279 331.58Z" fill="#8498FC"/>
<path d="M384.279 334.602C365.391 334.602 350.613 326.473 350.613 316.077C350.613 305.681 365.421 297.552 384.279 297.552C403.136 297.552 417.974 305.681 417.974 316.077C417.974 326.473 403.166 334.602 384.279 334.602ZM384.279 303.596C367.99 303.596 356.657 310.184 356.657 316.077C356.657 321.97 368.02 328.558 384.279 328.558C400.537 328.558 411.93 321.97 411.93 316.077C411.93 310.184 400.567 303.596 384.279 303.596Z" fill="#8498FC"/>
<path d="M240.7 244.605C239.371 244.605 238.162 243.729 237.799 242.369C232.692 223.602 210.994 222.635 210.057 222.605C208.395 222.544 207.095 221.154 207.125 219.492C207.186 217.83 208.455 216.53 210.238 216.561C210.51 216.561 237.316 217.679 243.602 240.767C244.055 242.369 243.088 244.031 241.486 244.484C241.214 244.545 240.942 244.605 240.7 244.605Z" fill="#8498FC"/>
<path d="M311.356 244.606C311.084 244.606 310.812 244.575 310.571 244.485C308.969 244.031 308.002 242.369 308.455 240.767C314.771 217.649 341.547 216.561 341.819 216.561C343.511 216.561 344.871 217.83 344.931 219.492C344.992 221.154 343.692 222.544 342 222.605C341.093 222.635 319.395 223.602 314.258 242.369C313.895 243.729 312.686 244.606 311.356 244.606Z" fill="#8498FC"/>
</g>
</g>
<defs>
<filter id="filter0_d_2589_4073" x="38.2131" y="42.3088" width="325.316" height="376.691" filterUnits="userSpaceOnUse" color-interpolation-filters="sRGB">
<feFlood flood-opacity="0" result="BackgroundImageFix"/>
<feColorMatrix in="SourceAlpha" type="matrix" values="0 0 0 0 0 0 0 0 0 0 0 0 0 0 0 0 0 0 127 0" result="hardAlpha"/>
<feOffset dy="4"/>
<feGaussianBlur stdDeviation="2"/>
<feComposite in2="hardAlpha" operator="out"/>
<feColorMatrix type="matrix" values="0 0 0 0 0 0 0 0 0 0 0 0 0 0 0 0 0 0 0.25 0"/>
<feBlend mode="normal" in2="BackgroundImageFix" result="effect1_dropShadow_2589_4073"/>
<feBlend mode="normal" in="SourceGraphic" in2="effect1_dropShadow_2589_4073" result="shape"/>
</filter>
</defs>
</svg>
